<svg width="197" height="197" viewBox="0 0 197 197" fill="none" xmlns="http://www.w3.org/2000/svg">
<rect x="99" width="4" height="9" fill="#56CCF2"/>
<rect x="108.885" y="0.538086" width="4" height="9" transform="rotate(6 108.885 0.538086)" fill="#56CCF2"/>
<rect x="118.947" y="2" width="4" height="9" transform="rotate(12.5 118.947 2)" fill="#56CCF2"/>
<rect x="128.995" y="4.81152" width="4" height="9" transform="rotate(19 128.995 4.81152)" fill="#56CCF2"/>
<rect x="138.403" y="8.42676" width="4" height="9" transform="rotate(23.5 138.403 8.42676)" fill="#56CCF2"/>
<rect x="147.432" y="13" width="4" height="9" transform="rotate(29.5 147.432 13)" fill="#56CCF2"/>
<rect x="156.163" y="18.5938" width="4" height="9" transform="rotate(37 156.163 18.5938)" fill="#56CCF2"/>
<rect x="164.013" y="24.9736" width="4" height="9" transform="rotate(42.5 164.013 24.9736)" fill="#56CCF2"/>
<rect x="171.131" y="31.9873" width="4" height="9" transform="rotate(47.5 171.131 31.9873)" fill="#56CCF2"/>
<rect x="177.548" y="39.7686" width="4" height="9" transform="rotate(53.5 177.548 39.7686)" fill="#56CCF2"/>
<rect x="183.062" y="47.9951" width="4" height="9" transform="rotate(59.5 183.062 47.9951)" fill="#56CCF2"/>
<rect x="187.868" y="57.0977" width="4" height="9" transform="rotate(66.5 187.868 57.0977)" fill="#56CCF2"/>
<rect x="191.652" y="66.3486" width="4" height="9" transform="rotate(71.5 191.652 66.3486)" fill="#56CCF2"/>
<rect x="194.418" y="76.082" width="4" height="9" transform="rotate(77.5 194.418 76.082)" fill="#56CCF2"/>
<rect x="196.246" y="86.0742" width="4" height="9" transform="rotate(84 196.246 86.0742)" fill="#F2F2F2"/>
<rect x="197" y="96" width="4" height="9" transform="rotate(90 197 96)" fill="#F2F2F2"/>
<rect width="4" height="9" transform="matrix(1 0 0 -1 99 197)" fill="#F2F2F2"/>
<rect width="4" height="9" transform="matrix(0.994522 -0.104528 -0.104528 -0.994522 108.986 196.438)" fill="#F2F2F2"/>
<rect width="4" height="9" transform="matrix(0.976296 -0.21644 -0.21644 -0.976296 119.145 194.885)" fill="#F2F2F2"/>
<rect width="4" height="9" transform="matrix(0.945519 -0.325568 -0.325568 -0.945519 129.053 192.167)" fill="#F2F2F2"/>
<rect width="4" height="9" transform="matrix(0.91706 -0.398749 -0.398749 -0.91706 138.463 188.558)" fill="#F2F2F2"/>
<rect width="4" height="9" transform="matrix(0.870356 -0.492424 -0.492424 -0.870356 147.512 183.944)" fill="#F2F2F2"/>
<rect width="4" height="9" transform="matrix(0.798635 -0.601815 -0.601815 -0.798635 156.221 178.334)" fill="#F2F2F2"/>
<rect width="4" height="9" transform="matrix(0.737277 -0.67559 -0.67559 -0.737277 164.228 171.862)" fill="#F2F2F2"/>
<rect width="4" height="9" transform="matrix(0.67559 -0.737277 -0.737277 -0.67559 171.371 164.788)" fill="#F2F2F2"/>
<rect width="4" height="9" transform="matrix(0.594823 -0.803857 -0.803857 -0.594823 177.756 156.954)" fill="#F2F2F2"/>
<rect width="4" height="9" transform="matrix(0.507538 -0.861629 -0.861629 -0.507538 183.428 148.411)" fill="#F2F2F2"/>
<rect width="4" height="9" transform="matrix(0.398749 -0.91706 -0.91706 -0.398749 188.141 139.389)" fill="#F2F2F2"/>
<rect width="4" height="9" transform="matrix(0.317305 -0.948324 -0.948324 -0.317305 191.822 130.08)" fill="#F2F2F2"/>
<rect width="4" height="9" transform="matrix(0.21644 -0.976296 -0.976296 -0.21644 194.547 120.243)" fill="#F2F2F2"/>
<rect width="4" height="9" transform="matrix(0.104529 -0.994522 -0.994522 -0.104529 196.314 110.277)" fill="#F2F2F2"/>
<rect width="4" height="9" transform="matrix(-1 0 0 1 103 0)" fill="#56CCF2"/>
<rect width="4" height="9" transform="matrix(-0.994522 0.104528 0.104528 0.994522 92.3652 0.0332031)" fill="#F2F2F2"/>
<rect width="4" height="9" transform="matrix(-0.976296 0.21644 0.21644 0.976296 81.9668 1.27734)" fill="#F2F2F2"/>
<rect width="4" height="9" transform="matrix(-0.953717 0.300706 0.300706 0.953717 71.7842 3.64355)" fill="#F2F2F2"/>
<rect width="4" height="9" transform="matrix(-0.91706 0.398749 0.398749 0.91706 62.1738 6.8623)" fill="#F2F2F2"/>
<rect width="4" height="9" transform="matrix(-0.870356 0.492424 0.492424 0.870356 52.5381 11.333)" fill="#F2F2F2"/>
<rect width="4" height="9" transform="matrix(-0.798635 0.601815 0.601815 0.798635 43.7793 16.4492)" fill="#F2F2F2"/>
<rect width="4" height="9" transform="matrix(-0.737277 0.67559 0.67559 0.737277 35.1504 22.9453)" fill="#F2F2F2"/>
<rect width="4" height="9" transform="matrix(-0.67559 0.737277 0.737277 0.67559 27.6484 30.0342)" fill="#F2F2F2"/>
<rect width="4" height="9" transform="matrix(-0.594823 0.803857 0.803857 0.594823 20.8193 37.8457)" fill="#F2F2F2"/>
<rect width="4" height="9" transform="matrix(-0.507538 0.861629 0.861629 0.507538 14.9121 46.3418)" fill="#F2F2F2"/>
<rect width="4" height="9" transform="matrix(-0.398749 0.91706 0.91706 0.398749 9.68945 55.7363)" fill="#F2F2F2"/>
<rect width="4" height="9" transform="matrix(-0.317305 0.948324 0.948324 0.317305 5.76758 65.1631)" fill="#F2F2F2"/>
<rect width="4" height="9" transform="matrix(-0.21644 0.976296 0.976296 0.21644 2.76953 75.3135)" fill="#F2F2F2"/>
<rect width="4" height="9" transform="matrix(-0.104529 0.994522 0.994522 0.104529 0.842773 85.624)" fill="#F2F2F2"/>
<rect width="4" height="9" transform="matrix(-4.84653e-08 1 1 4.84653e-08 0 96)" fill="#F2F2F2"/>
<rect x="91.9297" y="196.827" width="4" height="9" transform="rotate(-174 91.9297 196.827)" fill="#F2F2F2"/>
<rect x="81.875" y="195.786" width="4" height="9" transform="rotate(-167.5 81.875 195.786)" fill="#F2F2F2"/>
<rect x="71.5645" y="193.444" width="4" height="9" transform="rotate(-161 71.5645 193.444)" fill="#F2F2F2"/>
<rect x="62.1152" y="190.119" width="4" height="9" transform="rotate(-156.5 62.1152 190.119)" fill="#F2F2F2"/>
<rect x="52.4629" y="185.604" width="4" height="9" transform="rotate(-150.5 52.4629 185.604)" fill="#F2F2F2"/>
<rect x="43.2031" y="180.054" width="4" height="9" transform="rotate(-144 43.2031 180.054)" fill="#F2F2F2"/>
<rect x="34.9316" y="173.825" width="4" height="9" transform="rotate(-137.5 34.9316 173.825)" fill="#F2F2F2"/>
<rect x="27.3691" y="166.656" width="4.00115" height="9" transform="rotate(-132.5 27.3691 166.656)" fill="#F2F2F2"/>
<rect x="20.6289" y="158.863" width="4" height="9" transform="rotate(-126.5 20.6289 158.863)" fill="#F2F2F2"/>
<rect x="14.6543" y="150.236" width="4" height="9" transform="rotate(-120.5 14.6543 150.236)" fill="#F2F2F2"/>
<rect x="9.4668" y="140.747" width="4" height="9" transform="rotate(-113.5 9.4668 140.747)" fill="#F2F2F2"/>
<rect x="5.54492" y="131.227" width="4" height="9" transform="rotate(-108.5 5.54492 131.227)" fill="#F2F2F2"/>
<rect x="2.6543" y="121.344" width="4" height="9" transform="rotate(-102.5 2.6543 121.344)" fill="#F2F2F2"/>
<rect x="0.8125" y="110.79" width="4" height="9" transform="rotate(-96 0.8125 110.79)" fill="#F2F2F2"/>
</svg>
