<svg width="344" height="223" viewBox="0 0 344 223" fill="none" xmlns="http://www.w3.org/2000/svg">
<path d="M0 8C0 3.58172 3.58172 0 8 0H336C340.418 0 344 3.58172 344 8V208C344 212.418 340.418 216 336 216H8C3.58173 216 0 212.418 0 208V8Z" fill="#151522"/>
<mask id="mask0" mask-type="alpha" maskUnits="userSpaceOnUse" x="0" y="0" width="344" height="216">
<path d="M0 8C0 3.58172 3.58172 0 8 0H336C340.418 0 344 3.58172 344 8V208C344 212.418 340.418 216 336 216H8C3.58173 216 0 212.418 0 208V8Z" fill="#151522"/>
</mask>
<g mask="url(#mask0)">
<path opacity="0.1" d="M1088.18 186.995C1088.18 183.496 1086.36 180.254 1083.36 178.449C1000.43 128.506 903.336 76.6411 792.696 89.3323C713.072 98.4618 660.68 148.805 590.633 173.324C499.644 205.147 428.31 164.507 346.899 137.171C237.04 100.34 101.306 110.356 3.31247 162.525C-16.1444 172.908 -35.071 185.011 -54.1104 196.929C-62.7931 202.364 -58.9221 216.363 -48.6786 216.363H1078.18C1083.7 216.363 1088.18 211.886 1088.18 206.363V186.995Z" fill="white"/>
<path opacity="0.1" d="M717.249 216.33C717.249 216.345 717.234 216.354 717.22 216.348C711.154 213.327 705.089 210.358 699.094 207.389C555.355 137.483 382.383 101.435 210.84 105.504C63.7292 109.043 -78.4087 142.814 -204.089 198.123C-213.79 202.392 -210.667 216.31 -200.068 216.31H717.229C717.24 216.31 717.249 216.319 717.249 216.33Z" fill="white"/>
</g>
<path fill-rule="evenodd" clip-rule="evenodd" d="M276.371 155.316C276.371 153.107 278.162 151.316 280.371 151.316H320.371C322.58 151.316 324.371 153.107 324.371 155.316V195.316C324.371 197.526 322.58 199.316 320.371 199.316H280.371C278.162 199.316 276.371 197.526 276.371 195.316V155.316Z" fill="white"/>
<path d="M276.871 155.316C276.871 153.383 278.438 151.816 280.371 151.816H320.371C322.304 151.816 323.871 153.383 323.871 155.316V195.316C323.871 197.249 322.304 198.816 320.371 198.816H280.371C278.438 198.816 276.871 197.249 276.871 195.316V155.316Z" stroke="#E4E4E4" stroke-opacity="0.6"/>
<circle cx="307.611" cy="175.316" r="11.1276" fill="#F79E1B"/>
<circle cx="293.132" cy="175.316" r="11.1276" fill="#EB001B"/>
<g filter="url(#filter0_dd)">
<path fill-rule="evenodd" clip-rule="evenodd" d="M276.026 155C276.026 152.791 277.817 151 280.026 151H320.026C322.236 151 324.026 152.791 324.026 155V195C324.026 197.209 322.236 199 320.026 199H280.026C277.817 199 276.026 197.209 276.026 195V155Z" fill="white"/>
<path d="M276.526 155C276.526 153.067 278.093 151.5 280.026 151.5H320.026C321.959 151.5 323.526 153.067 323.526 155V195C323.526 196.933 321.959 198.5 320.026 198.5H280.026C278.093 198.5 276.526 196.933 276.526 195V155Z" stroke="#E4E4E4" stroke-opacity="0.6"/>
<path d="M291.055 168.462L287.933 177.772C287.933 177.772 287.14 173.834 287.062 173.34C285.285 169.285 282.662 169.51 282.662 169.51L285.753 181.539V181.536H289.511L294.707 168.462H291.055Z" fill="#1565C0"/>
<path d="M294.031 181.539H297.444L299.508 168.462H296.052L294.031 181.539Z" fill="#1565C0"/>
<path d="M318.186 168.462H314.594L308.995 181.539H312.386L313.085 179.671H317.359L317.723 181.539H320.829L318.186 168.462ZM314.031 177.173L315.889 172.232L316.861 177.173H314.031Z" fill="#1565C0"/>
<path d="M304.35 172.273C304.35 171.553 304.942 171.017 306.64 171.017C307.743 171.017 309.007 171.818 309.007 171.818L309.561 169.073C309.561 169.073 307.946 168.461 306.362 168.461C302.773 168.461 300.922 170.178 300.922 172.351C300.922 176.281 305.652 175.742 305.652 177.761C305.652 178.107 305.377 178.907 303.407 178.907C301.432 178.907 300.128 178.183 300.128 178.183L299.539 180.817C299.539 180.817 300.803 181.538 303.245 181.538C305.692 181.538 309.087 179.707 309.087 177.077C309.087 173.914 304.35 173.686 304.35 172.273Z" fill="#1565C0"/>
<path d="M287.52 175.53L286.372 169.885C286.372 169.885 285.852 168.662 284.502 168.662C283.151 168.662 279.224 168.662 279.224 168.662C279.224 168.662 285.953 170.65 287.52 175.53Z" fill="#FFC107"/>
</g>
<defs>
<filter id="filter0_dd" x="260.026" y="143" width="80" height="80" filterUnits="userSpaceOnUse" color-interpolation-filters="sRGB">
<feFlood flood-opacity="0" result="BackgroundImageFix"/>
<feColorMatrix in="SourceAlpha" type="matrix" values="0 0 0 0 0 0 0 0 0 0 0 0 0 0 0 0 0 0 127 0"/>
<feOffset dy="8"/>
<feGaussianBlur stdDeviation="8"/>
<feColorMatrix type="matrix" values="0 0 0 0 0.196487 0 0 0 0 0.196487 0 0 0 0 0.279476 0 0 0 0.06 0"/>
<feBlend mode="multiply" in2="BackgroundImageFix" result="effect1_dropShadow"/>
<feColorMatrix in="SourceAlpha" type="matrix" values="0 0 0 0 0 0 0 0 0 0 0 0 0 0 0 0 0 0 127 0"/>
<feOffset dy="8"/>
<feGaussianBlur stdDeviation="4"/>
<feColorMatrix type="matrix" values="0 0 0 0 0.196487 0 0 0 0 0.196487 0 0 0 0 0.279476 0 0 0 0.08 0"/>
<feBlend mode="multiply" in2="effect1_dropShadow" result="effect2_dropShadow"/>
<feBlend mode="normal" in="SourceGraphic" in2="effect2_dropShadow" result="shape"/>
</filter>
</defs>
</svg>
