<svg width="29" height="35" viewBox="0 0 29 35" fill="none" xmlns="http://www.w3.org/2000/svg">
<path d="M21.2355 0C21.317 0 21.3984 0 21.4845 0C21.6843 2.46827 20.7422 4.31256 19.5972 5.64814C18.4737 6.97449 16.9353 8.26088 14.447 8.06569C14.281 5.63277 15.2247 3.92526 16.3681 2.59276C17.4286 1.35094 19.3728 0.245905 21.2355 0Z" fill="#F2F2F2"/>
<path d="M28.7679 25.691C28.7679 25.7155 28.7679 25.7371 28.7679 25.7601C28.0686 27.878 27.0711 29.6931 25.8539 31.3775C24.7427 32.9067 23.381 34.9647 20.9496 34.9647C18.8487 34.9647 17.4532 33.6137 15.2999 33.5768C13.0223 33.5399 11.7697 34.7065 9.68716 35C9.44894 35 9.21072 35 8.97711 35C7.44789 34.7787 6.21375 33.5676 5.31466 32.4764C2.66349 29.252 0.614796 25.0869 0.233643 19.7569C0.233643 19.2344 0.233643 18.7134 0.233643 18.1908C0.395018 14.3762 2.24853 11.2748 4.71219 9.77166C6.01242 8.97247 7.79984 8.29162 9.79013 8.59593C10.6431 8.7281 11.5145 9.02011 12.2784 9.30905C13.0023 9.58723 13.9075 10.0806 14.7651 10.0545C15.3461 10.0375 15.9239 9.73477 16.5095 9.52114C18.2247 8.90177 19.9061 8.19172 22.1223 8.52523C24.7857 8.9279 26.6761 10.1113 27.8442 11.9372C25.5911 13.3711 23.8098 15.532 24.1141 19.2221C24.3846 22.5741 26.3334 24.5352 28.7679 25.691Z" fill="#F2F2F2"/>
</svg>
