<svg width="20" height="20" viewBox="0 0 20 20" fill="none" xmlns="http://www.w3.org/2000/svg">
<mask id="path-1-inside-1" fill="#494848">
<path d="M10.5447 12.663C10.8917 12.636 11.208 12.459 11.4133 12.1767L14.5343 7.86199C14.63 7.72966 14.6157 7.54699 14.4997 7.43099C14.3837 7.31532 14.201 7.30099 14.0687 7.39632L9.75334 10.5183C9.47201 10.723 9.29501 11.0393 9.26801 11.3863C9.24101 11.7333 9.36667 12.073 9.61234 12.3187C9.83601 12.5427 10.1377 12.6667 10.4513 12.6667C10.4823 12.6667 10.5133 12.6653 10.5447 12.663ZM9.93268 11.4383C9.94434 11.286 10.0223 11.147 10.145 11.0577L12.7773 9.15332L10.8737 11.785C10.7837 11.9087 10.6447 11.9863 10.4923 11.9983C10.3407 12.0083 10.1917 11.9557 10.0833 11.8473C9.97601 11.7397 9.92068 11.5903 9.93268 11.4383Z"/>
</mask>
<path d="M10.5447 12.663L10.6932 14.6575L10.6998 14.657L10.5447 12.663ZM11.4133 12.1767L13.0308 13.353L13.0338 13.3488L11.4133 12.1767ZM14.5343 7.86199L16.1548 9.03417L16.1552 9.03372L14.5343 7.86199ZM14.4997 7.43099L15.9139 6.01677L15.9119 6.01474L14.4997 7.43099ZM14.0687 7.39632L12.8996 5.77356L12.8964 5.77592L14.0687 7.39632ZM9.75334 10.5183L8.58103 8.89792L8.57677 8.90102L9.75334 10.5183ZM9.61234 12.3187L11.0276 10.9055L11.0266 10.9044L9.61234 12.3187ZM9.93268 11.4383L11.9265 11.5957L11.9268 11.591L9.93268 11.4383ZM10.145 11.0577L8.97273 9.43723L8.96762 9.44094L10.145 11.0577ZM12.7773 9.15332L14.3978 10.3255L11.6051 7.5329L12.7773 9.15332ZM10.8737 11.785L12.4908 12.9619L12.4942 12.9572L10.8737 11.785ZM10.4923 11.9983L10.6239 13.994L10.6367 13.9931L10.6494 13.9921L10.4923 11.9983ZM10.0833 11.8473L8.66694 13.2593L8.66913 13.2615L10.0833 11.8473ZM10.6998 14.657C11.6319 14.5844 12.482 14.1076 13.0308 13.353L9.79587 11.0003C9.93399 10.8104 10.1515 10.6875 10.3895 10.669L10.6998 14.657ZM13.0338 13.3488L16.1548 9.03417L12.9138 6.68981L9.79285 11.0045L13.0338 13.3488ZM16.1552 9.03372C16.826 8.10571 16.7244 6.82726 15.9139 6.01678L13.0855 8.8452C12.507 8.26671 12.434 7.35361 12.9135 6.69026L16.1552 9.03372ZM15.9119 6.01474C15.1018 5.20697 13.8264 5.10593 12.8996 5.77356L15.2377 9.01908C14.5756 9.49605 13.6656 9.42367 13.0875 8.84724L15.9119 6.01474ZM12.8964 5.77592L8.58104 8.89792L10.9256 12.1387L15.241 9.01672L12.8964 5.77592ZM8.57677 8.90102C7.82253 9.44972 7.34647 10.3002 7.27404 11.2312L11.262 11.5415C11.2435 11.7784 11.1215 11.9963 10.9299 12.1356L8.57677 8.90102ZM7.27404 11.2312C7.20168 12.1611 7.53932 13.0741 8.19813 13.7329L11.0266 10.9044C11.194 11.0719 11.2803 11.3056 11.262 11.5415L7.27404 11.2312ZM8.19708 13.7318C8.79739 14.333 9.60884 14.6667 10.4513 14.6667V10.6667C10.6665 10.6667 10.8746 10.7523 11.0276 10.9055L8.19708 13.7318ZM10.4513 14.6667C10.5397 14.6667 10.6209 14.6629 10.6932 14.6575L10.3962 10.6685C10.4058 10.6678 10.425 10.6667 10.4513 10.6667V14.6667ZM11.9268 11.591C11.8936 12.0245 11.6718 12.4199 11.3224 12.6744L8.96762 9.44094C8.37286 9.87408 7.99505 10.5475 7.93851 11.2856L11.9268 11.591ZM11.3173 12.6781L13.9496 10.7737L11.6051 7.5329L8.97273 9.43723L11.3173 12.6781ZM11.1569 7.98112L9.2532 10.6128L12.4942 12.9572L14.3978 10.3255L11.1569 7.98112ZM9.25658 10.6081C9.51089 10.2587 9.9056 10.0383 10.3353 10.0045L10.6494 13.9921C11.3838 13.9343 12.0565 13.5586 12.4908 12.9619L9.25658 10.6081ZM10.3608 10.0027C10.7551 9.97666 11.1784 10.1139 11.4976 10.4331L8.66913 13.2615C9.205 13.7974 9.92626 14.04 10.6239 13.994L10.3608 10.0027ZM11.4997 10.4353C11.8029 10.7394 11.9607 11.1627 11.9265 11.5957L7.93888 11.2809C7.88069 12.018 8.1491 12.7399 8.66694 13.2593L11.4997 10.4353Z" fill="#494848" mask="url(#path-1-inside-1)"/>
<path d="M13.9272 3.92008C13.9659 3.94045 14.0043 3.96112 14.0426 3.9821C14.0919 4.00917 14.141 4.03674 14.1897 4.06481L14.2071 4.07484L14.2073 4.07497L14.2077 4.0752L14.2087 4.07576L14.2234 4.08435C14.3103 4.13496 14.3961 4.18714 14.4808 4.24086L14.3081 4.51315L14.0435 4.36069L14.043 4.36042L14.0426 4.36014L13.7761 4.20661L13.9272 3.92008ZM14.0035 3.9118C14.0017 3.90995 14.0005 3.90876 14.0002 3.90847L14.001 3.90928L14.0035 3.9118Z" stroke="#494848" stroke-width="2"/>
<mask id="path-4-inside-2" fill="white">
<path d="M7.2644 4.66669H5.59774C5.4134 4.66669 5.2644 4.81569 5.2644 5.00002C5.2644 5.18435 5.4134 5.33335 5.59774 5.33335H7.2644C7.44874 5.33335 7.59774 5.18435 7.59774 5.00002C7.59774 4.81569 7.44874 4.66669 7.2644 4.66669Z"/>
</mask>
<path d="M7.2644 2.66669H5.59774V6.66669H7.2644V2.66669ZM5.59774 2.66669C4.30883 2.66669 3.2644 3.71112 3.2644 5.00002H7.2644C7.2644 5.92025 6.51798 6.66669 5.59774 6.66669V2.66669ZM3.2644 5.00002C3.2644 6.28892 4.30883 7.33335 5.59774 7.33335V3.33335C6.51798 3.33335 7.2644 4.07979 7.2644 5.00002H3.2644ZM5.59774 7.33335H7.2644V3.33335H5.59774V7.33335ZM7.2644 7.33335C8.55331 7.33335 9.59774 6.28892 9.59774 5.00002H5.59774C5.59774 4.07979 6.34417 3.33335 7.2644 3.33335V7.33335ZM9.59774 5.00002C9.59774 3.71112 8.55331 2.66669 7.2644 2.66669V6.66669C6.34417 6.66669 5.59774 5.92025 5.59774 5.00002H9.59774Z" fill="#494848" mask="url(#path-4-inside-2)"/>
<mask id="path-6-inside-3" fill="white">
<path d="M7.26432 7H3.93099C3.74666 7 3.59766 7.149 3.59766 7.33333C3.59766 7.51767 3.74666 7.66667 3.93099 7.66667H7.26432C7.44866 7.66667 7.59766 7.51767 7.59766 7.33333C7.59766 7.149 7.44866 7 7.26432 7Z"/>
</mask>
<path d="M7.26432 5H3.93099V9H7.26432V5ZM3.93099 5C2.64209 5 1.59766 6.04443 1.59766 7.33333H5.59766C5.59766 8.25357 4.85122 9 3.93099 9V5ZM1.59766 7.33333C1.59766 8.62224 2.64209 9.66667 3.93099 9.66667V5.66667C4.85122 5.66667 5.59766 6.41309 5.59766 7.33333H1.59766ZM3.93099 9.66667H7.26432V5.66667H3.93099V9.66667ZM7.26432 9.66667C8.55322 9.66667 9.59766 8.62224 9.59766 7.33333H5.59766C5.59766 6.41309 6.34409 5.66667 7.26432 5.66667V9.66667ZM9.59766 7.33333C9.59766 6.04443 8.55322 5 7.26432 5V9C6.34409 9 5.59766 8.25357 5.59766 7.33333H9.59766Z" fill="#494848" mask="url(#path-6-inside-3)"/>
<mask id="path-8-inside-4" fill="white">
<path d="M7.26424 9.33334H2.26424C2.07991 9.33334 1.93091 9.48234 1.93091 9.66668C1.93091 9.85101 2.07991 10 2.26424 10H7.26424C7.44858 10 7.59758 9.85101 7.59758 9.66668C7.59758 9.48234 7.44858 9.33334 7.26424 9.33334Z"/>
</mask>
<path d="M7.26424 7.33334H2.26424V11.3333H7.26424V7.33334ZM2.26424 7.33334C0.975338 7.33334 -0.0690918 8.37777 -0.0690918 9.66668H3.93091C3.93091 10.5869 3.18448 11.3333 2.26424 11.3333V7.33334ZM-0.0690918 9.66668C-0.0690918 10.9556 0.975338 12 2.26424 12V8.00001C3.18448 8.00001 3.93091 8.74644 3.93091 9.66668H-0.0690918ZM2.26424 12H7.26424V8.00001H2.26424V12ZM7.26424 12C8.55314 12 9.59758 10.9556 9.59758 9.66668H5.59758C5.59758 8.74644 6.34401 8.00001 7.26424 8.00001V12ZM9.59758 9.66668C9.59758 8.37777 8.55314 7.33334 7.26424 7.33334V11.3333C6.34401 11.3333 5.59758 10.5869 5.59758 9.66668H9.59758Z" fill="#494848" mask="url(#path-8-inside-4)"/>
<mask id="path-10-inside-5" fill="white">
<path d="M7.26432 11.6667H0.93099C0.746656 11.6667 0.597656 11.8157 0.597656 12C0.597656 12.1843 0.746656 12.3333 0.93099 12.3333H7.26432C7.44866 12.3333 7.59766 12.1843 7.59766 12C7.59766 11.8157 7.44866 11.6667 7.26432 11.6667Z"/>
</mask>
<path d="M7.26432 9.66666H0.93099V13.6667H7.26432V9.66666ZM0.93099 9.66666C-0.357917 9.66666 -1.40234 10.7111 -1.40234 12H2.59766C2.59766 12.9202 1.85123 13.6667 0.93099 13.6667V9.66666ZM-1.40234 12C-1.40234 13.2889 -0.357917 14.3333 0.93099 14.3333V10.3333C1.85123 10.3333 2.59766 11.0798 2.59766 12H-1.40234ZM0.93099 14.3333H7.26432V10.3333H0.93099V14.3333ZM7.26432 14.3333C8.55323 14.3333 9.59766 13.2889 9.59766 12H5.59766C5.59766 11.0798 6.34408 10.3333 7.26432 10.3333V14.3333ZM9.59766 12C9.59766 10.7111 8.55323 9.66666 7.26432 9.66666V13.6667C6.34408 13.6667 5.59766 12.9202 5.59766 12H9.59766Z" fill="#494848" mask="url(#path-10-inside-5)"/>
<mask id="path-12-inside-6" fill="white">
<path d="M7.26432 14H2.93099C2.74666 14 2.59766 14.149 2.59766 14.3333C2.59766 14.5177 2.74666 14.6667 2.93099 14.6667H7.26432C7.44866 14.6667 7.59766 14.5177 7.59766 14.3333C7.59766 14.149 7.44866 14 7.26432 14Z"/>
</mask>
<path d="M7.26432 12H2.93099V16H7.26432V12ZM2.93099 12C1.64209 12 0.597656 13.0444 0.597656 14.3333H4.59766C4.59766 15.2536 3.85122 16 2.93099 16V12ZM0.597656 14.3333C0.597656 15.6222 1.64209 16.6667 2.93099 16.6667V12.6667C3.85122 12.6667 4.59766 13.4131 4.59766 14.3333H0.597656ZM2.93099 16.6667H7.26432V12.6667H2.93099V16.6667ZM7.26432 16.6667C8.55322 16.6667 9.59766 15.6222 9.59766 14.3333H5.59766C5.59766 13.4131 6.34409 12.6667 7.26432 12.6667V16.6667ZM9.59766 14.3333C9.59766 13.0444 8.55322 12 7.26432 12V16C6.34409 16 5.59766 15.2536 5.59766 14.3333H9.59766Z" fill="#494848" mask="url(#path-12-inside-6)"/>
<mask id="path-14-inside-7" fill="white">
<path d="M7.26432 16.3333H4.93099C4.74666 16.3333 4.59766 16.4823 4.59766 16.6667C4.59766 16.851 4.74666 17 4.93099 17H7.26432C7.44866 17 7.59766 16.851 7.59766 16.6667C7.59766 16.4823 7.44866 16.3333 7.26432 16.3333Z"/>
</mask>
<path d="M7.26432 14.3333H4.93099V18.3333H7.26432V14.3333ZM4.93099 14.3333C3.64209 14.3333 2.59766 15.3778 2.59766 16.6667H6.59766C6.59766 17.5869 5.85122 18.3333 4.93099 18.3333V14.3333ZM2.59766 16.6667C2.59766 17.9556 3.64209 19 4.93099 19V15C5.85122 15 6.59766 15.7464 6.59766 16.6667H2.59766ZM4.93099 19H7.26432V15H4.93099V19ZM7.26432 19C8.55322 19 9.59766 17.9556 9.59766 16.6667H5.59766C5.59766 15.7464 6.34409 15 7.26432 15V19ZM9.59766 16.6667C9.59766 15.3778 8.55322 14.3333 7.26432 14.3333V18.3333C6.34409 18.3333 5.59766 17.5869 5.59766 16.6667H9.59766Z" fill="#494848" mask="url(#path-14-inside-7)"/>
</svg>
