<svg width="28" height="28" viewBox="0 0 28 28" fill="none" xmlns="http://www.w3.org/2000/svg">
<g clip-path="url(#clip0)">
<path d="M27.2094 13.2051C25.6402 12.1043 23.4212 11.8734 21.8362 11.8734H21.4888L15.9649 9.29559C15.2769 8.9743 14.5117 8.80469 13.7524 8.80469H8.87627C8.40245 8.80469 7.94145 8.89932 7.50587 9.08582L2.44364 11.2554C2.16571 11.3746 1.87156 11.435 1.56906 11.435H1.23218C0.522737 11.4348 -0.0546875 12.0122 -0.0546875 12.7219V15.5063C-0.0546875 16.1209 0.383241 16.6521 0.986513 16.7694L2.60962 17.0852C2.81022 18.322 3.88517 19.2695 5.17759 19.2695C6.14445 19.2695 6.98912 18.739 7.43773 17.9542H21.3297C21.7783 18.739 22.6229 19.2695 23.5898 19.2695C24.5564 19.2695 25.4013 18.739 25.8499 17.9542H26.6585C27.3679 17.9542 27.9454 17.377 27.9454 16.6673V14.6197C27.9454 14.0573 27.6702 13.5283 27.2094 13.2051ZM15.618 10.039L19.5491 11.8734H13.6956L11.7683 9.625H13.7522C14.3927 9.625 15.0378 9.76813 15.618 10.039ZM10.688 9.625L12.6153 11.8734H11.92C11.6555 11.8734 11.4049 11.7582 11.2327 11.5572L9.57653 9.625H10.688ZM7.73701 17.1339C7.76457 16.9824 7.77974 16.8267 7.77974 16.6673C7.77974 16.4926 7.76222 16.3176 7.72762 16.1474C7.68254 15.9254 7.46614 15.7821 7.24419 15.8269C7.02202 15.872 6.87868 16.0886 6.92375 16.3106C6.94746 16.427 6.95943 16.547 6.95943 16.6673C6.95943 17.6498 6.16005 18.4489 5.17759 18.4489C4.19514 18.4489 3.39597 17.6498 3.39597 16.6673C3.39597 15.6849 4.19514 14.8855 5.17759 14.8855C5.42646 14.8855 5.66679 14.9357 5.89238 15.0346C6.09959 15.1254 6.34163 15.031 6.43263 14.8235C6.52363 14.6161 6.42921 14.3743 6.22178 14.2833C5.89174 14.1387 5.54032 14.0652 5.17759 14.0652C3.88517 14.0652 2.81022 15.0126 2.60962 16.2495L1.1431 15.9643C0.924349 15.9218 0.765413 15.7291 0.765413 15.5063V14.0088H1.23218C1.45862 14.0088 1.64234 13.8251 1.64234 13.5986C1.64234 13.3722 1.45862 13.1885 1.23218 13.1885H0.765627V12.7219C0.765627 12.4645 0.974978 12.2553 1.23218 12.2553H1.56906C1.98328 12.2553 2.38617 12.1725 2.76685 12.0095L7.82887 9.83991C8.05083 9.74484 8.28133 9.68183 8.51738 9.64978L10.61 12.0911C10.9382 12.4741 11.4156 12.6937 11.92 12.6937H21.8362C22.9323 12.6937 24.888 12.8221 26.337 13.6268H26.2201C25.9935 13.6268 25.81 13.8105 25.81 14.037C25.81 14.2636 25.9935 14.4471 26.2201 14.4471H27.1082C27.1191 14.5035 27.1251 14.5612 27.1251 14.6197V15.3804H25.8499C25.4013 14.5956 24.5567 14.0654 23.5898 14.0654C22.6229 14.0654 21.7783 14.5956 21.3297 15.3804H20.5213C20.2947 15.3804 20.1112 15.5639 20.1112 15.7906C20.1112 16.017 20.2947 16.2008 20.5213 16.2008H21.0304C21.0028 16.3522 20.9877 16.5079 20.9877 16.6673C20.9877 16.8267 21.0028 16.9824 21.0304 17.1339H7.73701ZM23.5898 18.4489C22.6073 18.4489 21.808 17.6498 21.808 16.6673C21.808 15.6849 22.6073 14.8855 23.5898 14.8855C24.5723 14.8855 25.3716 15.6849 25.3716 16.6673C25.3716 17.6498 24.5723 18.4489 23.5898 18.4489ZM26.6585 17.1339H26.1492C26.1768 16.9824 26.1919 16.8267 26.1919 16.6673C26.1919 16.5079 26.1768 16.3522 26.1492 16.2008H27.1251V16.6673C27.1251 16.9245 26.9157 17.1339 26.6585 17.1339Z" fill="#56CCF2"/>
<path d="M18.7677 15.3805H13.2737L12.3447 14.1417C12.1029 13.8193 11.7179 13.6268 11.315 13.6268H9.5616C9.40608 13.6268 9.26424 13.7146 9.19481 13.8537C9.12517 13.9926 9.14012 14.159 9.23347 14.2831L10.2856 15.686C10.5272 16.0083 10.9121 16.2008 11.315 16.2008H18.7677C18.9941 16.2008 19.1779 16.0171 19.1779 15.7906C19.1779 15.564 18.9941 15.3805 18.7677 15.3805ZM11.315 15.3805C11.1689 15.3805 11.0294 15.3106 10.9418 15.1938L10.3819 14.4472H11.315C11.4611 14.4472 11.6006 14.517 11.6884 14.6339L12.2483 15.3805H11.315Z" fill="#56CCF2"/>
<path d="M5.17761 15.8188C4.70978 15.8188 4.3291 16.1995 4.3291 16.6673C4.3291 17.1351 4.70978 17.5158 5.17761 17.5158C5.64566 17.5158 6.02613 17.1351 6.02613 16.6673C6.02613 16.1995 5.64566 15.8188 5.17761 15.8188Z" fill="#56CCF2"/>
<path d="M23.5897 15.8188C23.1219 15.8188 22.7412 16.1995 22.7412 16.6673C22.7412 17.1351 23.1219 17.5158 23.5897 17.5158C24.0576 17.5158 24.4382 17.1351 24.4382 16.6673C24.4382 16.1995 24.0576 15.8188 23.5897 15.8188Z" fill="#56CCF2"/>
</g>
<defs>
<clipPath id="clip0">
<rect width="28" height="28" fill="white"/>
</clipPath>
</defs>
</svg>
