<svg width="24" height="24" viewBox="0 0 24 24" fill="none" xmlns="http://www.w3.org/2000/svg">
<g clip-path="url(#clip0)">
<path d="M20 0C17.7944 0 16 1.79442 16 3.99998C16 5.91314 18.8345 9.78525 19.4986 10.6665C19.4984 10.9512 19.4986 11.2307 19.4917 11.4873C19.4844 11.7631 19.7022 11.9932 19.9785 12.0005C19.9829 12.0005 19.9873 12.0005 19.9922 12.0005C20.2617 12.0005 20.4844 11.7851 20.4917 11.5137C20.4986 11.2504 20.4984 10.9631 20.4986 10.6703C21.1583 9.79505 24 5.91539 24 3.99998C24 1.79442 22.2055 0 20 0ZM20 9.66309C18.9009 8.15091 17 5.27297 17 3.99998C17 2.34567 18.3457 0.999984 20 0.999984C21.6543 0.999984 23 2.34567 23 3.99998C23 5.27297 21.0991 8.15086 20 9.66309Z" fill="#BDBDBD"/>
<path d="M20 3C19.4487 3 19 3.44873 19 3.99998C19 4.55123 19.4487 4.99997 20 4.99997C20.5512 4.99997 21 4.55128 21 3.99998C21 3.44873 20.5512 3 20 3Z" fill="#BDBDBD"/>
<path d="M6 11.0001C4.34569 11.0001 3 12.3457 3 14.0001C3 15.6544 4.34569 17 6 17C7.65431 17 9 15.6544 9 14.0001C9 12.3457 7.65431 11.0001 6 11.0001ZM6 16C4.89698 16 3.99998 15.1031 3.99998 14C3.99998 12.8969 4.89698 12 6 12C7.10302 12 8.00002 12.897 8.00002 14.0001C8.00002 15.1031 7.10302 16 6 16Z" fill="#BDBDBD"/>
<path d="M13.5736 18.0205C13.3148 17.9199 13.0267 18.0484 12.9266 18.3062C12.7025 18.8853 12.4223 19.5606 12.0443 20.1792C11.9003 20.4151 11.975 20.7227 12.2103 20.8667C12.2919 20.9166 12.3817 20.94 12.4706 20.94C12.6391 20.94 12.8036 20.855 12.8978 20.7008C13.3168 20.0142 13.619 19.2877 13.8592 18.6676C13.9589 18.4102 13.8309 18.1206 13.5736 18.0205Z" fill="#BDBDBD"/>
<path d="M10.7542 21.6694C10.2532 22.0664 9.68389 22.3652 9.01297 22.5835C8.75028 22.6689 8.60671 22.9512 8.69216 23.2138C8.76102 23.4248 8.95681 23.5591 9.16775 23.5591C9.21903 23.5591 9.27125 23.5512 9.32253 23.5347C10.0974 23.2827 10.7878 22.919 11.3753 22.4536C11.5916 22.2817 11.6282 21.9672 11.4568 21.7509C11.284 21.5352 10.97 21.4966 10.7542 21.6694Z" fill="#BDBDBD"/>
<path d="M15.3046 14.4106C14.4794 14.8789 14.0209 15.6919 13.7474 16.2622C13.6278 16.5113 13.7328 16.8101 13.9818 16.9292C14.0516 16.9629 14.1254 16.9785 14.1976 16.9785C14.3841 16.9785 14.5629 16.874 14.6488 16.6948C14.9959 15.9707 15.3505 15.5347 15.7987 15.2798C16.0384 15.1435 16.1229 14.8383 15.9862 14.5981C15.8505 14.3579 15.5463 14.2734 15.3046 14.4106Z" fill="#BDBDBD"/>
<path d="M19.8144 13.1729C19.5873 13.0191 19.2753 13.0781 19.12 13.3066C18.9555 13.5498 18.6186 13.8843 17.5995 13.9756C17.3246 14.0005 17.1215 14.2431 17.1464 14.5185C17.1698 14.7783 17.388 14.9736 17.6439 14.9736C17.6591 14.9736 17.6742 14.9731 17.6894 14.9716C18.7719 14.8745 19.5106 14.5131 19.9482 13.8671C20.103 13.6386 20.0429 13.3276 19.8144 13.1729Z" fill="#BDBDBD"/>
<path d="M7.18477 23.0065C8.76244 21.3241 12 17.4535 12 14.0001C12 10.6358 9.36427 8.00006 6 8.00006C2.63573 8.00006 0 10.6358 0 14.0001C0 18.4654 5.42578 23.6451 5.65673 23.8634C5.75292 23.9547 5.87648 24.0001 6 24.0001C6.36427 24.0001 6.71044 23.9874 7.03856 23.9625C7.31395 23.9415 7.52048 23.7017 7.49948 23.4263C7.48448 23.2292 7.35694 23.0755 7.18477 23.0065ZM6 22.795C4.81884 21.5899 0.999984 17.4278 0.999984 14.0001C0.999984 11.1963 3.19631 9.00005 6 9.00005C8.80369 9.00005 11 11.1963 11 14.0001C11 17.4278 7.18116 21.5899 6 22.795Z" fill="#BDBDBD"/>
</g>
<defs>
<clipPath id="clip0">
<rect width="24" height="24" fill="white"/>
</clipPath>
</defs>
</svg>
