<svg width="35" height="35" viewBox="0 0 35 35" fill="none" xmlns="http://www.w3.org/2000/svg">
<path d="M20.1379 17.5031L2.56175 34.4277C1.73869 33.8652 1.25002 32.9296 1.25866 31.9328V3.07341C1.25002 2.07655 1.73869 1.14093 2.56175 0.578438L20.1379 17.5031Z" fill="#2196F3"/>
<path d="M26.288 11.5914L20.1379 17.5031L2.56177 0.578454C2.62799 0.527129 2.69697 0.479379 2.76833 0.435429C3.69725 -0.127584 4.85755 -0.14576 5.80367 0.387754L26.288 11.5914Z" fill="#4CAF50"/>
<path d="M33.7412 17.5031C33.7527 18.6285 33.1412 19.6679 32.1521 20.2047L26.288 23.4148L20.1379 17.5031L26.288 11.5914L32.1521 14.8015C33.1412 15.3383 33.7527 16.3777 33.7412 17.5031Z" fill="#FFC107"/>
<path d="M26.288 23.4148L5.80367 34.6184C4.85546 35.1437 3.69956 35.1255 2.76833 34.5708C2.69697 34.5268 2.62799 34.4791 2.56177 34.4277L20.138 17.5031L26.288 23.4148Z" fill="#F44336"/>
</svg>
