<svg width="20" height="20" viewBox="0 0 20 20" fill="none" xmlns="http://www.w3.org/2000/svg">
<path d="M19.2857 2.32737C19.2857 3.31103 16.4528 4.09796 12.951 4.09796C9.44914 4.09796 6.61621 3.31103 6.61621 2.32737C6.61621 1.34372 9.44914 0.556793 12.951 0.556793C16.4528 0.556793 19.2857 1.34372 19.2857 2.32737Z" stroke="#494848" stroke-width="0.8" stroke-miterlimit="10" stroke-linecap="round"/>
<path d="M19.2859 5.47507C19.2859 6.45872 16.453 7.24565 12.9512 7.24565C12.2823 7.24565 11.6527 7.2063 11.0232 7.16695C10.9445 7.16695 7.16728 6.6948 7.12793 6.65545" stroke="#494848" stroke-width="0.8" stroke-miterlimit="10" stroke-linecap="round"/>
<path d="M19.2858 8.89841C19.2858 9.84272 16.6103 10.6296 13.2659 10.669" stroke="#494848" stroke-width="0.8" stroke-miterlimit="10" stroke-linecap="round"/>
<path d="M19.2858 12.3212C19.2858 13.2655 16.6496 14.0131 13.3445 14.0918" stroke="#494848" stroke-width="0.8" stroke-miterlimit="10" stroke-linecap="round"/>
<path d="M6.61621 2.87811V6.89143" stroke="#494848" stroke-width="0.8" stroke-miterlimit="10" stroke-linecap="round"/>
<path d="M19.2856 2.87811V12.2819" stroke="#494848" stroke-width="0.8" stroke-miterlimit="10" stroke-linecap="round"/>
<path d="M13.1871 13.1871C13.1871 16.6496 10.3935 19.4432 6.93106 19.4432C3.50794 19.4432 0.714355 16.6496 0.714355 13.1871C0.714355 9.72467 3.50794 6.93109 6.97041 6.93109C10.3935 6.97044 13.1871 9.76402 13.1871 13.1871Z" stroke="#494848" stroke-width="0.8" stroke-miterlimit="10" stroke-linecap="round"/>
<mask id="path-8-inside-1" fill="white">
<path d="M6.61625 17.2396V16.256C6.0654 16.256 5.47521 16.0592 5.12109 15.8232L5.35717 15.1543C5.71129 15.3903 6.22279 15.5871 6.77364 15.5871C7.48187 15.5871 7.95402 15.1936 7.95402 14.6428C7.95402 14.0919 7.56056 13.7771 6.85233 13.4624C5.82933 13.0689 5.23913 12.6361 5.23913 11.7705C5.23913 10.9442 5.82933 10.354 6.73429 10.1966V9.21298H7.32448V10.1573C7.91468 10.1573 8.30814 10.3147 8.58356 10.5114L8.34749 11.1409C8.15075 11.0229 7.75729 10.8262 7.12775 10.8262C6.38017 10.8262 6.10475 11.259 6.10475 11.6524C6.10475 12.164 6.45887 12.4 7.32448 12.7541C8.34749 13.187 8.85899 13.6591 8.85899 14.5641C8.85899 15.351 8.30814 16.0592 7.32448 16.2166V17.2396H6.61625Z"/>
</mask>
<path d="M6.61625 17.2396H5.61625V18.2396H6.61625V17.2396ZM6.61625 16.256H7.61625V15.256H6.61625V16.256ZM5.12109 15.8232L4.1781 15.4903L3.91924 16.2238L4.56639 16.6552L5.12109 15.8232ZM5.35717 15.1543L5.91187 14.3222L4.84209 13.609L4.41418 14.8214L5.35717 15.1543ZM6.85233 13.4624L7.25847 12.5486L7.23514 12.5382L7.21131 12.529L6.85233 13.4624ZM6.73429 10.1966L6.90563 11.1818L7.73429 11.0377V10.1966H6.73429ZM6.73429 9.21298V8.21298H5.73429V9.21298H6.73429ZM7.32448 9.21298H8.32448V8.21298H7.32448V9.21298ZM7.32448 10.1573H6.32448V11.1573H7.32448V10.1573ZM8.58356 10.5114L9.51989 10.8625L9.78941 10.1438L9.1648 9.69767L8.58356 10.5114ZM8.34749 11.1409L7.83299 11.9984L8.86233 12.616L9.28382 11.4921L8.34749 11.1409ZM7.32448 12.7541L7.71415 11.8331L7.70312 11.8286L7.32448 12.7541ZM7.32448 16.2166L7.16649 15.2292L6.32448 15.3639V16.2166H7.32448ZM7.32448 17.2396V18.2396H8.32448V17.2396H7.32448ZM7.61625 17.2396V16.256H5.61625V17.2396H7.61625ZM6.61625 15.256C6.26169 15.256 5.8647 15.117 5.67579 14.9911L4.56639 16.6552C5.08572 17.0014 5.86911 17.256 6.61625 17.256V15.256ZM6.06408 16.156L6.30016 15.4871L4.41418 14.8214L4.1781 15.4903L6.06408 16.156ZM4.80247 15.9863C5.29491 16.3146 5.99633 16.5871 6.77364 16.5871V14.5871C6.44925 14.5871 6.12767 14.4661 5.91187 14.3222L4.80247 15.9863ZM6.77364 16.5871C7.30646 16.5871 7.83847 16.4389 8.25862 16.0987C8.69334 15.7468 8.95402 15.2281 8.95402 14.6428H6.95402C6.95402 14.6349 6.95638 14.6133 6.96902 14.5871C6.98138 14.5616 6.99576 14.5478 7.00022 14.5442C7.00723 14.5386 6.94905 14.5871 6.77364 14.5871V16.5871ZM8.95402 14.6428C8.95402 14.0848 8.73768 13.6187 8.37587 13.2569C8.0548 12.9359 7.64047 12.7183 7.25847 12.5486L6.44619 14.3762C6.60059 14.4448 6.71762 14.5046 6.80649 14.5583C6.89563 14.6121 6.94103 14.6505 6.96166 14.6711C6.97924 14.6887 6.97179 14.6862 6.96233 14.6641C6.95229 14.6407 6.95402 14.6281 6.95402 14.6428H8.95402ZM7.21131 12.529C6.72927 12.3436 6.48206 12.195 6.35624 12.0736C6.27763 11.9978 6.23913 11.9337 6.23913 11.7705H4.23913C4.23913 12.4729 4.49573 13.058 4.96797 13.5133C5.393 13.9232 5.95239 14.1877 6.49335 14.3957L7.21131 12.529ZM6.23913 11.7705C6.23913 11.5433 6.35909 11.2769 6.90563 11.1818L6.56295 9.21143C5.29957 9.43115 4.23913 10.3451 4.23913 11.7705H6.23913ZM7.73429 10.1966V9.21298H5.73429V10.1966H7.73429ZM6.73429 10.213H7.32448V8.21298H6.73429V10.213ZM6.32448 9.21298V10.1573H8.32448V9.21298H6.32448ZM7.32448 11.1573C7.72041 11.1573 7.90767 11.2575 8.00233 11.3251L9.1648 9.69767C8.70861 9.37183 8.10895 9.15729 7.32448 9.15729V11.1573ZM7.64723 10.1603L7.41116 10.7898L9.28382 11.4921L9.51989 10.8625L7.64723 10.1603ZM8.86198 10.2835C8.55643 10.1001 7.9861 9.82618 7.12775 9.82618V11.8262C7.52848 11.8262 7.74508 11.9457 7.83299 11.9984L8.86198 10.2835ZM7.12775 9.82618C6.55805 9.82618 6.03002 9.99544 5.63976 10.3739C5.25544 10.7465 5.10475 11.2265 5.10475 11.6524H7.10475C7.10475 11.6849 7.09177 11.7518 7.03206 11.8097C7.00444 11.8364 6.98401 11.8434 6.98858 11.8418C6.99535 11.8394 7.03667 11.8262 7.12775 11.8262V9.82618ZM5.10475 11.6524C5.10475 12.2096 5.3283 12.6723 5.74236 13.0243C6.07579 13.3077 6.52215 13.5064 6.94585 13.6797L7.70312 11.8286C7.4969 11.7442 7.3437 11.6759 7.22718 11.6158C7.10905 11.5549 7.05644 11.5163 7.03766 11.5004C7.02495 11.4896 7.05307 11.5107 7.07893 11.5659C7.10527 11.622 7.10475 11.661 7.10475 11.6524H5.10475ZM6.93484 13.6751C7.40247 13.873 7.62309 14.0295 7.73079 14.1496C7.8025 14.2296 7.85899 14.327 7.85899 14.5641H9.85899C9.85899 13.8962 9.65972 13.305 9.21993 12.8145C8.81613 12.3641 8.2695 12.0681 7.71412 11.8332L6.93484 13.6751ZM7.85899 14.5641C7.85899 14.8294 7.69554 15.1445 7.16649 15.2292L7.48247 17.2041C8.92074 16.9739 9.85899 15.8726 9.85899 14.5641H7.85899ZM6.32448 16.2166V17.2396H8.32448V16.2166H6.32448ZM7.32448 16.2396H6.61625V18.2396H7.32448V16.2396Z" fill="#494848" mask="url(#path-8-inside-1)"/>
</svg>
