<svg width="72" height="73" viewBox="0 0 72 73" fill="none" xmlns="http://www.w3.org/2000/svg">
<path fill-rule="evenodd" clip-rule="evenodd" d="M21.1199 45.9598V20.3999H24.1199V45.9598H47.3998V20.3999H50.3998V45.9598V46.0798H68.9997H71.9997V49.0798V55.5598V58.5598H68.9997H3H0V55.5598V49.0798V46.0798H3H21.1199V45.9598ZM50.3998 20.3999C50.3998 20.3999 50.3998 17.3399 52.7998 15.2999C55.1998 13.26 59.5198 13.26 59.5198 13.26V3V0H56.5198H15.4799H12.4799V3V13.26C12.4799 13.26 16.3199 13.26 18.7199 15.2999C21.1199 17.3399 21.1199 20.3999 21.1199 20.3999C24.1199 20.3999 24.1199 20.3988 24.1199 20.3976L24.1199 20.3952L24.1199 20.3901L24.1198 20.3791L24.1196 20.3535C24.1194 20.3349 24.119 20.3131 24.1183 20.2884C24.1171 20.2388 24.1148 20.1771 24.1109 20.1043C24.1032 19.9589 24.0887 19.7676 24.0619 19.5394C24.0085 19.086 23.9043 18.4698 23.698 17.7684C23.2894 16.379 22.4389 14.5238 20.6629 13.0141C18.977 11.5811 16.9463 10.9279 15.4799 10.6131V3H56.5198V10.564L56.5147 10.5649C54.9661 10.851 52.6596 11.4818 50.8569 13.0141C49.0808 14.5238 48.2304 16.379 47.8217 17.7684C47.6154 18.4698 47.5112 19.086 47.4579 19.5394C47.431 19.7676 47.4165 19.9589 47.4088 20.1043C47.4049 20.1771 47.4026 20.2388 47.4014 20.2884C47.4007 20.3131 47.4003 20.3349 47.4001 20.3535L47.3999 20.3791L47.3998 20.3901L47.3998 20.3952L47.3998 20.3976C47.3998 20.3988 47.3998 20.3999 50.3998 20.3999ZM3 49.0798H68.9997V55.5598H3V49.0798Z" fill="black"/>
<path d="M2.21868 72.8162C4.67741 72.8162 7.00815 71.7292 8.32926 69.9555C8.88791 69.2053 9.78549 68.7756 10.7929 68.7756C11.7998 68.7756 12.698 69.2053 13.2566 69.9555C14.5909 71.7469 16.8244 72.8167 19.2304 72.8167C21.6364 72.8167 23.8694 71.7469 25.2042 69.9555C25.7629 69.2053 26.6604 68.7756 27.6679 68.7756C28.6748 68.7756 29.5729 69.2053 30.1316 69.9555C31.4658 71.7469 33.6993 72.8167 36.1053 72.8167C38.5113 72.8167 40.7443 71.7469 42.0791 69.9555C42.6378 69.2053 43.5354 68.7756 44.5428 68.7756C45.5497 68.7756 46.4478 69.2053 47.0065 69.9555C48.3408 71.7469 50.5743 72.8167 52.9803 72.8167C55.3863 72.8167 57.6193 71.7469 58.9541 69.9555C59.5127 69.2053 60.4361 68.7756 61.4881 68.7756C62.54 68.7756 63.4634 69.2053 64.0221 69.9555C65.3245 71.7036 67.502 72.7734 69.8475 72.8162L71.9998 72.8167V69.0411H69.9151C68.9417 69.018 68.0744 68.5888 67.5322 67.8612C66.1973 66.0693 63.938 65 61.4881 65C59.0381 65 56.7788 66.0693 55.444 67.8612C54.8853 68.6109 53.9872 69.0411 52.9803 69.0411C51.9734 69.0411 51.0753 68.6109 50.5166 67.8612C49.1818 66.0693 46.9488 65 44.5428 65C42.1368 65 39.9039 66.0693 38.569 67.8612C38.0104 68.6109 37.1122 69.0411 36.1053 69.0411C35.0985 69.0411 34.2003 68.6109 33.6417 67.8612C32.3068 66.0693 30.0739 65 27.6679 65C25.2619 65 23.0289 66.0693 21.6941 67.8612C21.1354 68.6109 20.2373 69.0411 19.2304 69.0411C18.2235 69.0411 17.3254 68.6109 16.7667 67.8612C15.4319 66.0693 13.1989 65 10.7929 65C8.38693 65 6.15397 66.0693 4.81914 67.8612C4.15227 68.7559 2.97234 69.0558 2.15276 69.0416L0 69.0411V72.8152C0 72.8152 2.17583 72.8162 2.21868 72.8162Z" fill="black"/>
<rect x="19.5" y="21.5" width="32.5199" height="3.87317" rx="1.93658" fill="white" stroke="#56CCF2" stroke-width="3"/>
<path d="M19.5 29.4366C19.5 28.367 20.367 27.5 21.4366 27.5H70.2598V31.3732H21.4366C20.367 31.3732 19.5 30.5061 19.5 29.4366Z" fill="white" stroke="#56CCF2" stroke-width="3"/>
</svg>
