<svg width="89" height="89" viewBox="0 0 89 89" fill="none" xmlns="http://www.w3.org/2000/svg">
<path d="M87.6082 79.2656H1.39502C0.626004 79.2656 0.00439453 78.644 0.00439453 77.875C0.00439453 77.106 0.626004 76.4844 1.39502 76.4844H87.6082C88.3772 76.4844 88.9988 77.106 88.9988 77.875C88.9988 78.644 88.3772 79.2656 87.6082 79.2656Z" fill="#333333"/>
<path d="M87.6079 79.2657C86.8389 79.2657 86.2173 78.6441 86.2173 77.875V34.749C86.2173 33.9799 86.8389 33.3583 87.6079 33.3583C88.3769 33.3583 88.9985 33.9799 88.9985 34.749V77.875C88.9985 78.6441 88.3769 79.2657 87.6079 79.2657Z" fill="#333333"/>
<path d="M59.7954 79.2657C59.0264 79.2657 58.4048 78.6441 58.4048 77.875V34.749C58.4048 33.9799 59.0264 33.3583 59.7954 33.3583C60.5644 33.3583 61.186 33.9799 61.186 34.749V77.875C61.186 78.6441 60.5644 79.2657 59.7954 79.2657Z" fill="#333333"/>
<path d="M29.2046 79.2657C28.4356 79.2657 27.814 78.6441 27.814 77.875V34.749C27.814 33.9799 28.4356 33.3583 29.2046 33.3583C29.9736 33.3583 30.5952 33.9799 30.5952 34.749V77.875C30.5952 78.6441 29.9736 79.2657 29.2046 79.2657Z" fill="#333333"/>
<path d="M1.39209 79.2657C0.623074 79.2657 0.00146484 78.6441 0.00146484 77.875V34.749C0.00146484 33.9799 0.623074 33.3583 1.39209 33.3583C2.1611 33.3583 2.78271 33.9799 2.78271 34.749V77.875C2.78271 78.6441 2.1611 79.2657 1.39209 79.2657Z" fill="#333333"/>
<path d="M87.608 36.1396H84.8281C84.0591 36.1396 83.4375 35.518 83.4375 34.749C83.4375 33.9799 84.0591 33.3583 84.8281 33.3583H87.608C88.377 33.3583 88.9986 33.9799 88.9986 34.749C88.9986 35.518 88.377 36.1396 87.608 36.1396Z" fill="#333333"/>
<path d="M4.17341 36.1396H1.39356C0.624539 36.1396 0.00292969 35.518 0.00292969 34.749C0.00292969 33.9799 0.624539 33.3583 1.39356 33.3583H4.17341C4.94243 33.3583 5.56404 33.9799 5.56404 34.749C5.56404 35.518 4.94243 36.1396 4.17341 36.1396Z" fill="#333333"/>
<path d="M62.5781 36.1396H57.0142C56.2451 36.1396 55.6235 35.518 55.6235 34.749C55.6235 33.9799 56.2451 33.3583 57.0142 33.3583H62.5781C63.3471 33.3583 63.9687 33.9799 63.9687 34.749C63.9687 35.518 63.3471 36.1396 62.5781 36.1396Z" fill="#333333"/>
<path d="M31.9887 36.1396H26.4248C25.6558 36.1396 25.0342 35.518 25.0342 34.749C25.0342 33.9799 25.6558 33.3583 26.4248 33.3583H31.9887C32.7577 33.3583 33.3793 33.9799 33.3793 34.749C33.3793 35.518 32.7577 36.1396 31.9887 36.1396Z" fill="#333333"/>
<path d="M65.3623 68.1323C64.5933 68.1323 63.9717 67.5107 63.9717 66.7417V43.1233C63.9717 42.3543 64.5933 41.7327 65.3623 41.7327C66.1313 41.7327 66.7529 42.3543 66.7529 43.1233V66.7417C66.7529 67.5107 66.1313 68.1323 65.3623 68.1323Z" fill="#333333"/>
<path d="M65.3608 44.5139C64.5918 44.5139 63.9702 43.8923 63.9702 43.1233C63.9702 40.8232 65.8434 38.9514 68.1435 38.9514C68.9125 38.9514 69.5341 39.573 69.5341 40.342C69.5341 41.1111 68.9125 41.7327 68.1435 41.7327C67.3759 41.7327 66.7515 42.3557 66.7515 43.1233C66.7515 43.8923 66.1299 44.5139 65.3608 44.5139Z" fill="#333333"/>
<path d="M70.9248 73.6948C69.0669 73.6948 67.3203 72.9716 66.0076 71.6603C64.6948 70.3475 63.9703 68.6009 63.9717 66.7416C63.9717 65.9726 64.5947 65.351 65.3623 65.351C66.1313 65.351 66.7529 65.974 66.7529 66.7416C66.7529 67.8583 67.1868 68.9068 67.9739 69.6925C68.761 70.4796 69.8081 70.9135 70.9248 70.9135C71.6938 70.9135 72.3154 71.5351 72.3154 72.3041C72.3154 73.0732 71.6938 73.6948 70.9248 73.6948Z" fill="#333333"/>
<path d="M82.0469 68.1323C81.2779 68.1323 80.6562 67.5107 80.6562 66.7417V43.1233C80.6562 42.3543 81.2779 41.7327 82.0469 41.7327C82.8159 41.7327 83.4375 42.3543 83.4375 43.1233V66.7417C83.4375 67.5107 82.8159 68.1323 82.0469 68.1323Z" fill="#333333"/>
<path d="M82.0469 44.5139C81.2779 44.5139 80.6562 43.8923 80.6562 43.1233C80.6562 42.3557 80.0333 41.7327 79.2656 41.7327C78.4966 41.7327 77.875 41.1111 77.875 40.342C77.875 39.573 78.4966 38.9514 79.2656 38.9514C81.5657 38.9514 83.4375 40.8232 83.4375 43.1233C83.4375 43.8923 82.8159 44.5139 82.0469 44.5139Z" fill="#333333"/>
<path d="M76.4829 73.6948C75.7139 73.6948 75.0923 73.0732 75.0923 72.3041C75.0923 71.5351 75.7139 70.9135 76.4829 70.9135C78.783 70.9135 80.6562 69.0417 80.6562 66.7416C80.6562 65.9726 81.2778 65.351 82.0468 65.351C82.8158 65.351 83.4374 65.9726 83.4374 66.7416C83.4374 70.5756 80.3182 73.6948 76.4829 73.6948Z" fill="#333333"/>
<path d="M79.2658 41.7327H68.1436C67.3745 41.7327 66.7529 41.1111 66.7529 40.342C66.7529 39.573 67.3745 38.9514 68.1436 38.9514H79.2658C80.0348 38.9514 80.6564 39.573 80.6564 40.342C80.6564 41.1111 80.0348 41.7327 79.2658 41.7327Z" fill="#333333"/>
<path d="M77.9029 59.7941C77.8959 59.7955 77.8848 59.7941 77.8751 59.7941H69.5327C69.1628 59.7941 68.8096 59.6481 68.5495 59.3866C68.2895 59.1252 68.1421 58.772 68.1421 58.4035L68.1435 45.9017C68.1435 45.1327 68.7665 44.5111 69.5341 44.5111H77.8737C78.6413 44.5111 79.2643 45.1327 79.2643 45.9017L79.2657 58.1253C79.2838 58.2143 79.2935 58.3089 79.2935 58.4035C79.2935 59.1725 78.6705 59.7941 77.9029 59.7941ZM70.9233 57.0128H76.4844L76.4831 47.2924H70.9247L70.9233 57.0128Z" fill="#333333"/>
<path d="M79.2658 63.966C78.6831 63.966 78.1408 63.5975 77.9475 63.0148L76.5569 58.8429C76.3135 58.1142 76.7071 57.3257 77.4357 57.0838C78.1686 56.839 78.9529 57.234 79.1949 57.9626L80.5855 62.1345C80.8289 62.8632 80.4353 63.6517 79.7066 63.8937C79.5592 63.9423 79.4104 63.966 79.2658 63.966Z" fill="#333333"/>
<path d="M68.1421 63.966C67.9975 63.966 67.8487 63.9423 67.7027 63.8936C66.9754 63.6517 66.5805 62.8646 66.8238 62.1345L68.2144 57.9626C68.4578 57.2353 69.2366 56.839 69.9736 57.0838C70.7009 57.3257 71.0958 58.1128 70.8525 58.8429L69.4618 63.0148C69.2672 63.5974 68.7248 63.966 68.1421 63.966Z" fill="#333333"/>
<path d="M73.7031 65.3566C70.3198 65.3552 68.2978 64.8922 67.3355 63.8993C66.7876 63.3333 66.7445 62.7548 66.7528 62.5323C66.7764 61.7799 67.3939 61.1848 68.1406 61.1848C68.1559 61.1848 68.1699 61.1848 68.1852 61.1861C68.7358 61.2028 69.2017 61.538 69.4131 62.0094C69.6968 62.161 70.7425 62.574 73.7031 62.5754C76.6652 62.5754 77.7109 62.1624 77.9946 62.0108C78.2046 61.538 78.6705 61.2028 79.2225 61.1861C79.2378 61.1848 79.2517 61.1848 79.267 61.1848C80.0138 61.1848 80.6312 61.7799 80.6549 62.5323C80.6632 62.7548 80.6201 63.3347 80.0708 63.9006C79.1085 64.8936 77.0851 65.3566 73.7031 65.3566Z" fill="#333333"/>
<path d="M76.4831 73.6948H70.9248C70.1558 73.6948 69.5342 73.0732 69.5342 72.3041C69.5342 71.5351 70.1558 70.9135 70.9248 70.9135H76.4831C77.2522 70.9135 77.8738 71.5351 77.8738 72.3041C77.8738 73.0732 77.2522 73.6948 76.4831 73.6948Z" fill="#333333"/>
<path d="M83.4375 59.7941H82.0469C81.2779 59.7941 80.6562 59.1725 80.6562 58.4035C80.6562 57.6345 81.2779 57.0129 82.0469 57.0129H83.4375C84.2065 57.0129 84.8281 57.6345 84.8281 58.4035C84.8281 59.1725 84.2065 59.7941 83.4375 59.7941Z" fill="#333333"/>
<path d="M65.3608 59.7941H63.9702C63.2012 59.7941 62.5796 59.1725 62.5796 58.4035C62.5796 57.6345 63.2012 57.0129 63.9702 57.0129H65.3608C66.1299 57.0129 66.7515 57.6345 66.7515 58.4035C66.7515 59.1725 66.1299 59.7941 65.3608 59.7941Z" fill="#333333"/>
<path d="M69.5353 47.2924C69.0862 47.2924 68.6439 47.0754 68.3769 46.6735L65.1827 41.8856C64.7557 41.2473 64.9282 40.3838 65.5679 39.9568C66.2034 39.5313 67.0697 39.7023 67.4967 40.342L70.6909 45.13C71.1179 45.7682 70.9454 46.6318 70.3057 47.0588C70.0693 47.2159 69.7995 47.2924 69.5353 47.2924Z" fill="#333333"/>
<path d="M77.8739 47.2896C77.6097 47.2896 77.3399 47.2131 77.1035 47.056C76.4638 46.629 76.2914 45.7655 76.7183 45.1272L79.9126 40.342C80.3395 39.7023 81.2031 39.5313 81.8414 39.9568C82.4811 40.3838 82.6535 41.2473 82.2266 41.8856L79.0323 46.6708C78.7639 47.0727 78.3231 47.2896 77.8739 47.2896Z" fill="#333333"/>
<path d="M36.1577 38.9152C35.3887 38.9152 34.7671 38.2936 34.7671 37.5246V13.9062C34.7671 13.1372 35.3887 12.5156 36.1577 12.5156C36.9267 12.5156 37.5483 13.1372 37.5483 13.9062V37.5246C37.5483 38.2936 36.9267 38.9152 36.1577 38.9152Z" fill="#56CCF2"/>
<path d="M36.1562 15.2941C35.3872 15.2941 34.7656 14.6725 34.7656 13.9035C34.7656 11.6048 36.6388 9.73438 38.9389 9.73438C39.7079 9.73438 40.3295 10.356 40.3295 11.125C40.3295 11.894 39.7079 12.5156 38.9389 12.5156C38.1713 12.5156 37.5469 13.1372 37.5469 13.9035C37.5469 14.6725 36.9253 15.2941 36.1562 15.2941Z" fill="#56CCF2"/>
<path d="M41.7202 44.4777C39.8623 44.4777 38.1157 43.7546 36.803 42.4418C35.4902 41.1291 34.7657 39.3825 34.7671 37.5246C34.7671 36.7556 35.3901 36.134 36.1577 36.134C36.9267 36.134 37.5483 36.757 37.5483 37.5246C37.5483 38.6399 37.9822 39.6884 38.7693 40.4755C39.5564 41.2626 40.6049 41.6965 41.7202 41.6965C42.4892 41.6965 43.1108 42.3181 43.1108 43.0871C43.1108 43.8561 42.4892 44.4777 41.7202 44.4777Z" fill="#56CCF2"/>
<path d="M52.8423 38.9152C52.0733 38.9152 51.4517 38.2936 51.4517 37.5246V13.9034C51.4517 13.1344 52.0733 12.5128 52.8423 12.5128C53.6113 12.5128 54.2329 13.1344 54.2329 13.9034V37.5246C54.2329 38.2936 53.6113 38.9152 52.8423 38.9152Z" fill="#56CCF2"/>
<path d="M52.8423 15.2941C52.0733 15.2941 51.4517 14.6725 51.4517 13.9035C51.4517 13.1372 50.8287 12.5156 50.061 12.5156C49.292 12.5156 48.6704 11.894 48.6704 11.125C48.6704 10.356 49.292 9.73438 50.061 9.73438C52.3611 9.73438 54.2329 11.6048 54.2329 13.9035C54.2329 14.6725 53.6113 15.2941 52.8423 15.2941Z" fill="#56CCF2"/>
<path d="M47.2783 44.4777C46.5093 44.4777 45.8877 43.8561 45.8877 43.0871C45.8877 42.3181 46.5093 41.6965 47.2783 41.6965C49.5784 41.6965 51.4516 39.8247 51.4516 37.5246C51.4516 36.7556 52.0732 36.134 52.8422 36.134C53.6112 36.134 54.2328 36.7556 54.2328 37.5246C54.2328 41.3586 51.1137 44.4777 47.2783 44.4777Z" fill="#56CCF2"/>
<path d="M50.0612 12.5156H38.939C38.1699 12.5156 37.5483 11.894 37.5483 11.125C37.5483 10.356 38.1699 9.73438 38.939 9.73438H50.0612C50.8302 9.73438 51.4518 10.356 51.4518 11.125C51.4518 11.894 50.8302 12.5156 50.0612 12.5156Z" fill="#56CCF2"/>
<path d="M40.3281 30.577C39.9582 30.577 39.605 30.431 39.345 30.1696C39.0849 29.9081 38.9375 29.5563 38.9375 29.1864L38.9389 16.6847C38.9389 15.9157 39.5619 15.2941 40.3295 15.2941H48.6691C49.4367 15.2941 50.0597 15.9157 50.0597 16.6847L50.0611 29.1836C50.0611 29.9513 49.4395 30.5743 48.6705 30.5743L40.3281 30.577ZM41.7201 18.0753L41.7188 27.7958L47.2799 27.793L47.2785 18.0753H41.7201Z" fill="#56CCF2"/>
<path d="M50.0612 34.7461C49.4785 34.7461 48.9362 34.3776 48.7429 33.7949L47.3523 29.6231C47.1089 28.8944 47.5025 28.1059 48.2311 27.8639C48.964 27.6206 49.7483 28.0141 49.9903 28.7428L51.3809 32.9147C51.6243 33.6434 51.2307 34.4319 50.502 34.6738C50.3546 34.7239 50.2072 34.7461 50.0612 34.7461Z" fill="#56CCF2"/>
<path d="M38.9375 34.7462C38.7929 34.7462 38.6441 34.7225 38.4981 34.6739C37.7708 34.4305 37.3759 33.6434 37.6192 32.9147L39.0099 28.7456C39.2532 28.0183 40.032 27.6206 40.769 27.8668C41.4963 28.1101 41.8912 28.8972 41.6479 29.6259L40.2573 33.795C40.0626 34.3791 39.5202 34.7462 38.9375 34.7462Z" fill="#56CCF2"/>
<path d="M44.4986 36.1368C41.1179 36.1368 39.0946 35.6737 38.1323 34.6808C37.583 34.1148 37.5399 33.5349 37.5482 33.3124C37.5732 32.5448 38.2157 31.9176 38.9806 31.9663C39.5312 31.983 39.9971 32.3181 40.2085 32.7909C40.4922 32.9425 41.5365 33.3555 44.4986 33.3555C47.4606 33.3555 48.5063 32.9425 48.79 32.7909C49 32.3181 49.4659 31.983 50.0179 31.9663C50.7578 31.9232 51.428 32.5448 51.4517 33.3124C51.4586 33.5349 51.4155 34.1148 50.8662 34.6808C49.9039 35.6737 47.8806 36.1368 44.4986 36.1368Z" fill="#56CCF2"/>
<path d="M47.2785 44.4777H41.7202C40.9512 44.4777 40.3296 43.8561 40.3296 43.0871C40.3296 42.3181 40.9512 41.6965 41.7202 41.6965H47.2785C48.0476 41.6965 48.6692 42.3181 48.6692 43.0871C48.6692 43.8561 48.0476 44.4777 47.2785 44.4777Z" fill="#56CCF2"/>
<path d="M54.2329 30.5743H52.8423C52.0733 30.5743 51.4517 29.9527 51.4517 29.1837C51.4517 28.4146 52.0733 27.793 52.8423 27.793H54.2329C55.0019 27.793 55.6235 28.4146 55.6235 29.1837C55.6235 29.9527 55.0019 30.5743 54.2329 30.5743Z" fill="#56CCF2"/>
<path d="M36.1562 30.5743H34.7656C33.9966 30.5743 33.375 29.9527 33.375 29.1837C33.375 28.4146 33.9966 27.793 34.7656 27.793H36.1562C36.9253 27.793 37.5469 28.4146 37.5469 29.1837C37.5469 29.9527 36.9253 30.5743 36.1562 30.5743Z" fill="#56CCF2"/>
<path d="M40.3307 18.0753C39.8816 18.0753 39.4393 17.8584 39.1723 17.4565L35.9781 12.6658C35.5512 12.0261 35.7236 11.1639 36.3633 10.737C37.003 10.3115 37.8651 10.4839 38.2921 11.1222L41.4863 15.9129C41.9133 16.5526 41.7408 17.4148 41.1011 17.8417C40.8633 17.9988 40.5949 18.0753 40.3307 18.0753Z" fill="#56CCF2"/>
<path d="M48.6693 18.0725C48.4051 18.0725 48.1353 17.996 47.8989 17.8389C47.2592 17.412 47.0868 16.5484 47.5137 15.9101L50.708 11.1222C51.1335 10.4839 51.9971 10.3115 52.6368 10.737C53.2765 11.1639 53.4489 12.0275 53.022 12.6658L49.8277 17.4537C49.5607 17.8556 49.1185 18.0725 48.6693 18.0725Z" fill="#56CCF2"/>
<path d="M6.95898 68.1323C6.18997 68.1323 5.56836 67.5107 5.56836 66.7417V43.1233C5.56836 42.3543 6.18997 41.7327 6.95898 41.7327C7.728 41.7327 8.34961 42.3543 8.34961 43.1233V66.7417C8.34961 67.5107 7.728 68.1323 6.95898 68.1323Z" fill="#333333"/>
<path d="M6.95752 44.5139C6.1885 44.5139 5.56689 43.8923 5.56689 43.1233C5.56689 40.8232 7.44007 38.9514 9.74016 38.9514C10.5092 38.9514 11.1308 39.573 11.1308 40.342C11.1308 41.1111 10.5092 41.7327 9.74016 41.7327C8.97254 41.7327 8.34815 42.3557 8.34815 43.1233C8.34815 43.8923 7.72654 44.5139 6.95752 44.5139Z" fill="#333333"/>
<path d="M12.5215 73.6948C10.6636 73.6948 8.91699 72.9716 7.60424 71.6603C6.29149 70.3475 5.56697 68.6009 5.56836 66.7416C5.56836 65.9726 6.19136 65.351 6.95899 65.351C7.728 65.351 8.34961 65.974 8.34961 66.7416C8.34961 67.8583 8.78349 68.9068 9.57058 69.6925C10.3577 70.4796 11.4048 70.9135 12.5215 70.9135C13.2905 70.9135 13.9121 71.5351 13.9121 72.3041C13.9121 73.0732 13.2905 73.6948 12.5215 73.6948Z" fill="#333333"/>
<path d="M23.6436 68.1323C22.8745 68.1323 22.2529 67.5107 22.2529 66.7417V43.1233C22.2529 42.3543 22.8745 41.7327 23.6436 41.7327C24.4126 41.7327 25.0342 42.3543 25.0342 43.1233V66.7417C25.0342 67.5107 24.4126 68.1323 23.6436 68.1323Z" fill="#333333"/>
<path d="M23.6436 44.5139C22.8745 44.5139 22.2529 43.8923 22.2529 43.1233C22.2529 42.3557 21.6299 41.7327 20.8623 41.7327C20.0933 41.7327 19.4717 41.1111 19.4717 40.342C19.4717 39.573 20.0933 38.9514 20.8623 38.9514C23.1624 38.9514 25.0342 40.8232 25.0342 43.1233C25.0342 43.8923 24.4126 44.5139 23.6436 44.5139Z" fill="#333333"/>
<path d="M18.0796 73.6948C17.3106 73.6948 16.689 73.0732 16.689 72.3041C16.689 71.5351 17.3106 70.9135 18.0796 70.9135C20.3797 70.9135 22.2529 69.0417 22.2529 66.7416C22.2529 65.9726 22.8745 65.351 23.6435 65.351C24.4125 65.351 25.0341 65.9726 25.0341 66.7416C25.0341 70.5756 21.9149 73.6948 18.0796 73.6948Z" fill="#333333"/>
<path d="M20.8625 41.7327H9.74023C8.97122 41.7327 8.34961 41.1111 8.34961 40.342C8.34961 39.573 8.97122 38.9514 9.74023 38.9514H20.8625C21.6315 38.9514 22.2531 39.573 22.2531 40.342C22.2531 41.1111 21.6315 41.7327 20.8625 41.7327Z" fill="#333333"/>
<path d="M19.4982 59.7941C19.4926 59.7955 19.4815 59.7941 19.4704 59.7941H11.1294C10.7595 59.7941 10.4063 59.6481 10.1462 59.3866C9.88618 59.1252 9.73877 58.772 9.73877 58.4035L9.74016 45.9017C9.74016 45.1327 10.3632 44.5111 11.1308 44.5111H19.4704C20.238 44.5111 20.861 45.1327 20.861 45.9017L20.8624 58.1253C20.8805 58.2143 20.8902 58.3089 20.8902 58.4035C20.8888 59.1725 20.2672 59.7941 19.4982 59.7941ZM12.52 57.0128H18.0811L18.0797 47.2924H12.5214L12.52 57.0128Z" fill="#333333"/>
<path d="M20.8625 63.966C20.2798 63.966 19.7375 63.5975 19.5442 63.0148L18.1535 58.8429C17.9102 58.1142 18.3037 57.3257 19.0324 57.0838C19.7667 56.839 20.5482 57.234 20.7916 57.9626L22.1822 62.1345C22.4255 62.8632 22.032 63.6517 21.3033 63.8937C21.1559 63.9423 21.0071 63.966 20.8625 63.966Z" fill="#333333"/>
<path d="M9.73881 63.966C9.59419 63.966 9.44539 63.9423 9.29937 63.8936C8.57208 63.6517 8.17714 62.8646 8.4205 62.1345L9.81112 57.9626C10.0545 57.2353 10.8346 56.839 11.5703 57.0838C12.2976 57.3257 12.6925 58.1128 12.4491 58.8429L11.0585 63.0148C10.8638 63.5974 10.3215 63.966 9.73881 63.966Z" fill="#333333"/>
<path d="M15.2998 65.3566C11.9164 65.3552 9.89447 64.8922 8.93216 63.8993C8.38425 63.3333 8.34114 62.7548 8.34948 62.5323C8.37312 61.7799 8.99056 61.1848 9.73733 61.1848C9.75262 61.1848 9.76653 61.1848 9.78183 61.1861C10.3325 61.2028 10.7984 61.538 11.0097 62.0094C11.2934 62.161 12.3392 62.574 15.2998 62.5754C18.2619 62.5754 19.3076 62.1624 19.5913 62.0108C19.8013 61.538 20.2671 61.2028 20.8192 61.1861C20.8345 61.1848 20.8484 61.1848 20.8637 61.1848C21.6105 61.1848 22.2279 61.7799 22.2516 62.5323C22.2599 62.7548 22.2168 63.3347 21.6675 63.9006C20.7052 64.8936 18.6818 65.3566 15.2998 65.3566Z" fill="#333333"/>
<path d="M18.0798 73.6948H12.5215C11.7525 73.6948 11.1309 73.0732 11.1309 72.3041C11.1309 71.5351 11.7525 70.9135 12.5215 70.9135H18.0798C18.8488 70.9135 19.4704 71.5351 19.4704 72.3041C19.4704 73.0732 18.8488 73.6948 18.0798 73.6948Z" fill="#333333"/>
<path d="M25.0342 59.7941H23.6436C22.8745 59.7941 22.2529 59.1725 22.2529 58.4035C22.2529 57.6345 22.8745 57.0129 23.6436 57.0129H25.0342C25.8032 57.0129 26.4248 57.6345 26.4248 58.4035C26.4248 59.1725 25.8032 59.7941 25.0342 59.7941Z" fill="#333333"/>
<path d="M6.95752 59.7941H5.56689C4.79788 59.7941 4.17627 59.1725 4.17627 58.4035C4.17627 57.6345 4.79788 57.0129 5.56689 57.0129H6.95752C7.72653 57.0129 8.34814 57.6345 8.34814 58.4035C8.34814 59.1725 7.72653 59.7941 6.95752 59.7941Z" fill="#333333"/>
<path d="M11.132 47.2924C10.6828 47.2924 10.2406 47.0754 9.97361 46.6735L6.77934 41.8856C6.35242 41.2473 6.52486 40.3838 7.16455 39.9568C7.80145 39.5313 8.66642 39.7023 9.09334 40.342L12.2876 45.13C12.7145 45.7682 12.5421 46.6318 11.9024 47.0588C11.666 47.2159 11.3962 47.2924 11.132 47.2924Z" fill="#333333"/>
<path d="M19.4706 47.2896C19.2064 47.2896 18.9366 47.2131 18.7002 47.056C18.0605 46.629 17.8881 45.7655 18.315 45.1272L21.5093 40.342C21.9362 39.7023 22.8011 39.5313 23.4381 39.9568C24.0777 40.3838 24.2502 41.2473 23.8233 41.8856L20.629 46.6708C20.3606 47.0727 19.9198 47.2896 19.4706 47.2896Z" fill="#333333"/>
<path d="M44.5 73.6976C43.731 73.6976 43.1094 73.076 43.1094 72.3069V48.6608C43.1094 47.8918 43.731 47.2701 44.5 47.2701C45.269 47.2701 45.8906 47.8918 45.8906 48.6608V72.3069C45.8906 73.076 45.269 73.6976 44.5 73.6976Z" fill="#56CCF2"/>
<path d="M44.4999 73.6975C44.1439 73.6975 43.7879 73.5613 43.5167 73.2901C42.973 72.7464 42.973 71.8675 43.5167 71.3238L46.2979 68.5425C46.8417 67.9988 47.7205 67.9988 48.2643 68.5425C48.808 69.0862 48.808 69.9651 48.2643 70.5088L45.483 73.2901C45.2119 73.5613 44.8559 73.6975 44.4999 73.6975Z" fill="#56CCF2"/>
<path d="M44.4998 73.6975C44.1439 73.6975 43.7879 73.5613 43.5167 73.2901L40.7354 70.5088C40.1917 69.9651 40.1917 69.0862 40.7354 68.5425C41.2792 67.9988 42.158 67.9988 42.7018 68.5425L45.483 71.3238C46.0268 71.8675 46.0268 72.7464 45.483 73.2901C45.2118 73.5613 44.8558 73.6975 44.4998 73.6975Z" fill="#56CCF2"/>
</svg>
