<svg width="41" height="37" viewBox="0 0 41 37" fill="none" xmlns="http://www.w3.org/2000/svg">
<g clip-path="url(#clip0)">
<path d="M8.32129 2.06836C8.32129 1.51607 8.769 1.06836 9.32129 1.06836H31.6784C32.2307 1.06836 32.6784 1.51608 32.6784 2.06836V25.2978C32.6784 25.8501 32.2307 26.2978 31.6784 26.2978H25.3251C24.2454 26.2978 23.249 26.878 22.7161 27.8169L20.4999 31.7212L18.2837 27.8169C17.7507 26.878 16.7543 26.2978 15.6747 26.2978H9.32129C8.769 26.2978 8.32129 25.8501 8.32129 25.2978V2.06836Z" fill="#56CCF2" stroke="#56CCF2" stroke-width="2"/>
<path d="M22.5499 13.4553C25.1903 13.4524 27.33 11.5471 27.3332 9.19594V8.58747C27.33 6.23628 25.1903 4.33097 22.5499 4.32812H15.7165C15.3391 4.32812 15.0332 4.60055 15.0332 4.9366V19.5401C15.0332 19.8761 15.3391 20.1485 15.7165 20.1485H18.4499C18.8273 20.1485 19.1332 19.8761 19.1332 19.5401V13.4553H22.5499ZM17.7665 18.9316H16.3999V5.54508H22.5499C24.4359 5.54706 25.9643 6.90802 25.9665 8.58747V9.19594C25.9643 10.8754 24.4359 12.2364 22.5499 12.2383H18.4499C18.0725 12.2383 17.7665 12.5108 17.7665 12.8468V18.9316Z" fill="#000000"/>
<path d="M18.4499 11.0211H22.5499C23.6816 11.02 24.5987 10.2033 24.5999 9.19563V8.58715C24.5987 7.57945 23.6816 6.76283 22.5499 6.76172H18.4499C18.0725 6.76172 17.7666 7.03414 17.7666 7.3702V10.4126C17.7666 10.7486 18.0725 11.0211 18.4499 11.0211ZM23.2333 8.58715V9.19563C23.233 9.5316 22.9272 9.8039 22.5499 9.80411H19.1333V7.97867H22.5499C22.9272 7.97887 23.233 8.25118 23.2333 8.58715Z" fill="#000000"/>
</g>
<defs>
<clipPath id="clip0">
<rect width="41" height="36.5086" fill="white" transform="translate(0 0.0683594)"/>
</clipPath>
</defs>
</svg>
