<svg width="210" height="318" viewBox="0 0 210 318" fill="none" xmlns="http://www.w3.org/2000/svg">
<path d="M0.635761 285.863C0.398327 288.355 1.59356 290.766 3.72036 292.085L43.2271 316.781C45.2457 318.047 47.7883 318.134 49.8887 317.009L105 287.344L160.138 317.017C162.229 318.129 164.755 318.04 166.763 316.783L206.275 292.09C208.398 290.765 209.593 288.356 209.364 285.864C209.136 283.372 207.522 281.221 205.193 280.305L154.79 260.486L184.308 244.623C186.634 243.368 187.992 240.852 187.765 238.219C187.538 235.586 185.769 233.339 183.262 232.501L154.832 223.024C153.359 222.531 151.759 222.573 150.314 223.143L127.806 231.994L139.802 212H184.5C196.204 211.988 205.689 202.504 205.7 190.8V21.2C205.689 9.49627 196.204 0.0113792 184.5 -1.52588e-05H25.5002C13.7965 0.0113792 4.31158 9.49627 4.30018 21.2V190.8C4.31158 202.504 13.7965 211.988 25.5002 212H70.1983L82.1948 231.994L59.7122 223.154C58.2601 222.576 56.6506 222.53 55.168 223.024L26.7372 232.501C24.2308 233.339 22.4614 235.586 22.2343 238.219C22.0071 240.852 23.3656 243.368 25.6915 244.623L55.2093 260.486L4.81269 280.305C2.47704 281.213 0.858399 283.367 0.635761 285.863V285.863ZM73.2002 201.4H25.5002C19.6492 201.392 14.9081 196.651 14.9002 190.8V21.2C14.9081 15.349 19.6492 10.6079 25.5002 10.6H184.5C190.351 10.6079 195.092 15.349 195.1 21.2V190.8C195.092 196.651 190.351 201.392 184.5 201.4H136.8C134.939 201.4 133.214 202.376 132.256 203.972L105 249.4L77.7444 203.972C76.7865 202.376 75.0616 201.4 73.2002 201.4ZM67.0723 267.215C69.473 266.27 71.1068 264.017 71.26 261.442C71.4132 258.866 70.0579 256.436 67.7862 255.212L38.8228 239.644L57.1449 233.536L91.1407 246.903L99.3223 260.538C100.521 262.533 102.677 263.753 105.004 263.752C107.331 263.75 109.487 262.529 110.683 260.533L118.862 246.902L152.85 233.536L171.178 239.644L142.199 255.223C139.932 256.449 138.583 258.879 138.739 261.452C138.895 264.024 140.53 266.272 142.928 267.215L193.967 287.282L163.099 306.577L108.168 277.007C106.206 275.929 103.831 275.923 101.864 276.992L46.9026 306.577L16.0344 287.282L67.0723 267.215Z" fill="#333333"/>
<path d="M120.901 116.6C141.38 116.575 157.976 99.9794 158.001 79.4999V74.1999C157.976 53.7205 141.38 37.1248 120.901 37.0999H67.9006C64.9735 37.0999 62.6006 39.4728 62.6006 42.3999V169.6C62.6006 172.527 64.9735 174.9 67.9006 174.9H89.1006C92.0277 174.9 94.4006 172.527 94.4006 169.6V116.6H120.901ZM83.8006 164.3H73.2006V47.6999H120.901C135.529 47.7172 147.383 59.5715 147.401 74.1999V79.4999C147.383 94.1284 135.529 105.983 120.901 106H89.1006C86.1735 106 83.8006 108.373 83.8006 111.3V164.3Z" fill="#333333"/>
<path d="M89.0998 95.4003H120.9C129.677 95.3907 136.79 88.2776 136.8 79.5003V74.2003C136.79 65.423 129.677 58.3099 120.9 58.3003H89.0998C86.1727 58.3003 83.7998 60.6732 83.7998 63.6003V90.1003C83.7998 93.0274 86.1727 95.4003 89.0998 95.4003ZM126.2 74.2003V79.5003C126.198 82.4267 123.826 84.7985 120.9 84.8003H94.3998V68.9003H120.9C123.826 68.902 126.198 71.2739 126.2 74.2003Z" fill="#333333"/>
</svg>
