<svg width="194" height="194" viewBox="0 0 194 194" fill="none" xmlns="http://www.w3.org/2000/svg">
<path d="M50.125 112.625H81.375V156.375H50.125V112.625Z" fill="#333333"/>
<path d="M112.625 87.625V100.125H100.125V156.375H131.375V100.125V87.625H112.625Z" fill="#333333"/>
<path d="M150.125 50.125H140.75V56.375H150.125V131.375H168.875V50.125H150.125Z" fill="#333333"/>
<path d="M53.25 81.375H25.125V159.5H31.375V87.625H53.25V81.375Z" fill="#333333"/>
<path d="M181.375 174.747C188.497 173.003 193.875 165.431 193.875 156.375C193.875 147.319 188.497 139.747 181.375 138.003V37.6249H175.125V25.1249H162.625V12.6249H156.297L156.375 0.143653L150.125 0.103027L150.047 12.6249H143.875V25.1249H131.375V37.6249H125.125V64.7436C118.35 66.5843 112.006 69.5686 106.375 73.5561V43.8749H118.875V25.1249H103.25V12.6249H96.9219L97 0.143653L90.75 0.103027L90.6719 12.6249H84.5V25.1249H68.875V43.8749H81.375V103.934L68.875 100.809V75.1249H75.125V68.8749H56.375V50.1249H50.125V68.8749H43.875V62.6249H37.625V68.8749H31.375V56.3749H25.125V68.8749H6.375V75.1249H12.625V172.081C8.85312 174.934 6.375 179.416 6.375 184.5C6.375 185.556 6.51562 186.597 6.725 187.625H0.125V193.875H193.875V187.625H181.375V174.747ZM87.625 170.219C83.1594 168.284 77.7875 168.528 73.5688 170.984C69.4594 165.756 63.1406 162.625 56.375 162.625C51.7562 162.625 47.45 164.078 43.875 166.566V101.003L87.625 111.941V170.219ZM89.9812 106.084L90.3281 105.219C97.2281 84.4749 116 70.2249 137.625 68.9655V177.297C134.147 175.634 130.231 174.831 126.184 175.225C122.625 167.591 114.969 162.625 106.375 162.625C101.822 162.625 97.4875 164.072 93.875 166.594V107.059L89.9812 106.084ZM150.125 156.375V168.106C146.497 166.381 143.875 161.8 143.875 156.375C143.875 149.481 148.081 143.875 153.25 143.875C158.419 143.875 162.625 149.481 162.625 156.375C162.625 161.8 160.003 166.381 156.375 168.106V156.375H150.125ZM143.875 181.797V171.337C145.694 172.984 147.812 174.178 150.125 174.744V187.625H147.941C146.897 185.441 145.525 183.487 143.875 181.797ZM156.375 174.747C160.194 173.812 163.494 171.191 165.75 167.578C168.006 171.194 171.306 173.812 175.125 174.747V187.625H156.375V174.747ZM187.625 156.375C187.625 161.8 185.003 166.381 181.375 168.106V156.375H175.125V168.106C171.497 166.381 168.875 161.8 168.875 156.375C168.875 149.481 173.081 143.875 178.25 143.875C183.419 143.875 187.625 149.481 187.625 156.375ZM150.125 18.8749H156.375V25.1249H150.125V18.8749ZM137.625 31.3749H143.875H162.625H168.875V37.6249H137.625V31.3749ZM131.375 43.8749H175.125V138.003C171.306 138.937 168.006 141.559 165.75 145.172C162.897 140.603 158.363 137.625 153.25 137.625C149.731 137.625 146.491 139.047 143.875 141.409V62.6249H140.75C137.572 62.6249 134.441 62.878 131.375 63.3655V43.8749ZM90.75 18.8749H97V25.1249H90.75V18.8749ZM75.125 31.3749H112.625V37.6249H75.125V31.3749ZM100.125 43.8749V78.6843C95.0469 83.4405 90.7906 89.0999 87.625 95.4843V43.8749H100.125ZM18.875 75.1249H62.625V99.2468L37.625 92.9968V173.291C37.2406 173.941 36.85 174.587 36.5281 175.281C35.8719 175.191 35.2031 175.141 34.5094 175.134C31.5781 171.231 26.9469 168.875 22 168.875C20.9312 168.875 19.8844 168.984 18.875 169.191V75.1249ZM12.625 184.5C12.625 179.331 16.8312 175.125 22 175.125C25.3781 175.125 28.5094 176.953 30.1719 179.897L31.1406 181.612L34.5 181.375C35.4187 181.375 36.3875 181.553 37.4656 181.916L40.5 182.934L41.4469 179.875C43.4812 173.297 49.4812 168.875 56.375 168.875C62.0594 168.875 67.3031 171.972 70.0563 176.959L72.0094 180.497L74.9406 177.716C78.4656 174.378 84.2781 174.378 87.8031 177.716L90.7344 180.497L92.6875 176.959C95.4469 171.972 100.691 168.875 106.375 168.875C113.159 168.875 119.128 173.212 121.228 179.669L122.106 182.366L124.878 181.753C131.056 180.381 137.116 182.928 140.678 187.625H13.2312C12.875 186.619 12.625 185.578 12.625 184.5V184.5Z" fill="#333333"/>
<path d="M50.125 81.375H56.375V87.625H50.125V81.375Z" fill="#56CCF2"/>
<path d="M37.625 81.375H43.875V87.625H37.625V81.375Z" fill="#56CCF2"/>
<path d="M25.125 81.375H31.375V87.625H25.125V81.375Z" fill="#56CCF2"/>
<path d="M25.125 131.375H31.375V137.625H25.125V131.375Z" fill="#56CCF2"/>
<path d="M25.125 156.375H31.375V162.625H25.125V156.375Z" fill="#56CCF2"/>
<path d="M25.125 118.875H31.375V125.125H25.125V118.875Z" fill="#56CCF2"/>
<path d="M25.125 93.875H31.375V100.125H25.125V93.875Z" fill="#56CCF2"/>
<path d="M25.125 106.375H31.375V112.625H25.125V106.375Z" fill="#56CCF2"/>
<path d="M25.125 143.875H31.375V150.125H25.125V143.875Z" fill="#56CCF2"/>
<path d="M150.125 50.125H156.375V56.375H150.125V50.125Z" fill="#56CCF2"/>
<path d="M162.625 50.125H168.875V56.375H162.625V50.125Z" fill="#56CCF2"/>
<path d="M137.625 50.125H143.875V56.375H137.625V50.125Z" fill="#56CCF2"/>
<path d="M50.125 150.125H56.375V156.375H50.125V150.125Z" fill="#56CCF2"/>
<path d="M50.125 112.625H56.375V118.875H50.125V112.625Z" fill="#56CCF2"/>
<path d="M50.125 137.625H56.375V143.875H50.125V137.625Z" fill="#56CCF2"/>
<path d="M50.125 125.125H56.375V131.375H50.125V125.125Z" fill="#56CCF2"/>
<path d="M62.625 137.625H68.875V143.875H62.625V137.625Z" fill="#56CCF2"/>
<path d="M62.625 125.125H68.875V131.375H62.625V125.125Z" fill="#56CCF2"/>
<path d="M62.625 150.125H68.875V156.375H62.625V150.125Z" fill="#56CCF2"/>
<path d="M62.625 112.625H68.875V118.875H62.625V112.625Z" fill="#56CCF2"/>
<path d="M75.125 137.625H81.375V143.875H75.125V137.625Z" fill="#56CCF2"/>
<path d="M75.125 125.125H81.375V131.375H75.125V125.125Z" fill="#56CCF2"/>
<path d="M75.125 150.125H81.375V156.375H75.125V150.125Z" fill="#56CCF2"/>
<path d="M75.125 112.625H81.375V118.875H75.125V112.625Z" fill="#56CCF2"/>
<path d="M100.125 150.125H106.375V156.375H100.125V150.125Z" fill="#56CCF2"/>
<path d="M112.625 150.125H118.875V156.375H112.625V150.125Z" fill="#56CCF2"/>
<path d="M125.125 150.125H131.375V156.375H125.125V150.125Z" fill="#56CCF2"/>
<path d="M125.125 137.625H131.375V143.875H125.125V137.625Z" fill="#56CCF2"/>
<path d="M112.625 137.625H118.875V143.875H112.625V137.625Z" fill="#56CCF2"/>
<path d="M100.125 137.625H106.375V143.875H100.125V137.625Z" fill="#56CCF2"/>
<path d="M112.625 125.125H118.875V131.375H112.625V125.125Z" fill="#56CCF2"/>
<path d="M125.125 125.125H131.375V131.375H125.125V125.125Z" fill="#56CCF2"/>
<path d="M100.125 125.125H106.375V131.375H100.125V125.125Z" fill="#56CCF2"/>
<path d="M100.125 112.625H106.375V118.875H100.125V112.625Z" fill="#56CCF2"/>
<path d="M125.125 112.625H131.375V118.875H125.125V112.625Z" fill="#56CCF2"/>
<path d="M112.625 112.625H118.875V118.875H112.625V112.625Z" fill="#56CCF2"/>
<path d="M125.125 100.125H131.375V106.375H125.125V100.125Z" fill="#56CCF2"/>
<path d="M100.125 100.125H106.375V106.375H100.125V100.125Z" fill="#56CCF2"/>
<path d="M112.625 100.125H118.875V106.375H112.625V100.125Z" fill="#56CCF2"/>
<path d="M112.625 87.625H118.875V93.875H112.625V87.625Z" fill="#56CCF2"/>
<path d="M125.125 87.625H131.375V93.875H125.125V87.625Z" fill="#56CCF2"/>
<path d="M150.125 62.625H156.375V68.875H150.125V62.625Z" fill="#56CCF2"/>
<path d="M162.625 62.625H168.875V68.875H162.625V62.625Z" fill="#56CCF2"/>
<path d="M150.125 75.125H156.375V81.375H150.125V75.125Z" fill="#56CCF2"/>
<path d="M162.625 75.125H168.875V81.375H162.625V75.125Z" fill="#56CCF2"/>
<path d="M162.625 87.625H168.875V93.875H162.625V87.625Z" fill="#56CCF2"/>
<path d="M150.125 87.625H156.375V93.875H150.125V87.625Z" fill="#56CCF2"/>
<path d="M162.625 100.125H168.875V106.375H162.625V100.125Z" fill="#56CCF2"/>
<path d="M150.125 100.125H156.375V106.375H150.125V100.125Z" fill="#56CCF2"/>
<path d="M162.625 112.625H168.875V118.875H162.625V112.625Z" fill="#56CCF2"/>
<path d="M150.125 112.625H156.375V118.875H150.125V112.625Z" fill="#56CCF2"/>
<path d="M150.125 125.125H156.375V131.375H150.125V125.125Z" fill="#56CCF2"/>
<path d="M162.625 125.125H168.875V131.375H162.625V125.125Z" fill="#56CCF2"/>
</svg>
