<svg width="200" height="200" viewBox="0 0 200 200" fill="none" xmlns="http://www.w3.org/2000/svg">
<path d="M46.875 59.375V90.625H59.375V103.125H78.125V90.625V59.375H46.875Z" fill="#333333"/>
<path d="M115.625 65.625H96.875V40.625H115.625V65.625Z" fill="#56CCF2"/>
<path d="M115.625 96.875H96.875V71.875H115.625V96.875Z" fill="#56CCF2"/>
<path d="M115.625 128.125H96.875V103.125H115.625V128.125Z" fill="#56CCF2"/>
<path d="M115.625 159.375H96.875V134.375H115.625V159.375Z" fill="#56CCF2"/>
<path d="M140.625 65.625H121.875V40.625H140.625V65.625Z" fill="#56CCF2"/>
<path d="M190.625 190.625V96.875H184.375V84.375H178.125V65.625H171.875V53.125H165.625V65.625H159.375V84.375H153.125V14.9375L134.375 18.6875V9.375H128.125V19.9375L121.875 21.1875V3.125H115.625V22.4375L109.375 23.6875V9.375H103.125V24.9406L84.375 28.6906V46.875H28.125V53.125H34.375V90.9094C33.35 90.7406 32.3125 90.625 31.25 90.625C19.1906 90.625 9.375 101.841 9.375 115.625C9.375 128.194 17.5438 138.597 28.125 140.341V144.413C25.5094 142.047 22.2688 140.625 18.75 140.625C10.1344 140.625 3.125 149.034 3.125 159.375C3.125 168.431 8.50312 176.003 15.625 177.747V190.625H3.125V196.875H196.875V190.625H190.625ZM53.125 187.5C53.125 182.331 57.3312 178.125 62.5 178.125C65.875 178.125 69.0062 179.953 70.6719 182.897L71.6406 184.613L75 184.375C75.9187 184.375 76.8875 184.553 77.9625 184.916L81 185.934L81.9469 182.875C83.9812 176.297 89.9812 171.875 96.875 171.875C102.556 171.875 107.8 174.972 110.559 179.959L112.513 183.497L115.444 180.716C118.966 177.378 124.781 177.378 128.303 180.716L131.234 183.497L133.187 179.959C135.95 174.972 141.194 171.875 146.875 171.875C153.659 171.875 159.628 176.212 161.728 182.669L162.606 185.366L165.378 184.753C171.572 183.378 177.625 185.928 181.184 190.625H53.7313C53.375 189.619 53.125 188.578 53.125 187.5V187.5ZM184.375 103.125V184.803C182.563 182.947 180.459 181.419 178.125 180.3V109.375H134.375V169.594C132.622 170.819 131.025 172.275 129.681 173.981C129.181 173.691 128.656 173.444 128.125 173.216V103.125H184.375ZM146.875 165.625C144.725 165.625 142.628 165.975 140.625 166.575V115.625H153.125V166.531C151.134 165.941 149.034 165.625 146.875 165.625ZM159.375 115.625H171.875V178.419C170.178 178.172 168.45 178.053 166.684 178.225C165.031 174.684 162.475 171.753 159.375 169.588V115.625ZM134.375 96.875V90.625H178.125V96.875H134.375ZM165.625 71.875H171.875V84.375H165.625V71.875ZM146.875 22.5625V84.375H128.125V96.875H121.875V171.922C119.15 171.922 116.428 172.609 114.069 173.981C109.959 168.759 103.641 165.625 96.875 165.625C94.7125 165.625 92.6125 165.937 90.625 166.522V33.8094L146.875 22.5625ZM40.625 53.125H84.375V169.566C81.25 171.741 78.6813 174.7 77.0281 178.281C76.3688 178.191 75.7 178.141 75.0063 178.134C72.0781 174.231 67.4469 171.875 62.5 171.875C53.8844 171.875 46.875 178.884 46.875 187.5C46.875 188.556 47.0156 189.597 47.225 190.625H34.375V179.278L53.125 157.406V149.716C63.7062 147.972 71.875 137.569 71.875 125C71.875 115.594 67.3 107.391 60.5656 103.125H65.625V96.875H59.375V102.447C56.5281 100.894 53.3563 100 50 100C49.4625 100 48.9125 100.034 48.3562 100.087C46.2906 97.1219 43.6469 94.7188 40.625 93.0719V53.125ZM53.125 115.625C53.125 112.344 52.5531 109.216 51.5437 106.344C59.4375 107.278 65.625 115.287 65.625 125C65.625 135.341 58.6156 143.75 50 143.75C46.0563 143.75 42.3094 141.934 39.45 138.784C47.4562 135.069 53.125 126.094 53.125 115.625ZM34.375 142.441C37.7281 146.372 42.1 148.941 46.875 149.725V155.097L34.375 169.681V142.441ZM15.625 115.625C15.625 105.284 22.6344 96.875 31.25 96.875C39.8656 96.875 46.875 105.284 46.875 115.625C46.875 124.681 41.4969 132.253 34.375 133.997V112.5H28.125V133.997C21.0031 132.253 15.625 124.681 15.625 115.625ZM9.375 159.375C9.375 152.481 13.5812 146.875 18.75 146.875C23.9188 146.875 28.125 152.481 28.125 159.375C28.125 166.269 23.9188 171.875 18.75 171.875C13.5812 171.875 9.375 166.269 9.375 159.375ZM21.875 177.747C24.1875 177.181 26.3062 175.984 28.125 174.341V190.625H21.875V177.747Z" fill="#333333"/>
<path d="M71.875 59.375H78.125V65.625H71.875V59.375Z" fill="#56CCF2"/>
<path d="M59.375 59.375H65.625V65.625H59.375V59.375Z" fill="#56CCF2"/>
<path d="M46.875 59.375H53.125V65.625H46.875V59.375Z" fill="#56CCF2"/>
<path d="M59.375 71.875H65.625V78.125H59.375V71.875Z" fill="#56CCF2"/>
<path d="M46.875 71.875H53.125V78.125H46.875V71.875Z" fill="#56CCF2"/>
<path d="M71.875 71.875H78.125V78.125H71.875V71.875Z" fill="#56CCF2"/>
<path d="M71.875 84.375H78.125V90.625H71.875V84.375Z" fill="#56CCF2"/>
<path d="M46.875 84.375H53.125V90.625H46.875V84.375Z" fill="#56CCF2"/>
<path d="M59.375 84.375H65.625V90.625H59.375V84.375Z" fill="#56CCF2"/>
<path d="M71.875 96.875H78.125V103.125H71.875V96.875Z" fill="#56CCF2"/>
</svg>
