<svg width="143" height="24" viewBox="0 0 143 24" fill="none" xmlns="http://www.w3.org/2000/svg">
<g clip-path="url(#clip0)">
<path d="M70.0073 8.94962C69.7907 8.75725 69.5741 8.66083 69.3575 8.66083H67.5886V11.4044H69.4478C69.6644 11.4044 69.8658 11.3051 70.0525 11.1066C70.2389 10.908 70.3322 10.5501 70.3322 10.0326C70.3322 9.50322 70.2238 9.14223 70.0073 8.94962Z" fill="#56CCF2"/>
<path d="M76.5543 3.51469C74.2877 1.24823 71.2743 0 68.069 0C64.8637 0 61.8502 1.24823 59.5837 3.51469C57.3172 5.78123 56.069 8.79469 56.069 12C56.069 15.2053 57.3172 18.2188 59.5837 20.4853C61.8502 22.7518 64.8637 24 68.069 24C71.2743 24 74.2877 22.7518 76.5543 20.4853C78.8207 18.2188 80.069 15.2053 80.069 12C80.069 8.79469 78.8207 5.78123 76.5543 3.51469ZM73.5992 11.6842C73.3945 12.2197 73.1088 12.6949 72.7419 13.11C72.3747 13.5252 71.9296 13.8563 71.4062 14.1028C70.8827 14.3496 70.308 14.4728 69.6825 14.4728H67.5887V18.4077H64.069V5.59233H69.5922C70.2178 5.59233 70.7954 5.7218 71.325 5.98041C71.8544 6.2393 72.3087 6.57605 72.6878 6.99117C73.0668 7.4063 73.3647 7.8818 73.5813 8.41711C73.7979 8.95266 73.9062 9.49106 73.9062 10.0326C73.9061 10.5983 73.8037 11.1488 73.5992 11.6842Z" fill="#56CCF2"/>
</g>
<path d="M88.5244 18.353C88.355 18.353 88.2522 18.2743 88.2158 18.117L87.8165 16.7012C87.7923 16.6528 87.7621 16.6286 87.7258 16.6286H83.8777C83.8414 16.6286 83.8111 16.6528 83.7869 16.7012L83.3876 18.117C83.3513 18.2743 83.2485 18.353 83.079 18.353H79.9752C79.7574 18.353 79.6787 18.2501 79.7392 18.0444L83.5691 5.86489C83.6175 5.71968 83.7204 5.64707 83.8777 5.64707H87.7258C87.8831 5.64707 87.9859 5.71968 88.0343 5.86489L91.8643 18.0444C91.8764 18.0686 91.8824 18.1049 91.8824 18.1533C91.8824 18.2864 91.7977 18.353 91.6283 18.353H88.5244ZM84.5856 13.9059C84.5735 13.9785 84.5977 14.0148 84.6582 14.0148H86.9271C86.9997 14.0148 87.0239 13.9785 86.9997 13.9059L85.838 9.84001C85.8259 9.80371 85.8078 9.78556 85.7836 9.78556C85.7594 9.78556 85.7412 9.80371 85.7291 9.84001L84.5856 13.9059Z" fill="#56CCF2"/>
<path d="M99.6669 18.353C99.5096 18.353 99.4067 18.2864 99.3583 18.1533L97.3617 13.5429C97.3375 13.4945 97.3012 13.4703 97.2528 13.4703H96.4904C96.4299 13.4703 96.3997 13.5005 96.3997 13.561V18.0807C96.3997 18.1654 96.3755 18.2319 96.3271 18.2803C96.2786 18.3288 96.2121 18.353 96.1274 18.353H93.2595C93.1748 18.353 93.1082 18.3288 93.0598 18.2803C93.0114 18.2319 92.9872 18.1654 92.9872 18.0807V5.91934C92.9872 5.83463 93.0114 5.76808 93.0598 5.71968C93.1082 5.67127 93.1748 5.64707 93.2595 5.64707H98.7593C99.5822 5.64707 100.302 5.81648 100.919 6.15531C101.549 6.49413 102.033 6.97211 102.371 7.58926C102.722 8.1943 102.898 8.89615 102.898 9.6948C102.898 10.4935 102.698 11.1953 102.299 11.8003C101.912 12.3933 101.373 12.8289 100.683 13.1072C100.623 13.1314 100.605 13.1738 100.629 13.2343L102.934 18.0262C102.958 18.0988 102.97 18.1412 102.97 18.1533C102.97 18.2138 102.946 18.2622 102.898 18.2985C102.849 18.3348 102.789 18.353 102.716 18.353H99.6669ZM96.4904 8.56942C96.4299 8.56942 96.3997 8.59968 96.3997 8.66018V10.7839C96.3997 10.8444 96.4299 10.8746 96.4904 10.8746H98.1966C98.5839 10.8746 98.8985 10.7718 99.1405 10.5661C99.3825 10.3482 99.5035 10.0699 99.5035 9.7311C99.5035 9.38018 99.3825 9.10186 99.1405 8.89615C98.8985 8.67833 98.5839 8.56942 98.1966 8.56942H96.4904Z" fill="#56CCF2"/>
<path d="M104.427 18.353C104.342 18.353 104.276 18.3288 104.227 18.2803C104.179 18.2319 104.154 18.1654 104.154 18.0807V5.91934C104.154 5.83463 104.179 5.76808 104.227 5.71968C104.276 5.67127 104.342 5.64707 104.427 5.64707H107.295C107.379 5.64707 107.446 5.67127 107.494 5.71968C107.543 5.76808 107.567 5.83463 107.567 5.91934V10.2575C107.567 10.2938 107.579 10.318 107.603 10.3301C107.627 10.3422 107.652 10.3301 107.676 10.2938L110.834 5.81043C110.907 5.70152 111.022 5.64707 111.179 5.64707H114.428C114.573 5.64707 114.646 5.70152 114.646 5.81043C114.646 5.85884 114.628 5.91329 114.591 5.97379L110.816 11.2195C110.792 11.2558 110.792 11.2982 110.816 11.3466L114.719 18.0262C114.755 18.0746 114.773 18.1291 114.773 18.1896C114.773 18.2985 114.694 18.353 114.537 18.353H111.324C111.167 18.353 111.058 18.2924 110.998 18.1714L108.493 13.7062C108.481 13.6699 108.462 13.6518 108.438 13.6518C108.414 13.6518 108.39 13.6699 108.366 13.7062L107.603 14.8679C107.579 14.9163 107.567 14.9526 107.567 14.9768V18.0807C107.567 18.1654 107.543 18.2319 107.494 18.2803C107.446 18.3288 107.379 18.353 107.295 18.353H104.427Z" fill="#56CCF2"/>
<path d="M115.966 18.353C115.882 18.353 115.815 18.3288 115.767 18.2803C115.718 18.2319 115.694 18.1654 115.694 18.0807V5.91934C115.694 5.83463 115.718 5.76808 115.767 5.71968C115.815 5.67127 115.882 5.64707 115.966 5.64707H118.834C118.919 5.64707 118.985 5.67127 119.034 5.71968C119.082 5.76808 119.106 5.83463 119.106 5.91934V18.0807C119.106 18.1654 119.082 18.2319 119.034 18.2803C118.985 18.3288 118.919 18.353 118.834 18.353H115.966Z" fill="#56CCF2"/>
<path d="M127.631 5.91934C127.631 5.83463 127.655 5.76808 127.703 5.71968C127.752 5.67127 127.818 5.64707 127.903 5.64707H130.771C130.856 5.64707 130.922 5.67127 130.971 5.71968C131.019 5.76808 131.043 5.83463 131.043 5.91934V18.0807C131.043 18.1654 131.019 18.2319 130.971 18.2803C130.922 18.3288 130.856 18.353 130.771 18.353H128.03C127.885 18.353 127.776 18.2924 127.703 18.1714L124 12C123.976 11.9637 123.952 11.9516 123.928 11.9637C123.904 11.9637 123.892 11.9879 123.892 12.0363L123.928 18.0807C123.928 18.1654 123.904 18.2319 123.855 18.2803C123.807 18.3288 123.74 18.353 123.656 18.353H120.788C120.703 18.353 120.636 18.3288 120.588 18.2803C120.54 18.2319 120.515 18.1654 120.515 18.0807V5.91934C120.515 5.83463 120.54 5.76808 120.588 5.71968C120.636 5.67127 120.703 5.64707 120.788 5.64707H123.529C123.674 5.64707 123.783 5.70757 123.855 5.82858L127.54 12C127.564 12.0363 127.588 12.0545 127.613 12.0545C127.637 12.0424 127.649 12.0121 127.649 11.9637L127.631 5.91934Z" fill="#56CCF2"/>
<path d="M137.309 18.4982C136.317 18.4982 135.439 18.2985 134.677 17.8992C133.927 17.4998 133.34 16.9372 132.916 16.2111C132.505 15.4851 132.299 14.6501 132.299 13.7062V10.2756C132.299 9.33178 132.505 8.50287 132.916 7.78892C133.34 7.06287 133.927 6.50018 134.677 6.10085C135.439 5.70153 136.317 5.50186 137.309 5.50186C138.277 5.50186 139.142 5.69547 139.905 6.0827C140.667 6.45783 141.254 6.97211 141.665 7.62556C142.089 8.279 142.301 8.99295 142.301 9.76741V9.78556C142.301 9.87026 142.276 9.93682 142.228 9.98522C142.18 10.0336 142.113 10.0578 142.028 10.0578H139.179C138.997 10.0578 138.906 10.0034 138.906 9.89447C138.906 9.49514 138.761 9.15026 138.471 8.85984C138.192 8.56942 137.805 8.42421 137.309 8.42421C136.825 8.42421 136.438 8.58758 136.147 8.9143C135.857 9.22892 135.712 9.65245 135.712 10.1849V13.8151C135.712 14.3355 135.875 14.759 136.202 15.0857C136.541 15.4124 136.958 15.5758 137.454 15.5758C137.902 15.5758 138.265 15.4548 138.543 15.2128C138.834 14.9587 138.979 14.6138 138.979 14.1782V13.9422C138.979 13.8817 138.949 13.8514 138.888 13.8514H137.291C137.206 13.8514 137.14 13.8272 137.091 13.7788C137.043 13.7304 137.019 13.6639 137.019 13.5792V11.401C137.019 11.3163 137.043 11.2498 137.091 11.2014C137.14 11.153 137.206 11.1288 137.291 11.1288H142.028C142.113 11.1288 142.18 11.153 142.228 11.2014C142.276 11.2498 142.301 11.3163 142.301 11.401V13.8877C142.301 14.7832 142.089 15.5819 141.665 16.2837C141.254 16.9856 140.667 17.5301 139.905 17.9173C139.154 18.3045 138.289 18.4982 137.309 18.4982Z" fill="#56CCF2"/>
<path d="M5.0642 18.4982C4.04773 18.4982 3.15832 18.3348 2.39597 18.0081C1.63361 17.6693 1.04067 17.1913 0.617143 16.5741C0.205714 15.957 0 15.243 0 14.4323V14.1782C0 14.0935 0.0242017 14.0269 0.0726051 13.9785C0.121008 13.9301 0.187563 13.9059 0.272269 13.9059H3.08571C3.17042 13.9059 3.23697 13.9301 3.28538 13.9785C3.33378 14.0269 3.35798 14.0935 3.35798 14.1782V14.2871C3.35798 14.6259 3.53344 14.9284 3.88437 15.1946C4.24739 15.4488 4.72538 15.5758 5.31832 15.5758C5.76605 15.5758 6.08672 15.4851 6.28034 15.3035C6.47395 15.1099 6.57076 14.8982 6.57076 14.6682C6.57076 14.402 6.44975 14.2024 6.20773 14.0693C5.96571 13.9361 5.52403 13.7728 4.88269 13.5792L4.3563 13.434C3.15832 13.0709 2.15395 12.5869 1.34319 11.9819C0.532437 11.3768 0.127059 10.4995 0.127059 9.34993C0.127059 8.58758 0.332773 7.91598 0.744202 7.33514C1.15563 6.7422 1.71832 6.28842 2.43227 5.97379C3.15832 5.65917 3.96908 5.50186 4.86454 5.50186C5.8084 5.50186 6.66151 5.67732 7.42386 6.02825C8.19832 6.37917 8.80336 6.87531 9.23899 7.51665C9.68672 8.158 9.91059 8.8901 9.91059 9.71295V9.87632C9.91059 9.96102 9.88639 10.0276 9.83798 10.076C9.78958 10.1244 9.72302 10.1486 9.63832 10.1486H6.82487C6.74017 10.1486 6.67361 10.1244 6.62521 10.076C6.57681 10.0276 6.5526 9.96102 6.5526 9.87632V9.85816C6.5526 9.49514 6.38924 9.16842 6.06252 8.878C5.7358 8.57547 5.29412 8.42421 4.73748 8.42421C4.35025 8.42421 4.04168 8.50287 3.81176 8.66018C3.59395 8.81749 3.48504 9.03531 3.48504 9.31363C3.48504 9.53144 3.5637 9.719 3.72101 9.87632C3.89042 10.0215 4.14454 10.1667 4.48336 10.3119C4.82218 10.4451 5.34252 10.6205 6.04437 10.8383C6.14118 10.8746 6.56471 11.0077 7.31496 11.2377C8.07731 11.4555 8.7126 11.8609 9.22084 12.4538C9.72908 13.0346 9.98319 13.7425 9.98319 14.5775C9.98319 15.3882 9.77748 16.0901 9.36605 16.683C8.95462 17.2639 8.37983 17.7116 7.64168 18.0262C6.90353 18.3409 6.04437 18.4982 5.0642 18.4982Z" fill="#56CCF2"/>
<path d="M17.5988 5.91934C17.5988 5.83463 17.623 5.76808 17.6714 5.71968C17.7198 5.67127 17.7863 5.64707 17.871 5.64707H20.7389C20.8237 5.64707 20.8902 5.67127 20.9386 5.71968C20.987 5.76808 21.0112 5.83463 21.0112 5.91934V18.0807C21.0112 18.1654 20.987 18.2319 20.9386 18.2803C20.8902 18.3288 20.8237 18.353 20.7389 18.353H17.871C17.7863 18.353 17.7198 18.3288 17.6714 18.2803C17.623 18.2319 17.5988 18.1654 17.5988 18.0807V13.4703C17.5988 13.4098 17.5685 13.3795 17.508 13.3795H14.6764C14.6159 13.3795 14.5857 13.4098 14.5857 13.4703V18.0807C14.5857 18.1654 14.5615 18.2319 14.5131 18.2803C14.4647 18.3288 14.3981 18.353 14.3134 18.353H11.4455C11.3608 18.353 11.2942 18.3288 11.2458 18.2803C11.1974 18.2319 11.1732 18.1654 11.1732 18.0807V5.91934C11.1732 5.83463 11.1974 5.76808 11.2458 5.71968C11.2942 5.67127 11.3608 5.64707 11.4455 5.64707H14.3134C14.3981 5.64707 14.4647 5.67127 14.5131 5.71968C14.5615 5.76808 14.5857 5.83463 14.5857 5.91934V10.3664C14.5857 10.4269 14.6159 10.4572 14.6764 10.4572H17.508C17.5685 10.4572 17.5988 10.4269 17.5988 10.3664V5.91934Z" fill="#56CCF2"/>
<path d="M30.7644 18.353C30.595 18.353 30.4921 18.2743 30.4558 18.117L30.0565 16.7012C30.0323 16.6528 30.002 16.6286 29.9657 16.6286H26.1177C26.0814 16.6286 26.0511 16.6528 26.0269 16.7012L25.6276 18.117C25.5913 18.2743 25.4884 18.353 25.319 18.353H22.2152C21.9973 18.353 21.9187 18.2501 21.9792 18.0444L25.8091 5.86489C25.8575 5.71968 25.9604 5.64707 26.1177 5.64707H29.9657C30.1231 5.64707 30.2259 5.71968 30.2743 5.86489L34.1042 18.0444C34.1163 18.0686 34.1224 18.1049 34.1224 18.1533C34.1224 18.2864 34.0377 18.353 33.8683 18.353H30.7644ZM26.8256 13.9059C26.8135 13.9785 26.8377 14.0148 26.8982 14.0148H29.1671C29.2397 14.0148 29.2639 13.9785 29.2397 13.9059L28.078 9.84001C28.0659 9.80371 28.0478 9.78556 28.0236 9.78556C27.9994 9.78556 27.9812 9.80371 27.9691 9.84001L26.8256 13.9059Z" fill="#56CCF2"/>
<path d="M41.9069 18.353C41.7495 18.353 41.6467 18.2864 41.5983 18.1533L39.6017 13.5429C39.5774 13.4945 39.5411 13.4703 39.4927 13.4703H38.7304C38.6699 13.4703 38.6396 13.5005 38.6396 13.561V18.0807C38.6396 18.1654 38.6154 18.2319 38.567 18.2803C38.5186 18.3288 38.4521 18.353 38.3674 18.353H35.4995C35.4148 18.353 35.3482 18.3288 35.2998 18.2803C35.2514 18.2319 35.2272 18.1654 35.2272 18.0807V5.91934C35.2272 5.83463 35.2514 5.76808 35.2998 5.71968C35.3482 5.67127 35.4148 5.64707 35.4995 5.64707H40.9993C41.8222 5.64707 42.5422 5.81648 43.1593 6.15531C43.7885 6.49413 44.2726 6.97211 44.6114 7.58926C44.9623 8.1943 45.1378 8.89615 45.1378 9.6948C45.1378 10.4935 44.9381 11.1953 44.5388 11.8003C44.1516 12.3933 43.6131 12.8289 42.9233 13.1072C42.8628 13.1314 42.8447 13.1738 42.8689 13.2343L45.1741 18.0262C45.1983 18.0988 45.2104 18.1412 45.2104 18.1533C45.2104 18.2138 45.1862 18.2622 45.1378 18.2985C45.0894 18.3348 45.0289 18.353 44.9563 18.353H41.9069ZM38.7304 8.56942C38.6699 8.56942 38.6396 8.59968 38.6396 8.66018V10.7839C38.6396 10.8444 38.6699 10.8746 38.7304 10.8746H40.4366C40.8238 10.8746 41.1385 10.7718 41.3805 10.5661C41.6225 10.3482 41.7435 10.0699 41.7435 9.7311C41.7435 9.38018 41.6225 9.10186 41.3805 8.89615C41.1385 8.67833 40.8238 8.56942 40.4366 8.56942H38.7304Z" fill="#56CCF2"/>
<path d="M55.5972 8.29716C55.5972 8.38186 55.573 8.44842 55.5246 8.49682C55.4762 8.54522 55.4096 8.56942 55.3249 8.56942H49.8977C49.8372 8.56942 49.8069 8.59968 49.8069 8.66018V10.3664C49.8069 10.4269 49.8372 10.4572 49.8977 10.4572H53.2556C53.3404 10.4572 53.4069 10.4814 53.4553 10.5298C53.5037 10.5782 53.5279 10.6447 53.5279 10.7294V13.0891C53.5279 13.1738 53.5037 13.2403 53.4553 13.2888C53.4069 13.3372 53.3404 13.3614 53.2556 13.3614H49.8977C49.8372 13.3614 49.8069 13.3916 49.8069 13.4521V15.3398C49.8069 15.4003 49.8372 15.4306 49.8977 15.4306H55.3249C55.4096 15.4306 55.4762 15.4548 55.5246 15.5032C55.573 15.5516 55.5972 15.6182 55.5972 15.7029V18.0807C55.5972 18.1654 55.573 18.2319 55.5246 18.2803C55.4762 18.3288 55.4096 18.353 55.3249 18.353H46.6667C46.582 18.353 46.5155 18.3288 46.4671 18.2803C46.4187 18.2319 46.3945 18.1654 46.3945 18.0807V5.91934C46.3945 5.83463 46.4187 5.76808 46.4671 5.71968C46.5155 5.67127 46.582 5.64707 46.6667 5.64707H55.3249C55.4096 5.64707 55.4762 5.67127 55.5246 5.71968C55.573 5.76808 55.5972 5.83463 55.5972 5.91934V8.29716Z" fill="#56CCF2"/>
<defs>
<clipPath id="clip0">
<rect width="24" height="24" fill="white" transform="translate(56.069)"/>
</clipPath>
</defs>
</svg>
