<svg width="80" height="80" viewBox="0 0 80 80" fill="none" xmlns="http://www.w3.org/2000/svg">
<g filter="url(#filter0_dd)">
<path fill-rule="evenodd" clip-rule="evenodd" d="M16 12C16 9.79086 17.7909 8 20 8H60C62.2091 8 64 9.79086 64 12V52C64 54.2091 62.2091 56 60 56H20C17.7909 56 16 54.2091 16 52V12Z" fill="white"/>
<path d="M16.5 12C16.5 10.067 18.067 8.5 20 8.5H60C61.933 8.5 63.5 10.067 63.5 12V52C63.5 53.933 61.933 55.5 60 55.5H20C18.067 55.5 16.5 53.933 16.5 52V12Z" stroke="#E4E4E4" stroke-opacity="0.6"/>
<path d="M36.3501 23.4049L36.3543 23.4066C36.4419 23.0336 36.7601 22.7592 37.1584 22.7592H48.5007C48.515 22.7592 48.5293 22.7533 48.5436 22.7541C48.302 18.7306 44.9267 16.8657 41.9489 16.8657H30.6065C30.2075 16.8657 29.8892 17.1478 29.8025 17.5199L29.7983 17.5182L24.8402 40.282L24.8512 40.2828C24.8394 40.3367 24.8184 40.3881 24.8184 40.4462C24.8184 40.9117 25.1947 41.2805 25.6603 41.2805H32.4554L36.3501 23.4049Z" fill="#1565C0"/>
<path d="M48.5437 22.7539C48.5883 23.4914 48.5395 24.2938 48.3509 25.1803C47.2724 30.2276 43.3735 32.8544 38.5552 32.8544C38.5552 32.8544 35.6337 32.8544 34.924 32.8544C34.4853 32.8544 34.2782 33.112 34.1831 33.309L32.7182 40.0856L32.4614 41.2887H32.4563L31.393 46.1685L31.4039 46.1693C31.3921 46.2232 31.3711 46.2746 31.3711 46.3327C31.3711 46.7982 31.7474 47.1746 32.213 47.1746H38.3868L38.3977 47.1662C38.7951 47.1603 39.1108 46.8765 39.1934 46.5027L39.2085 46.4901L40.7341 39.4045C40.7341 39.4045 40.8401 38.7285 41.5507 38.7285C42.2613 38.7285 45.0683 38.7285 45.0683 38.7285C49.8866 38.7285 53.8251 36.1135 54.9044 31.0653C56.1184 25.374 52.0587 22.775 48.5437 22.7539Z" fill="#039BE5"/>
<path d="M37.1588 22.7589C36.7597 22.7589 36.4415 23.0334 36.3548 23.4063L36.3506 23.4047L34.1826 33.3098C34.2778 33.1128 34.4849 32.8552 34.9235 32.8552C35.6341 32.8552 38.489 32.8552 38.489 32.8552C43.3073 32.8552 47.2719 30.2284 48.3504 25.1811C48.5398 24.2946 48.5878 23.4922 48.5432 22.7547C48.5297 22.753 48.5146 22.7589 48.5011 22.7589H37.1588Z" fill="#283593"/>
</g>
<defs>
<filter id="filter0_dd" x="0" y="0" width="80" height="80" filterUnits="userSpaceOnUse" color-interpolation-filters="sRGB">
<feFlood flood-opacity="0" result="BackgroundImageFix"/>
<feColorMatrix in="SourceAlpha" type="matrix" values="0 0 0 0 0 0 0 0 0 0 0 0 0 0 0 0 0 0 127 0"/>
<feOffset dy="8"/>
<feGaussianBlur stdDeviation="8"/>
<feColorMatrix type="matrix" values="0 0 0 0 0.196487 0 0 0 0 0.196487 0 0 0 0 0.279476 0 0 0 0.06 0"/>
<feBlend mode="multiply" in2="BackgroundImageFix" result="effect1_dropShadow"/>
<feColorMatrix in="SourceAlpha" type="matrix" values="0 0 0 0 0 0 0 0 0 0 0 0 0 0 0 0 0 0 127 0"/>
<feOffset dy="8"/>
<feGaussianBlur stdDeviation="4"/>
<feColorMatrix type="matrix" values="0 0 0 0 0.196487 0 0 0 0 0.196487 0 0 0 0 0.279476 0 0 0 0.08 0"/>
<feBlend mode="multiply" in2="effect1_dropShadow" result="effect2_dropShadow"/>
<feBlend mode="normal" in="SourceGraphic" in2="effect2_dropShadow" result="shape"/>
</filter>
</defs>
</svg>
