<svg width="81" height="80" viewBox="0 0 81 80" fill="none" xmlns="http://www.w3.org/2000/svg">
<g filter="url(#filter0_dd)">
<path fill-rule="evenodd" clip-rule="evenodd" d="M16.0264 12C16.0264 9.79086 17.8172 8 20.0264 8H60.0264C62.2355 8 64.0264 9.79086 64.0264 12V52C64.0264 54.2091 62.2355 56 60.0264 56H20.0264C17.8172 56 16.0264 54.2091 16.0264 52V12Z" fill="white"/>
<path d="M16.5264 12C16.5264 10.067 18.0934 8.5 20.0264 8.5H60.0264C61.9594 8.5 63.5264 10.067 63.5264 12V52C63.5264 53.933 61.9594 55.5 60.0264 55.5H20.0264C18.0934 55.5 16.5264 53.933 16.5264 52V12Z" stroke="#E4E4E4" stroke-opacity="0.6"/>
<path d="M31.0549 25.4624L27.9332 34.773C27.9332 34.773 27.1403 30.8345 27.0618 30.34C25.2846 26.285 22.6621 26.5109 22.6621 26.5109L25.753 38.539V38.5367H29.5107L34.7069 25.4624H31.0549Z" fill="#1565C0"/>
<path d="M34.0312 38.5386H37.4443L39.508 25.4619H36.0522L34.0312 38.5386Z" fill="#1565C0"/>
<path d="M58.1856 25.4619H54.5943L48.9951 38.5386H52.3855L53.0845 36.671H57.3594L57.7232 38.5386H60.8295L58.1856 25.4619ZM54.0308 34.1733L55.8889 29.2316L56.8613 34.1733H54.0308Z" fill="#1565C0"/>
<path d="M44.3501 29.2734C44.3501 28.553 44.9421 28.0168 46.6397 28.0168C47.7429 28.0168 49.0065 28.8181 49.0065 28.8181L49.5605 26.0732C49.5605 26.0732 47.9462 25.4609 46.3615 25.4609C42.7726 25.4609 40.9216 27.1775 40.9216 29.3506C40.9216 33.2808 45.6518 32.7422 45.6518 34.7608C45.6518 35.1067 45.3772 35.9068 43.4074 35.9068C41.4316 35.9068 40.1275 35.1828 40.1275 35.1828L39.5391 37.8172C39.5391 37.8172 40.8027 38.5376 43.2445 38.5376C45.6922 38.5376 49.0874 36.7068 49.0874 34.0773C49.0874 30.9139 44.3501 30.6856 44.3501 29.2734Z" fill="#1565C0"/>
<path d="M27.5202 32.5297L26.3718 26.8854C26.3718 26.8854 25.8523 25.6621 24.5018 25.6621C23.1514 25.6621 19.2236 25.6621 19.2236 25.6621C19.2236 25.6621 25.9533 27.6498 27.5202 32.5297Z" fill="#FFC107"/>
</g>
<defs>
<filter id="filter0_dd" x="0.0263672" y="0" width="80" height="80" filterUnits="userSpaceOnUse" color-interpolation-filters="sRGB">
<feFlood flood-opacity="0" result="BackgroundImageFix"/>
<feColorMatrix in="SourceAlpha" type="matrix" values="0 0 0 0 0 0 0 0 0 0 0 0 0 0 0 0 0 0 127 0"/>
<feOffset dy="8"/>
<feGaussianBlur stdDeviation="8"/>
<feColorMatrix type="matrix" values="0 0 0 0 0.196487 0 0 0 0 0.196487 0 0 0 0 0.279476 0 0 0 0.06 0"/>
<feBlend mode="multiply" in2="BackgroundImageFix" result="effect1_dropShadow"/>
<feColorMatrix in="SourceAlpha" type="matrix" values="0 0 0 0 0 0 0 0 0 0 0 0 0 0 0 0 0 0 127 0"/>
<feOffset dy="8"/>
<feGaussianBlur stdDeviation="4"/>
<feColorMatrix type="matrix" values="0 0 0 0 0.196487 0 0 0 0 0.196487 0 0 0 0 0.279476 0 0 0 0.08 0"/>
<feBlend mode="multiply" in2="effect1_dropShadow" result="effect2_dropShadow"/>
<feBlend mode="normal" in="SourceGraphic" in2="effect2_dropShadow" result="shape"/>
</filter>
</defs>
</svg>
