<svg width="408" height="280" viewBox="0 0 408 280" fill="none" xmlns="http://www.w3.org/2000/svg">
<g filter="url(#filter0_dd)">
<path d="M32 16C32 11.5817 35.5817 8 40 8H368C372.418 8 376 11.5817 376 16V216C376 220.418 372.418 224 368 224H40C35.5817 224 32 220.418 32 216V16Z" fill="#151522"/>
<mask id="mask0" mask-type="alpha" maskUnits="userSpaceOnUse" x="32" y="8" width="344" height="216">
<path d="M32 16C32 11.5817 35.5817 8 40 8H368C372.418 8 376 11.5817 376 16V216C376 220.418 372.418 224 368 224H40C35.5817 224 32 220.418 32 216V16Z" fill="#151522"/>
</mask>
<g mask="url(#mask0)">
<path opacity="0.1" d="M1120.18 194.995C1120.18 191.496 1118.36 188.254 1115.36 186.449C1032.43 136.506 935.336 84.6411 824.696 97.3323C745.072 106.462 692.68 156.805 622.633 181.324C531.644 213.147 460.31 172.507 378.899 145.171C269.04 108.34 133.306 118.356 35.3125 170.525C15.8556 180.908 -3.07101 193.011 -22.1104 204.929C-30.7931 210.364 -26.9221 224.363 -16.6786 224.363H1110.18C1115.7 224.363 1120.18 219.886 1120.18 214.363V194.995Z" fill="white"/>
<path opacity="0.1" d="M749.249 224.33C749.249 224.345 749.234 224.355 749.22 224.348C743.154 221.327 737.089 218.358 731.094 215.389C587.355 145.484 414.383 109.435 242.84 113.504C95.7292 117.044 -46.4087 150.814 -172.089 206.123C-181.79 210.392 -178.667 224.31 -168.068 224.31H749.229C749.24 224.31 749.249 224.319 749.249 224.33Z" fill="white"/>
</g>
<path fill-rule="evenodd" clip-rule="evenodd" d="M308.371 163.316C308.371 161.107 310.162 159.316 312.371 159.316H352.371C354.58 159.316 356.371 161.107 356.371 163.316V203.316C356.371 205.525 354.58 207.316 352.371 207.316H312.371C310.162 207.316 308.371 205.525 308.371 203.316V163.316Z" fill="white"/>
<path d="M308.871 163.316C308.871 161.383 310.438 159.816 312.371 159.816H352.371C354.304 159.816 355.871 161.383 355.871 163.316V203.316C355.871 205.249 354.304 206.816 352.371 206.816H312.371C310.438 206.816 308.871 205.249 308.871 203.316V163.316Z" stroke="#E4E4E4" stroke-opacity="0.6"/>
<circle cx="339.611" cy="183.316" r="11.1276" fill="#F79E1B"/>
<circle cx="325.132" cy="183.316" r="11.1276" fill="#EB001B"/>
<path d="M84.2507 109.354C84.104 109.354 84.0307 109.281 84.0307 109.134L84.0527 106.45C84.0527 106.362 84.016 106.34 83.9427 106.384L81.5007 107.792C81.4713 107.807 81.4347 107.814 81.3907 107.814C81.3027 107.814 81.2367 107.777 81.1927 107.704L80.9287 107.176C80.914 107.147 80.9067 107.11 80.9067 107.066C80.9067 106.978 80.9433 106.912 81.0167 106.868L83.4367 105.526C83.466 105.511 83.4807 105.489 83.4807 105.46C83.4807 105.431 83.466 105.409 83.4367 105.394L81.0167 104.052C80.958 104.023 80.9213 103.979 80.9067 103.92C80.892 103.861 80.8993 103.803 80.9287 103.744L81.1927 103.216C81.222 103.157 81.266 103.121 81.3247 103.106C81.3833 103.091 81.442 103.099 81.5007 103.128L83.9427 104.536C84.016 104.565 84.0527 104.543 84.0527 104.47L84.0307 101.786C84.0307 101.639 84.104 101.566 84.2507 101.566H84.8447C84.9913 101.566 85.0647 101.639 85.0647 101.786L85.0427 104.47C85.0427 104.543 85.0793 104.565 85.1527 104.536L87.5947 103.128C87.624 103.113 87.6607 103.106 87.7047 103.106C87.7927 103.106 87.8587 103.143 87.9027 103.216L88.1667 103.744C88.1813 103.773 88.1887 103.81 88.1887 103.854C88.1887 103.942 88.152 104.008 88.0787 104.052L85.6367 105.394C85.622 105.409 85.6147 105.431 85.6147 105.46C85.6147 105.489 85.622 105.511 85.6367 105.526L88.0787 106.868C88.1373 106.897 88.174 106.941 88.1887 107C88.2033 107.059 88.196 107.117 88.1667 107.176L87.9027 107.704C87.8733 107.763 87.8293 107.799 87.7707 107.814C87.712 107.829 87.6533 107.821 87.5947 107.792L85.1527 106.384C85.0793 106.34 85.0427 106.362 85.0427 106.45L85.0647 109.134C85.0647 109.281 84.9913 109.354 84.8447 109.354H84.2507ZM97.3991 109.354C97.2524 109.354 97.1791 109.281 97.1791 109.134L97.2011 106.45C97.2011 106.362 97.1644 106.34 97.0911 106.384L94.6491 107.792C94.6198 107.807 94.5831 107.814 94.5391 107.814C94.4511 107.814 94.3851 107.777 94.3411 107.704L94.0771 107.176C94.0624 107.147 94.0551 107.11 94.0551 107.066C94.0551 106.978 94.0918 106.912 94.1651 106.868L96.5851 105.526C96.6144 105.511 96.6291 105.489 96.6291 105.46C96.6291 105.431 96.6144 105.409 96.5851 105.394L94.1651 104.052C94.1064 104.023 94.0698 103.979 94.0551 103.92C94.0404 103.861 94.0478 103.803 94.0771 103.744L94.3411 103.216C94.3704 103.157 94.4144 103.121 94.4731 103.106C94.5318 103.091 94.5904 103.099 94.6491 103.128L97.0911 104.536C97.1644 104.565 97.2011 104.543 97.2011 104.47L97.1791 101.786C97.1791 101.639 97.2524 101.566 97.3991 101.566H97.9931C98.1398 101.566 98.2131 101.639 98.2131 101.786L98.1911 104.47C98.1911 104.543 98.2278 104.565 98.3011 104.536L100.743 103.128C100.772 103.113 100.809 103.106 100.853 103.106C100.941 103.106 101.007 103.143 101.051 103.216L101.315 103.744C101.33 103.773 101.337 103.81 101.337 103.854C101.337 103.942 101.3 104.008 101.227 104.052L98.7851 105.394C98.7704 105.409 98.7631 105.431 98.7631 105.46C98.7631 105.489 98.7704 105.511 98.7851 105.526L101.227 106.868C101.286 106.897 101.322 106.941 101.337 107C101.352 107.059 101.344 107.117 101.315 107.176L101.051 107.704C101.022 107.763 100.978 107.799 100.919 107.814C100.86 107.829 100.802 107.821 100.743 107.792L98.3011 106.384C98.2278 106.34 98.1911 106.362 98.1911 106.45L98.2131 109.134C98.2131 109.281 98.1398 109.354 97.9931 109.354H97.3991ZM110.548 109.354C110.401 109.354 110.328 109.281 110.328 109.134L110.35 106.45C110.35 106.362 110.313 106.34 110.24 106.384L107.798 107.792C107.768 107.807 107.732 107.814 107.688 107.814C107.6 107.814 107.534 107.777 107.49 107.704L107.226 107.176C107.211 107.147 107.204 107.11 107.204 107.066C107.204 106.978 107.24 106.912 107.314 106.868L109.734 105.526C109.763 105.511 109.778 105.489 109.778 105.46C109.778 105.431 109.763 105.409 109.734 105.394L107.314 104.052C107.255 104.023 107.218 103.979 107.204 103.92C107.189 103.861 107.196 103.803 107.226 103.744L107.49 103.216C107.519 103.157 107.563 103.121 107.622 103.106C107.68 103.091 107.739 103.099 107.798 103.128L110.24 104.536C110.313 104.565 110.35 104.543 110.35 104.47L110.328 101.786C110.328 101.639 110.401 101.566 110.548 101.566H111.142C111.288 101.566 111.362 101.639 111.362 101.786L111.34 104.47C111.34 104.543 111.376 104.565 111.45 104.536L113.892 103.128C113.921 103.113 113.958 103.106 114.002 103.106C114.09 103.106 114.156 103.143 114.2 103.216L114.464 103.744C114.478 103.773 114.486 103.81 114.486 103.854C114.486 103.942 114.449 104.008 114.376 104.052L111.934 105.394C111.919 105.409 111.912 105.431 111.912 105.46C111.912 105.489 111.919 105.511 111.934 105.526L114.376 106.868C114.434 106.897 114.471 106.941 114.486 107C114.5 107.059 114.493 107.117 114.464 107.176L114.2 107.704C114.17 107.763 114.126 107.799 114.068 107.814C114.009 107.829 113.95 107.821 113.892 107.792L111.45 106.384C111.376 106.34 111.34 106.362 111.34 106.45L111.362 109.134C111.362 109.281 111.288 109.354 111.142 109.354H110.548ZM123.696 109.354C123.549 109.354 123.476 109.281 123.476 109.134L123.498 106.45C123.498 106.362 123.461 106.34 123.388 106.384L120.946 107.792C120.917 107.807 120.88 107.814 120.836 107.814C120.748 107.814 120.682 107.777 120.638 107.704L120.374 107.176C120.359 107.147 120.352 107.11 120.352 107.066C120.352 106.978 120.389 106.912 120.462 106.868L122.882 105.526C122.911 105.511 122.926 105.489 122.926 105.46C122.926 105.431 122.911 105.409 122.882 105.394L120.462 104.052C120.403 104.023 120.367 103.979 120.352 103.92C120.337 103.861 120.345 103.803 120.374 103.744L120.638 103.216C120.667 103.157 120.711 103.121 120.77 103.106C120.829 103.091 120.887 103.099 120.946 103.128L123.388 104.536C123.461 104.565 123.498 104.543 123.498 104.47L123.476 101.786C123.476 101.639 123.549 101.566 123.696 101.566H124.29C124.437 101.566 124.51 101.639 124.51 101.786L124.488 104.47C124.488 104.543 124.525 104.565 124.598 104.536L127.04 103.128C127.069 103.113 127.106 103.106 127.15 103.106C127.238 103.106 127.304 103.143 127.348 103.216L127.612 103.744C127.627 103.773 127.634 103.81 127.634 103.854C127.634 103.942 127.597 104.008 127.524 104.052L125.082 105.394C125.067 105.409 125.06 105.431 125.06 105.46C125.06 105.489 125.067 105.511 125.082 105.526L127.524 106.868C127.583 106.897 127.619 106.941 127.634 107C127.649 107.059 127.641 107.117 127.612 107.176L127.348 107.704C127.319 107.763 127.275 107.799 127.216 107.814C127.157 107.829 127.099 107.821 127.04 107.792L124.598 106.384C124.525 106.34 124.488 106.362 124.488 106.45L124.51 109.134C124.51 109.281 124.437 109.354 124.29 109.354H123.696ZM141.249 109.354C141.102 109.354 141.029 109.281 141.029 109.134L141.051 106.45C141.051 106.362 141.014 106.34 140.941 106.384L138.499 107.792C138.469 107.807 138.433 107.814 138.389 107.814C138.301 107.814 138.235 107.777 138.191 107.704L137.927 107.176C137.912 107.147 137.905 107.11 137.905 107.066C137.905 106.978 137.941 106.912 138.015 106.868L140.435 105.526C140.464 105.511 140.479 105.489 140.479 105.46C140.479 105.431 140.464 105.409 140.435 105.394L138.015 104.052C137.956 104.023 137.919 103.979 137.905 103.92C137.89 103.861 137.897 103.803 137.927 103.744L138.191 103.216C138.22 103.157 138.264 103.121 138.323 103.106C138.381 103.091 138.44 103.099 138.499 103.128L140.941 104.536C141.014 104.565 141.051 104.543 141.051 104.47L141.029 101.786C141.029 101.639 141.102 101.566 141.249 101.566H141.843C141.989 101.566 142.063 101.639 142.063 101.786L142.041 104.47C142.041 104.543 142.077 104.565 142.151 104.536L144.593 103.128C144.622 103.113 144.659 103.106 144.703 103.106C144.791 103.106 144.857 103.143 144.901 103.216L145.165 103.744C145.179 103.773 145.187 103.81 145.187 103.854C145.187 103.942 145.15 104.008 145.077 104.052L142.635 105.394C142.62 105.409 142.613 105.431 142.613 105.46C142.613 105.489 142.62 105.511 142.635 105.526L145.077 106.868C145.135 106.897 145.172 106.941 145.187 107C145.201 107.059 145.194 107.117 145.165 107.176L144.901 107.704C144.871 107.763 144.827 107.799 144.769 107.814C144.71 107.829 144.651 107.821 144.593 107.792L142.151 106.384C142.077 106.34 142.041 106.362 142.041 106.45L142.063 109.134C142.063 109.281 141.989 109.354 141.843 109.354H141.249ZM154.397 109.354C154.25 109.354 154.177 109.281 154.177 109.134L154.199 106.45C154.199 106.362 154.162 106.34 154.089 106.384L151.647 107.792C151.618 107.807 151.581 107.814 151.537 107.814C151.449 107.814 151.383 107.777 151.339 107.704L151.075 107.176C151.06 107.147 151.053 107.11 151.053 107.066C151.053 106.978 151.09 106.912 151.163 106.868L153.583 105.526C153.612 105.511 153.627 105.489 153.627 105.46C153.627 105.431 153.612 105.409 153.583 105.394L151.163 104.052C151.104 104.023 151.068 103.979 151.053 103.92C151.038 103.861 151.046 103.803 151.075 103.744L151.339 103.216C151.368 103.157 151.412 103.121 151.471 103.106C151.53 103.091 151.588 103.099 151.647 103.128L154.089 104.536C154.162 104.565 154.199 104.543 154.199 104.47L154.177 101.786C154.177 101.639 154.25 101.566 154.397 101.566H154.991C155.138 101.566 155.211 101.639 155.211 101.786L155.189 104.47C155.189 104.543 155.226 104.565 155.299 104.536L157.741 103.128C157.77 103.113 157.807 103.106 157.851 103.106C157.939 103.106 158.005 103.143 158.049 103.216L158.313 103.744C158.328 103.773 158.335 103.81 158.335 103.854C158.335 103.942 158.298 104.008 158.225 104.052L155.783 105.394C155.768 105.409 155.761 105.431 155.761 105.46C155.761 105.489 155.768 105.511 155.783 105.526L158.225 106.868C158.284 106.897 158.32 106.941 158.335 107C158.35 107.059 158.342 107.117 158.313 107.176L158.049 107.704C158.02 107.763 157.976 107.799 157.917 107.814C157.858 107.829 157.8 107.821 157.741 107.792L155.299 106.384C155.226 106.34 155.189 106.362 155.189 106.45L155.211 109.134C155.211 109.281 155.138 109.354 154.991 109.354H154.397ZM167.546 109.354C167.399 109.354 167.326 109.281 167.326 109.134L167.348 106.45C167.348 106.362 167.311 106.34 167.238 106.384L164.796 107.792C164.766 107.807 164.73 107.814 164.686 107.814C164.598 107.814 164.532 107.777 164.488 107.704L164.224 107.176C164.209 107.147 164.202 107.11 164.202 107.066C164.202 106.978 164.238 106.912 164.312 106.868L166.732 105.526C166.761 105.511 166.776 105.489 166.776 105.46C166.776 105.431 166.761 105.409 166.732 105.394L164.312 104.052C164.253 104.023 164.216 103.979 164.202 103.92C164.187 103.861 164.194 103.803 164.224 103.744L164.488 103.216C164.517 103.157 164.561 103.121 164.62 103.106C164.678 103.091 164.737 103.099 164.796 103.128L167.238 104.536C167.311 104.565 167.348 104.543 167.348 104.47L167.326 101.786C167.326 101.639 167.399 101.566 167.546 101.566H168.14C168.286 101.566 168.36 101.639 168.36 101.786L168.338 104.47C168.338 104.543 168.374 104.565 168.448 104.536L170.89 103.128C170.919 103.113 170.956 103.106 171 103.106C171.088 103.106 171.154 103.143 171.198 103.216L171.462 103.744C171.476 103.773 171.484 103.81 171.484 103.854C171.484 103.942 171.447 104.008 171.374 104.052L168.932 105.394C168.917 105.409 168.91 105.431 168.91 105.46C168.91 105.489 168.917 105.511 168.932 105.526L171.374 106.868C171.432 106.897 171.469 106.941 171.484 107C171.498 107.059 171.491 107.117 171.462 107.176L171.198 107.704C171.168 107.763 171.124 107.799 171.066 107.814C171.007 107.829 170.948 107.821 170.89 107.792L168.448 106.384C168.374 106.34 168.338 106.362 168.338 106.45L168.36 109.134C168.36 109.281 168.286 109.354 168.14 109.354H167.546ZM180.694 109.354C180.547 109.354 180.474 109.281 180.474 109.134L180.496 106.45C180.496 106.362 180.459 106.34 180.386 106.384L177.944 107.792C177.915 107.807 177.878 107.814 177.834 107.814C177.746 107.814 177.68 107.777 177.636 107.704L177.372 107.176C177.357 107.147 177.35 107.11 177.35 107.066C177.35 106.978 177.387 106.912 177.46 106.868L179.88 105.526C179.909 105.511 179.924 105.489 179.924 105.46C179.924 105.431 179.909 105.409 179.88 105.394L177.46 104.052C177.401 104.023 177.365 103.979 177.35 103.92C177.335 103.861 177.343 103.803 177.372 103.744L177.636 103.216C177.665 103.157 177.709 103.121 177.768 103.106C177.827 103.091 177.885 103.099 177.944 103.128L180.386 104.536C180.459 104.565 180.496 104.543 180.496 104.47L180.474 101.786C180.474 101.639 180.547 101.566 180.694 101.566H181.288C181.435 101.566 181.508 101.639 181.508 101.786L181.486 104.47C181.486 104.543 181.523 104.565 181.596 104.536L184.038 103.128C184.067 103.113 184.104 103.106 184.148 103.106C184.236 103.106 184.302 103.143 184.346 103.216L184.61 103.744C184.625 103.773 184.632 103.81 184.632 103.854C184.632 103.942 184.595 104.008 184.522 104.052L182.08 105.394C182.065 105.409 182.058 105.431 182.058 105.46C182.058 105.489 182.065 105.511 182.08 105.526L184.522 106.868C184.581 106.897 184.617 106.941 184.632 107C184.647 107.059 184.639 107.117 184.61 107.176L184.346 107.704C184.317 107.763 184.273 107.799 184.214 107.814C184.155 107.829 184.097 107.821 184.038 107.792L181.596 106.384C181.523 106.34 181.486 106.362 181.486 106.45L181.508 109.134C181.508 109.281 181.435 109.354 181.288 109.354H180.694ZM198.247 109.354C198.1 109.354 198.027 109.281 198.027 109.134L198.049 106.45C198.049 106.362 198.012 106.34 197.939 106.384L195.497 107.792C195.467 107.807 195.431 107.814 195.387 107.814C195.299 107.814 195.233 107.777 195.189 107.704L194.925 107.176C194.91 107.147 194.903 107.11 194.903 107.066C194.903 106.978 194.939 106.912 195.013 106.868L197.433 105.526C197.462 105.511 197.477 105.489 197.477 105.46C197.477 105.431 197.462 105.409 197.433 105.394L195.013 104.052C194.954 104.023 194.917 103.979 194.903 103.92C194.888 103.861 194.895 103.803 194.925 103.744L195.189 103.216C195.218 103.157 195.262 103.121 195.321 103.106C195.379 103.091 195.438 103.099 195.497 103.128L197.939 104.536C198.012 104.565 198.049 104.543 198.049 104.47L198.027 101.786C198.027 101.639 198.1 101.566 198.247 101.566H198.841C198.987 101.566 199.061 101.639 199.061 101.786L199.039 104.47C199.039 104.543 199.075 104.565 199.149 104.536L201.591 103.128C201.62 103.113 201.657 103.106 201.701 103.106C201.789 103.106 201.855 103.143 201.899 103.216L202.163 103.744C202.177 103.773 202.185 103.81 202.185 103.854C202.185 103.942 202.148 104.008 202.075 104.052L199.633 105.394C199.618 105.409 199.611 105.431 199.611 105.46C199.611 105.489 199.618 105.511 199.633 105.526L202.075 106.868C202.133 106.897 202.17 106.941 202.185 107C202.199 107.059 202.192 107.117 202.163 107.176L201.899 107.704C201.869 107.763 201.825 107.799 201.767 107.814C201.708 107.829 201.649 107.821 201.591 107.792L199.149 106.384C199.075 106.34 199.039 106.362 199.039 106.45L199.061 109.134C199.061 109.281 198.987 109.354 198.841 109.354H198.247ZM211.395 109.354C211.249 109.354 211.175 109.281 211.175 109.134L211.197 106.45C211.197 106.362 211.161 106.34 211.087 106.384L208.645 107.792C208.616 107.807 208.579 107.814 208.535 107.814C208.447 107.814 208.381 107.777 208.337 107.704L208.073 107.176C208.059 107.147 208.051 107.11 208.051 107.066C208.051 106.978 208.088 106.912 208.161 106.868L210.581 105.526C210.611 105.511 210.625 105.489 210.625 105.46C210.625 105.431 210.611 105.409 210.581 105.394L208.161 104.052C208.103 104.023 208.066 103.979 208.051 103.92C208.037 103.861 208.044 103.803 208.073 103.744L208.337 103.216C208.367 103.157 208.411 103.121 208.469 103.106C208.528 103.091 208.587 103.099 208.645 103.128L211.087 104.536C211.161 104.565 211.197 104.543 211.197 104.47L211.175 101.786C211.175 101.639 211.249 101.566 211.395 101.566H211.989C212.136 101.566 212.209 101.639 212.209 101.786L212.187 104.47C212.187 104.543 212.224 104.565 212.297 104.536L214.739 103.128C214.769 103.113 214.805 103.106 214.849 103.106C214.937 103.106 215.003 103.143 215.047 103.216L215.311 103.744C215.326 103.773 215.333 103.81 215.333 103.854C215.333 103.942 215.297 104.008 215.223 104.052L212.781 105.394C212.767 105.409 212.759 105.431 212.759 105.46C212.759 105.489 212.767 105.511 212.781 105.526L215.223 106.868C215.282 106.897 215.319 106.941 215.333 107C215.348 107.059 215.341 107.117 215.311 107.176L215.047 107.704C215.018 107.763 214.974 107.799 214.915 107.814C214.857 107.829 214.798 107.821 214.739 107.792L212.297 106.384C212.224 106.34 212.187 106.362 212.187 106.45L212.209 109.134C212.209 109.281 212.136 109.354 211.989 109.354H211.395ZM224.544 109.354C224.397 109.354 224.324 109.281 224.324 109.134L224.346 106.45C224.346 106.362 224.309 106.34 224.236 106.384L221.794 107.792C221.764 107.807 221.728 107.814 221.684 107.814C221.596 107.814 221.53 107.777 221.486 107.704L221.222 107.176C221.207 107.147 221.2 107.11 221.2 107.066C221.2 106.978 221.236 106.912 221.31 106.868L223.73 105.526C223.759 105.511 223.774 105.489 223.774 105.46C223.774 105.431 223.759 105.409 223.73 105.394L221.31 104.052C221.251 104.023 221.214 103.979 221.2 103.92C221.185 103.861 221.192 103.803 221.222 103.744L221.486 103.216C221.515 103.157 221.559 103.121 221.618 103.106C221.676 103.091 221.735 103.099 221.794 103.128L224.236 104.536C224.309 104.565 224.346 104.543 224.346 104.47L224.324 101.786C224.324 101.639 224.397 101.566 224.544 101.566H225.138C225.284 101.566 225.358 101.639 225.358 101.786L225.336 104.47C225.336 104.543 225.372 104.565 225.446 104.536L227.888 103.128C227.917 103.113 227.954 103.106 227.998 103.106C228.086 103.106 228.152 103.143 228.196 103.216L228.46 103.744C228.474 103.773 228.482 103.81 228.482 103.854C228.482 103.942 228.445 104.008 228.372 104.052L225.93 105.394C225.915 105.409 225.908 105.431 225.908 105.46C225.908 105.489 225.915 105.511 225.93 105.526L228.372 106.868C228.43 106.897 228.467 106.941 228.482 107C228.496 107.059 228.489 107.117 228.46 107.176L228.196 107.704C228.166 107.763 228.122 107.799 228.064 107.814C228.005 107.829 227.946 107.821 227.888 107.792L225.446 106.384C225.372 106.34 225.336 106.362 225.336 106.45L225.358 109.134C225.358 109.281 225.284 109.354 225.138 109.354H224.544ZM237.692 109.354C237.545 109.354 237.472 109.281 237.472 109.134L237.494 106.45C237.494 106.362 237.457 106.34 237.384 106.384L234.942 107.792C234.913 107.807 234.876 107.814 234.832 107.814C234.744 107.814 234.678 107.777 234.634 107.704L234.37 107.176C234.355 107.147 234.348 107.11 234.348 107.066C234.348 106.978 234.385 106.912 234.458 106.868L236.878 105.526C236.907 105.511 236.922 105.489 236.922 105.46C236.922 105.431 236.907 105.409 236.878 105.394L234.458 104.052C234.399 104.023 234.363 103.979 234.348 103.92C234.333 103.861 234.341 103.803 234.37 103.744L234.634 103.216C234.663 103.157 234.707 103.121 234.766 103.106C234.825 103.091 234.883 103.099 234.942 103.128L237.384 104.536C237.457 104.565 237.494 104.543 237.494 104.47L237.472 101.786C237.472 101.639 237.545 101.566 237.692 101.566H238.286C238.433 101.566 238.506 101.639 238.506 101.786L238.484 104.47C238.484 104.543 238.521 104.565 238.594 104.536L241.036 103.128C241.065 103.113 241.102 103.106 241.146 103.106C241.234 103.106 241.3 103.143 241.344 103.216L241.608 103.744C241.623 103.773 241.63 103.81 241.63 103.854C241.63 103.942 241.593 104.008 241.52 104.052L239.078 105.394C239.063 105.409 239.056 105.431 239.056 105.46C239.056 105.489 239.063 105.511 239.078 105.526L241.52 106.868C241.579 106.897 241.615 106.941 241.63 107C241.645 107.059 241.637 107.117 241.608 107.176L241.344 107.704C241.315 107.763 241.271 107.799 241.212 107.814C241.153 107.829 241.095 107.821 241.036 107.792L238.594 106.384C238.521 106.34 238.484 106.362 238.484 106.45L238.506 109.134C238.506 109.281 238.433 109.354 238.286 109.354H237.692ZM260.635 110.718C260.928 111.437 261.075 112.295 261.075 113.292C261.075 114.099 260.965 114.81 260.745 115.426C260.451 116.306 259.953 116.988 259.249 117.472C258.559 117.941 257.701 118.176 256.675 118.176C255.648 118.176 254.768 117.912 254.035 117.384C253.301 116.841 252.795 116.115 252.517 115.206C252.385 114.795 252.304 114.238 252.275 113.534C252.275 113.387 252.348 113.314 252.495 113.314H253.617C253.763 113.314 253.837 113.387 253.837 113.534C253.866 113.959 253.917 114.355 253.991 114.722C254.152 115.367 254.46 115.881 254.915 116.262C255.384 116.629 255.963 116.812 256.653 116.812C257.973 116.812 258.831 116.225 259.227 115.052C259.403 114.568 259.491 113.967 259.491 113.248C259.491 112.368 259.373 111.649 259.139 111.092C258.669 110.036 257.841 109.508 256.653 109.508C256.433 109.508 256.161 109.589 255.839 109.75C255.78 109.779 255.736 109.794 255.707 109.794C255.648 109.794 255.597 109.757 255.553 109.684L254.981 108.914C254.907 108.797 254.915 108.694 255.003 108.606L258.875 104.074C258.919 104.001 258.904 103.964 258.831 103.964H252.627C252.48 103.964 252.407 103.891 252.407 103.744V102.82C252.407 102.673 252.48 102.6 252.627 102.6H260.767C260.913 102.6 260.987 102.673 260.987 102.82V103.898C260.987 103.971 260.95 104.059 260.877 104.162L257.357 108.386C257.327 108.415 257.32 108.445 257.335 108.474C257.349 108.489 257.379 108.496 257.423 108.496C258.992 108.599 260.063 109.339 260.635 110.718ZM272.265 105.306C272.441 105.893 272.529 106.582 272.529 107.374V114.238C272.529 115.441 272.133 116.401 271.341 117.12C270.549 117.824 269.515 118.176 268.239 118.176C267.007 118.176 266.002 117.831 265.225 117.142C264.462 116.438 264.081 115.529 264.081 114.414V114.106C264.081 113.959 264.154 113.886 264.301 113.886H265.423C265.57 113.886 265.643 113.959 265.643 114.106V114.282C265.643 115.03 265.885 115.639 266.369 116.108C266.853 116.577 267.476 116.812 268.239 116.812C269.031 116.812 269.684 116.57 270.197 116.086C270.71 115.587 270.967 114.935 270.967 114.128V110.916C270.967 110.887 270.952 110.872 270.923 110.872C270.894 110.857 270.872 110.865 270.857 110.894C270.212 111.759 269.244 112.192 267.953 112.192C267.029 112.192 266.252 111.987 265.621 111.576C265.005 111.165 264.536 110.586 264.213 109.838C263.905 109.222 263.751 108.386 263.751 107.33C263.751 106.435 263.861 105.702 264.081 105.13C264.389 104.279 264.88 103.619 265.555 103.15C266.244 102.681 267.088 102.446 268.085 102.446C269.141 102.446 270.028 102.703 270.747 103.216C271.48 103.715 271.986 104.411 272.265 105.306ZM268.151 110.828C268.796 110.828 269.339 110.674 269.779 110.366C270.234 110.043 270.549 109.603 270.725 109.046C270.886 108.621 270.967 108.027 270.967 107.264C270.967 106.633 270.901 106.098 270.769 105.658C270.593 105.101 270.278 104.653 269.823 104.316C269.368 103.979 268.811 103.81 268.151 103.81C267.52 103.81 266.978 103.971 266.523 104.294C266.068 104.602 265.746 105.057 265.555 105.658C265.394 106.069 265.313 106.626 265.313 107.33C265.313 108.078 265.408 108.665 265.599 109.09C265.775 109.618 266.083 110.043 266.523 110.366C266.963 110.674 267.506 110.828 268.151 110.828ZM284.53 112.346C284.676 112.346 284.75 112.419 284.75 112.566V113.534C284.75 113.681 284.676 113.754 284.53 113.754H283.584C283.525 113.754 283.496 113.783 283.496 113.842V117.78C283.496 117.927 283.422 118 283.276 118H282.154C282.007 118 281.934 117.927 281.934 117.78V113.842C281.934 113.783 281.904 113.754 281.846 113.754H275.268C275.121 113.754 275.048 113.681 275.048 113.534V112.72C275.048 112.647 275.07 112.559 275.114 112.456L279.624 102.754C279.668 102.651 279.748 102.6 279.866 102.6H281.032C281.105 102.6 281.156 102.629 281.186 102.688C281.23 102.732 281.237 102.791 281.208 102.864L276.83 112.236C276.815 112.265 276.815 112.295 276.83 112.324C276.844 112.339 276.866 112.346 276.896 112.346H281.846C281.904 112.346 281.934 112.317 281.934 112.258V108.716C281.934 108.569 282.007 108.496 282.154 108.496H283.276C283.422 108.496 283.496 108.569 283.496 108.716V112.258C283.496 112.317 283.525 112.346 283.584 112.346H284.53ZM288.743 118C288.67 118 288.611 117.978 288.567 117.934C288.538 117.875 288.538 117.809 288.567 117.736L293.649 104.074C293.664 104.045 293.664 104.023 293.649 104.008C293.634 103.979 293.612 103.964 293.583 103.964H287.643C287.584 103.964 287.555 103.993 287.555 104.052V105.064C287.555 105.211 287.482 105.284 287.335 105.284H286.433C286.286 105.284 286.213 105.211 286.213 105.064L286.235 102.82C286.235 102.673 286.308 102.6 286.455 102.6H295.123C295.27 102.6 295.343 102.673 295.343 102.82V103.832C295.343 103.891 295.328 103.979 295.299 104.096L290.239 117.824C290.195 117.941 290.107 118 289.975 118H288.743Z" fill="white"/>
<path d="M64.377 171.099C63.8637 171.099 63.4127 171 63.024 170.802C62.6353 170.597 62.331 170.311 62.111 169.944C61.8983 169.57 61.792 169.141 61.792 168.657V165.632C61.792 165.155 61.8983 164.734 62.111 164.367C62.331 164 62.6353 163.718 63.024 163.52C63.4127 163.315 63.8637 163.212 64.377 163.212C64.8903 163.212 65.3413 163.311 65.73 163.509C66.1187 163.707 66.4193 163.986 66.632 164.345C66.852 164.704 66.962 165.119 66.962 165.588C66.962 165.625 66.951 165.654 66.929 165.676C66.907 165.698 66.8813 165.709 66.852 165.709L66.291 165.742C66.2177 165.742 66.181 165.709 66.181 165.643V165.61C66.181 165.089 66.016 164.675 65.686 164.367C65.356 164.052 64.9197 163.894 64.377 163.894C63.8343 163.894 63.398 164.052 63.068 164.367C62.738 164.682 62.573 165.097 62.573 165.61V168.69C62.573 169.203 62.738 169.618 63.068 169.933C63.398 170.248 63.8343 170.406 64.377 170.406C64.9197 170.406 65.356 170.252 65.686 169.944C66.016 169.629 66.181 169.211 66.181 168.69V168.668C66.181 168.602 66.2177 168.569 66.291 168.569L66.852 168.602C66.9253 168.602 66.962 168.635 66.962 168.701C66.962 169.178 66.852 169.599 66.632 169.966C66.4193 170.325 66.1187 170.604 65.73 170.802C65.3413 171 64.8903 171.099 64.377 171.099ZM70.4114 165.346C71.0714 165.346 71.5811 165.515 71.9404 165.852C72.2998 166.189 72.4794 166.637 72.4794 167.194V170.89C72.4794 170.963 72.4428 171 72.3694 171H71.8084C71.7351 171 71.6984 170.963 71.6984 170.89V170.439C71.6984 170.424 71.6911 170.413 71.6764 170.406C71.6691 170.399 71.6581 170.402 71.6434 170.417C71.4601 170.637 71.2218 170.806 70.9284 170.923C70.6351 171.033 70.3088 171.088 69.9494 171.088C69.4288 171.088 68.9924 170.956 68.6404 170.692C68.2884 170.428 68.1124 170.025 68.1124 169.482C68.1124 168.932 68.3104 168.499 68.7064 168.184C69.1098 167.861 69.6671 167.7 70.3784 167.7H71.6544C71.6838 167.7 71.6984 167.685 71.6984 167.656V167.238C71.6984 166.864 71.5921 166.571 71.3794 166.358C71.1741 166.138 70.8514 166.028 70.4114 166.028C70.0594 166.028 69.7734 166.098 69.5534 166.237C69.3334 166.369 69.1978 166.556 69.1464 166.798C69.1244 166.871 69.0804 166.904 69.0144 166.897L68.4204 166.82C68.3398 166.805 68.3068 166.776 68.3214 166.732C68.3801 166.321 68.6001 165.988 68.9814 165.731C69.3628 165.474 69.8394 165.346 70.4114 165.346ZM70.1034 170.417C70.5361 170.417 70.9101 170.311 71.2254 170.098C71.5408 169.878 71.6984 169.585 71.6984 169.218V168.36C71.6984 168.331 71.6838 168.316 71.6544 168.316H70.4994C70.0154 168.316 69.6268 168.415 69.3334 168.613C69.0401 168.811 68.8934 169.086 68.8934 169.438C68.8934 169.761 69.0034 170.006 69.2234 170.175C69.4508 170.336 69.7441 170.417 70.1034 170.417ZM76.3486 165.379C76.5906 165.379 76.7996 165.427 76.9756 165.522C77.0343 165.551 77.0563 165.599 77.0416 165.665L76.9206 166.204C76.8986 166.277 76.8509 166.299 76.7776 166.27C76.6529 166.219 76.5099 166.193 76.3486 166.193L76.2056 166.204C75.8243 166.219 75.5089 166.362 75.2596 166.633C75.0103 166.897 74.8856 167.234 74.8856 167.645V170.89C74.8856 170.963 74.8489 171 74.7756 171H74.2146C74.1413 171 74.1046 170.963 74.1046 170.89V165.544C74.1046 165.471 74.1413 165.434 74.2146 165.434H74.7756C74.8489 165.434 74.8856 165.471 74.8856 165.544V166.215C74.8856 166.237 74.8893 166.252 74.8966 166.259C74.9113 166.259 74.9223 166.252 74.9296 166.237C75.0836 165.966 75.2779 165.757 75.5126 165.61C75.7546 165.456 76.0333 165.379 76.3486 165.379ZM81.5117 163.41C81.5117 163.337 81.5484 163.3 81.6217 163.3H82.1827C82.2561 163.3 82.2927 163.337 82.2927 163.41V170.89C82.2927 170.963 82.2561 171 82.1827 171H81.6217C81.5484 171 81.5117 170.963 81.5117 170.89V170.428C81.5117 170.413 81.5044 170.406 81.4897 170.406C81.4824 170.399 81.4714 170.402 81.4567 170.417C81.2954 170.63 81.0937 170.795 80.8517 170.912C80.6171 171.029 80.3531 171.088 80.0597 171.088C79.5464 171.088 79.1137 170.956 78.7617 170.692C78.4171 170.428 78.1787 170.069 78.0467 169.614C77.9441 169.284 77.8927 168.818 77.8927 168.217C77.8927 167.608 77.9367 167.154 78.0247 166.853C78.1567 166.384 78.3987 166.017 78.7507 165.753C79.1027 165.482 79.5391 165.346 80.0597 165.346C80.3457 165.346 80.6097 165.405 80.8517 165.522C81.0937 165.632 81.2954 165.793 81.4567 166.006C81.4714 166.021 81.4824 166.028 81.4897 166.028C81.5044 166.021 81.5117 166.01 81.5117 165.995V163.41ZM81.3137 169.559C81.3797 169.412 81.4274 169.24 81.4567 169.042C81.4861 168.844 81.5007 168.569 81.5007 168.217C81.5007 167.865 81.4861 167.59 81.4567 167.392C81.4274 167.187 81.3761 167.007 81.3027 166.853C81.2147 166.604 81.0681 166.406 80.8627 166.259C80.6647 166.105 80.4264 166.028 80.1477 166.028C79.8544 166.028 79.6014 166.101 79.3887 166.248C79.1761 166.395 79.0221 166.589 78.9267 166.831C78.8387 166.992 78.7727 167.176 78.7287 167.381C78.6921 167.579 78.6737 167.858 78.6737 168.217C78.6737 168.562 78.6884 168.833 78.7177 169.031C78.7471 169.222 78.7984 169.394 78.8717 169.548C78.9597 169.812 79.1137 170.021 79.3337 170.175C79.5611 170.329 79.8287 170.406 80.1367 170.406C80.4301 170.406 80.6757 170.329 80.8737 170.175C81.0717 170.021 81.2184 169.816 81.3137 169.559ZM90.7968 163.41C90.7968 163.337 90.8334 163.3 90.9068 163.3H91.4678C91.5411 163.3 91.5778 163.337 91.5778 163.41V170.89C91.5778 170.963 91.5411 171 91.4678 171H90.9068C90.8334 171 90.7968 170.963 90.7968 170.89V167.513C90.7968 167.484 90.7821 167.469 90.7528 167.469H87.2438C87.2144 167.469 87.1998 167.484 87.1998 167.513V170.89C87.1998 170.963 87.1631 171 87.0898 171H86.5288C86.4554 171 86.4188 170.963 86.4188 170.89V163.41C86.4188 163.337 86.4554 163.3 86.5288 163.3H87.0898C87.1631 163.3 87.1998 163.337 87.1998 163.41V166.743C87.1998 166.772 87.2144 166.787 87.2438 166.787H90.7528C90.7821 166.787 90.7968 166.772 90.7968 166.743V163.41ZM95.585 171.088C95.057 171.088 94.6024 170.952 94.221 170.681C93.8397 170.41 93.5757 170.036 93.429 169.559C93.3264 169.222 93.275 168.771 93.275 168.206C93.275 167.641 93.3264 167.194 93.429 166.864C93.5684 166.395 93.8287 166.024 94.21 165.753C94.5914 165.482 95.0534 165.346 95.596 165.346C96.1167 165.346 96.564 165.482 96.938 165.753C97.3194 166.024 97.5797 166.391 97.719 166.853C97.8217 167.168 97.873 167.619 97.873 168.206C97.873 168.8 97.8217 169.251 97.719 169.559C97.5797 170.036 97.3194 170.41 96.938 170.681C96.564 170.952 96.113 171.088 95.585 171.088ZM95.585 170.406C95.937 170.406 96.2377 170.311 96.487 170.12C96.7364 169.922 96.905 169.658 96.993 169.328C97.059 169.064 97.092 168.694 97.092 168.217C97.092 167.733 97.0627 167.363 97.004 167.106C96.916 166.776 96.7437 166.516 96.487 166.325C96.2377 166.127 95.9334 166.028 95.574 166.028C95.2147 166.028 94.9104 166.127 94.661 166.325C94.4117 166.516 94.243 166.776 94.155 167.106C94.0964 167.363 94.067 167.733 94.067 168.217C94.067 168.701 94.0964 169.071 94.155 169.328C94.2357 169.658 94.4007 169.922 94.65 170.12C94.9067 170.311 95.2184 170.406 95.585 170.406ZM99.5662 171C99.4928 171 99.4562 170.963 99.4562 170.89V163.41C99.4562 163.337 99.4928 163.3 99.5662 163.3H100.127C100.201 163.3 100.237 163.337 100.237 163.41V170.89C100.237 170.963 100.201 171 100.127 171H99.5662ZM105.445 163.41C105.445 163.337 105.482 163.3 105.555 163.3H106.116C106.19 163.3 106.226 163.337 106.226 163.41V170.89C106.226 170.963 106.19 171 106.116 171H105.555C105.482 171 105.445 170.963 105.445 170.89V170.428C105.445 170.413 105.438 170.406 105.423 170.406C105.416 170.399 105.405 170.402 105.39 170.417C105.229 170.63 105.027 170.795 104.785 170.912C104.551 171.029 104.287 171.088 103.993 171.088C103.48 171.088 103.047 170.956 102.695 170.692C102.351 170.428 102.112 170.069 101.98 169.614C101.878 169.284 101.826 168.818 101.826 168.217C101.826 167.608 101.87 167.154 101.958 166.853C102.09 166.384 102.332 166.017 102.684 165.753C103.036 165.482 103.473 165.346 103.993 165.346C104.279 165.346 104.543 165.405 104.785 165.522C105.027 165.632 105.229 165.793 105.39 166.006C105.405 166.021 105.416 166.028 105.423 166.028C105.438 166.021 105.445 166.01 105.445 165.995V163.41ZM105.247 169.559C105.313 169.412 105.361 169.24 105.39 169.042C105.42 168.844 105.434 168.569 105.434 168.217C105.434 167.865 105.42 167.59 105.39 167.392C105.361 167.187 105.31 167.007 105.236 166.853C105.148 166.604 105.002 166.406 104.796 166.259C104.598 166.105 104.36 166.028 104.081 166.028C103.788 166.028 103.535 166.101 103.322 166.248C103.11 166.395 102.956 166.589 102.86 166.831C102.772 166.992 102.706 167.176 102.662 167.381C102.626 167.579 102.607 167.858 102.607 168.217C102.607 168.562 102.622 168.833 102.651 169.031C102.681 169.222 102.732 169.394 102.805 169.548C102.893 169.812 103.047 170.021 103.267 170.175C103.495 170.329 103.762 170.406 104.07 170.406C104.364 170.406 104.609 170.329 104.807 170.175C105.005 170.021 105.152 169.816 105.247 169.559ZM112.264 167.282C112.294 167.487 112.308 167.744 112.308 168.052V168.404C112.308 168.477 112.272 168.514 112.198 168.514H108.645C108.616 168.514 108.601 168.529 108.601 168.558C108.616 168.961 108.638 169.222 108.667 169.339C108.748 169.669 108.92 169.929 109.184 170.12C109.448 170.311 109.786 170.406 110.196 170.406C110.504 170.406 110.776 170.336 111.01 170.197C111.245 170.058 111.428 169.86 111.56 169.603C111.604 169.537 111.656 169.522 111.714 169.559L112.143 169.812C112.202 169.849 112.217 169.9 112.187 169.966C112.004 170.318 111.729 170.597 111.362 170.802C110.996 171 110.574 171.099 110.097 171.099C109.577 171.092 109.14 170.967 108.788 170.725C108.436 170.483 108.183 170.146 108.029 169.713C107.897 169.361 107.831 168.855 107.831 168.195C107.831 167.887 107.835 167.638 107.842 167.447C107.857 167.249 107.886 167.073 107.93 166.919C108.055 166.442 108.304 166.061 108.678 165.775C109.06 165.489 109.518 165.346 110.053 165.346C110.721 165.346 111.234 165.515 111.593 165.852C111.953 166.189 112.176 166.666 112.264 167.282ZM110.053 166.028C109.694 166.028 109.393 166.123 109.151 166.314C108.917 166.497 108.763 166.747 108.689 167.062C108.645 167.216 108.616 167.465 108.601 167.81C108.601 167.839 108.616 167.854 108.645 167.854H111.494C111.524 167.854 111.538 167.839 111.538 167.81C111.524 167.48 111.502 167.245 111.472 167.106C111.392 166.776 111.227 166.516 110.977 166.325C110.735 166.127 110.427 166.028 110.053 166.028ZM116.105 165.379C116.347 165.379 116.556 165.427 116.732 165.522C116.791 165.551 116.813 165.599 116.798 165.665L116.677 166.204C116.655 166.277 116.608 166.299 116.534 166.27C116.41 166.219 116.267 166.193 116.105 166.193L115.962 166.204C115.581 166.219 115.266 166.362 115.016 166.633C114.767 166.897 114.642 167.234 114.642 167.645V170.89C114.642 170.963 114.606 171 114.532 171H113.971C113.898 171 113.861 170.963 113.861 170.89V165.544C113.861 165.471 113.898 165.434 113.971 165.434H114.532C114.606 165.434 114.642 165.471 114.642 165.544V166.215C114.642 166.237 114.646 166.252 114.653 166.259C114.668 166.259 114.679 166.252 114.686 166.237C114.84 165.966 115.035 165.757 115.269 165.61C115.511 165.456 115.79 165.379 116.105 165.379ZM124.811 163.41C124.811 163.337 124.848 163.3 124.921 163.3H125.482C125.556 163.3 125.592 163.337 125.592 163.41V170.89C125.592 170.963 125.556 171 125.482 171H124.932C124.881 171 124.837 170.974 124.8 170.923L121.049 164.818C121.042 164.796 121.031 164.789 121.016 164.796C121.002 164.796 120.994 164.807 120.994 164.829L121.005 170.89C121.005 170.963 120.969 171 120.895 171H120.334C120.261 171 120.224 170.963 120.224 170.89V163.41C120.224 163.337 120.261 163.3 120.334 163.3H120.884C120.936 163.3 120.98 163.326 121.016 163.377L124.767 169.482C124.775 169.504 124.786 169.515 124.8 169.515C124.815 169.508 124.822 169.493 124.822 169.471L124.811 163.41ZM129.429 165.346C130.089 165.346 130.599 165.515 130.958 165.852C131.317 166.189 131.497 166.637 131.497 167.194V170.89C131.497 170.963 131.46 171 131.387 171H130.826C130.753 171 130.716 170.963 130.716 170.89V170.439C130.716 170.424 130.709 170.413 130.694 170.406C130.687 170.399 130.676 170.402 130.661 170.417C130.478 170.637 130.239 170.806 129.946 170.923C129.653 171.033 129.326 171.088 128.967 171.088C128.446 171.088 128.01 170.956 127.658 170.692C127.306 170.428 127.13 170.025 127.13 169.482C127.13 168.932 127.328 168.499 127.724 168.184C128.127 167.861 128.685 167.7 129.396 167.7H130.672C130.701 167.7 130.716 167.685 130.716 167.656V167.238C130.716 166.864 130.61 166.571 130.397 166.358C130.192 166.138 129.869 166.028 129.429 166.028C129.077 166.028 128.791 166.098 128.571 166.237C128.351 166.369 128.215 166.556 128.164 166.798C128.142 166.871 128.098 166.904 128.032 166.897L127.438 166.82C127.357 166.805 127.324 166.776 127.339 166.732C127.398 166.321 127.618 165.988 127.999 165.731C128.38 165.474 128.857 165.346 129.429 165.346ZM129.121 170.417C129.554 170.417 129.928 170.311 130.243 170.098C130.558 169.878 130.716 169.585 130.716 169.218V168.36C130.716 168.331 130.701 168.316 130.672 168.316H129.517C129.033 168.316 128.644 168.415 128.351 168.613C128.058 168.811 127.911 169.086 127.911 169.438C127.911 169.761 128.021 170.006 128.241 170.175C128.468 170.336 128.762 170.417 129.121 170.417ZM138.754 165.357C139.304 165.357 139.737 165.522 140.052 165.852C140.375 166.182 140.536 166.633 140.536 167.205V170.89C140.536 170.963 140.5 171 140.426 171H139.876C139.803 171 139.766 170.963 139.766 170.89V167.359C139.766 166.956 139.649 166.637 139.414 166.402C139.187 166.16 138.886 166.039 138.512 166.039C138.124 166.039 137.808 166.156 137.566 166.391C137.332 166.626 137.214 166.941 137.214 167.337V170.89C137.214 170.963 137.178 171 137.104 171H136.543C136.47 171 136.433 170.963 136.433 170.89V167.359C136.433 166.956 136.32 166.637 136.092 166.402C135.865 166.16 135.561 166.039 135.179 166.039C134.791 166.039 134.479 166.156 134.244 166.391C134.017 166.626 133.903 166.941 133.903 167.337V170.89C133.903 170.963 133.867 171 133.793 171H133.232C133.159 171 133.122 170.963 133.122 170.89V165.544C133.122 165.471 133.159 165.434 133.232 165.434H133.793C133.867 165.434 133.903 165.471 133.903 165.544V165.984C133.903 165.999 133.907 166.01 133.914 166.017C133.929 166.017 133.944 166.01 133.958 165.995C134.12 165.782 134.325 165.625 134.574 165.522C134.831 165.412 135.113 165.357 135.421 165.357C135.803 165.357 136.129 165.434 136.4 165.588C136.672 165.742 136.877 165.966 137.016 166.259C137.031 166.296 137.049 166.296 137.071 166.259C137.233 165.958 137.46 165.735 137.753 165.588C138.047 165.434 138.38 165.357 138.754 165.357ZM146.414 167.282C146.443 167.487 146.458 167.744 146.458 168.052V168.404C146.458 168.477 146.421 168.514 146.348 168.514H142.795C142.765 168.514 142.751 168.529 142.751 168.558C142.765 168.961 142.787 169.222 142.817 169.339C142.897 169.669 143.07 169.929 143.334 170.12C143.598 170.311 143.935 170.406 144.346 170.406C144.654 170.406 144.925 170.336 145.16 170.197C145.394 170.058 145.578 169.86 145.71 169.603C145.754 169.537 145.805 169.522 145.864 169.559L146.293 169.812C146.351 169.849 146.366 169.9 146.337 169.966C146.153 170.318 145.878 170.597 145.512 170.802C145.145 171 144.723 171.099 144.247 171.099C143.726 171.092 143.29 170.967 142.938 170.725C142.586 170.483 142.333 170.146 142.179 169.713C142.047 169.361 141.981 168.855 141.981 168.195C141.981 167.887 141.984 167.638 141.992 167.447C142.006 167.249 142.036 167.073 142.08 166.919C142.204 166.442 142.454 166.061 142.828 165.775C143.209 165.489 143.667 165.346 144.203 165.346C144.87 165.346 145.383 165.515 145.743 165.852C146.102 166.189 146.326 166.666 146.414 167.282ZM144.203 166.028C143.843 166.028 143.543 166.123 143.301 166.314C143.066 166.497 142.912 166.747 142.839 167.062C142.795 167.216 142.765 167.465 142.751 167.81C142.751 167.839 142.765 167.854 142.795 167.854H145.644C145.673 167.854 145.688 167.839 145.688 167.81C145.673 167.48 145.651 167.245 145.622 167.106C145.541 166.776 145.376 166.516 145.127 166.325C144.885 166.127 144.577 166.028 144.203 166.028Z" fill="#999999"/>
<path d="M194.017 163.872C194.017 163.945 193.98 163.982 193.907 163.982H189.859C189.83 163.982 189.815 163.997 189.815 164.026V166.743C189.815 166.772 189.83 166.787 189.859 166.787H192.697C192.77 166.787 192.807 166.824 192.807 166.897V167.359C192.807 167.432 192.77 167.469 192.697 167.469H189.859C189.83 167.469 189.815 167.484 189.815 167.513V170.274C189.815 170.303 189.83 170.318 189.859 170.318H193.907C193.98 170.318 194.017 170.355 194.017 170.428V170.89C194.017 170.963 193.98 171 193.907 171H189.144C189.071 171 189.034 170.963 189.034 170.89V163.41C189.034 163.337 189.071 163.3 189.144 163.3H193.907C193.98 163.3 194.017 163.337 194.017 163.41V163.872ZM195.067 171C195.023 171 194.99 170.985 194.968 170.956C194.953 170.927 194.961 170.897 194.99 170.868L196.827 168.25C196.842 168.228 196.842 168.206 196.827 168.184L194.99 165.566C194.975 165.551 194.968 165.533 194.968 165.511C194.968 165.46 195.001 165.434 195.067 165.434H195.661C195.72 165.434 195.764 165.456 195.793 165.5L197.234 167.579C197.241 167.586 197.252 167.59 197.267 167.59C197.282 167.59 197.293 167.586 197.3 167.579L198.73 165.5C198.759 165.456 198.803 165.434 198.862 165.434H199.511C199.555 165.434 199.584 165.449 199.599 165.478C199.614 165.5 199.606 165.529 199.577 165.566L197.74 168.184C197.733 168.206 197.733 168.228 197.74 168.25L199.577 170.868C199.592 170.883 199.599 170.905 199.599 170.934C199.599 170.949 199.592 170.963 199.577 170.978C199.562 170.993 199.54 171 199.511 171H198.906C198.847 171 198.803 170.978 198.774 170.934L197.344 168.855C197.337 168.84 197.326 168.833 197.311 168.833C197.296 168.833 197.285 168.84 197.278 168.855L195.826 170.934C195.797 170.978 195.753 171 195.694 171H195.067ZM205.105 166.82C205.215 167.172 205.27 167.638 205.27 168.217C205.27 168.804 205.223 169.258 205.127 169.581C204.995 170.05 204.753 170.421 204.401 170.692C204.057 170.956 203.62 171.088 203.092 171.088C202.806 171.088 202.542 171.033 202.3 170.923C202.058 170.806 201.857 170.641 201.695 170.428C201.681 170.413 201.666 170.41 201.651 170.417C201.644 170.417 201.64 170.424 201.64 170.439V173.024C201.64 173.097 201.604 173.134 201.53 173.134H200.969C200.896 173.134 200.859 173.097 200.859 173.024V165.544C200.859 165.471 200.896 165.434 200.969 165.434H201.53C201.604 165.434 201.64 165.471 201.64 165.544V166.006C201.64 166.021 201.644 166.032 201.651 166.039C201.666 166.039 201.681 166.032 201.695 166.017C201.857 165.804 202.055 165.639 202.289 165.522C202.531 165.405 202.799 165.346 203.092 165.346C203.606 165.346 204.035 165.478 204.379 165.742C204.731 166.006 204.973 166.365 205.105 166.82ZM204.236 169.603C204.317 169.442 204.376 169.262 204.412 169.064C204.456 168.859 204.478 168.576 204.478 168.217C204.478 167.872 204.464 167.605 204.434 167.414C204.405 167.216 204.354 167.04 204.28 166.886C204.192 166.622 204.035 166.413 203.807 166.259C203.587 166.105 203.323 166.028 203.015 166.028C202.722 166.028 202.476 166.105 202.278 166.259C202.08 166.413 201.934 166.618 201.838 166.875C201.772 167.022 201.725 167.194 201.695 167.392C201.666 167.59 201.651 167.865 201.651 168.217C201.651 168.569 201.666 168.848 201.695 169.053C201.725 169.251 201.776 169.427 201.849 169.581C201.937 169.83 202.08 170.032 202.278 170.186C202.484 170.333 202.726 170.406 203.004 170.406C203.298 170.406 203.551 170.333 203.763 170.186C203.983 170.039 204.141 169.845 204.236 169.603ZM207.38 164.422C207.204 164.422 207.057 164.363 206.94 164.246C206.822 164.129 206.764 163.982 206.764 163.806C206.764 163.623 206.822 163.476 206.94 163.366C207.057 163.249 207.204 163.19 207.38 163.19C207.556 163.19 207.702 163.249 207.82 163.366C207.937 163.476 207.996 163.623 207.996 163.806C207.996 163.982 207.937 164.129 207.82 164.246C207.702 164.363 207.556 164.422 207.38 164.422ZM207.072 170.989C206.998 170.989 206.962 170.952 206.962 170.879V165.533C206.962 165.46 206.998 165.423 207.072 165.423H207.633C207.706 165.423 207.743 165.46 207.743 165.533V170.879C207.743 170.952 207.706 170.989 207.633 170.989H207.072ZM211.899 165.379C212.141 165.379 212.35 165.427 212.526 165.522C212.585 165.551 212.607 165.599 212.592 165.665L212.471 166.204C212.449 166.277 212.402 166.299 212.328 166.27C212.204 166.219 212.061 166.193 211.899 166.193L211.756 166.204C211.375 166.219 211.06 166.362 210.81 166.633C210.561 166.897 210.436 167.234 210.436 167.645V170.89C210.436 170.963 210.4 171 210.326 171H209.765C209.692 171 209.655 170.963 209.655 170.89V165.544C209.655 165.471 209.692 165.434 209.765 165.434H210.326C210.4 165.434 210.436 165.471 210.436 165.544V166.215C210.436 166.237 210.44 166.252 210.447 166.259C210.462 166.259 210.473 166.252 210.48 166.237C210.634 165.966 210.829 165.757 211.063 165.61C211.305 165.456 211.584 165.379 211.899 165.379ZM213.721 173.2C213.669 173.2 213.644 173.163 213.644 173.09V172.65C213.644 172.577 213.68 172.54 213.754 172.54H213.798C214.084 172.533 214.304 172.489 214.458 172.408C214.619 172.335 214.755 172.192 214.865 171.979C214.982 171.774 215.107 171.458 215.239 171.033C215.253 171.004 215.253 170.982 215.239 170.967L213.38 165.555L213.369 165.511C213.369 165.46 213.402 165.434 213.468 165.434H214.051C214.117 165.434 214.161 165.463 214.183 165.522L215.613 169.966C215.62 169.981 215.631 169.988 215.646 169.988C215.66 169.988 215.671 169.981 215.679 169.966L217.087 165.522C217.109 165.463 217.153 165.434 217.219 165.434H217.791C217.871 165.434 217.901 165.474 217.879 165.555L215.844 171.484C215.668 171.975 215.503 172.338 215.349 172.573C215.195 172.808 215 172.969 214.766 173.057C214.538 173.152 214.216 173.2 213.798 173.2H213.721ZM221.51 171C221.437 171 221.4 170.963 221.4 170.89V163.41C221.4 163.337 221.437 163.3 221.51 163.3H224.106C224.832 163.3 225.408 163.491 225.833 163.872C226.266 164.253 226.482 164.77 226.482 165.423V168.877C226.482 169.53 226.266 170.047 225.833 170.428C225.408 170.809 224.832 171 224.106 171H221.51ZM222.181 170.274C222.181 170.303 222.196 170.318 222.225 170.318H224.139C224.616 170.318 224.994 170.179 225.272 169.9C225.558 169.621 225.701 169.247 225.701 168.778V165.533C225.701 165.056 225.562 164.679 225.283 164.4C225.005 164.121 224.623 163.982 224.139 163.982H222.225C222.196 163.982 222.181 163.997 222.181 164.026V170.274ZM229.907 165.346C230.567 165.346 231.076 165.515 231.436 165.852C231.795 166.189 231.975 166.637 231.975 167.194V170.89C231.975 170.963 231.938 171 231.865 171H231.304C231.23 171 231.194 170.963 231.194 170.89V170.439C231.194 170.424 231.186 170.413 231.172 170.406C231.164 170.399 231.153 170.402 231.139 170.417C230.955 170.637 230.717 170.806 230.424 170.923C230.13 171.033 229.804 171.088 229.445 171.088C228.924 171.088 228.488 170.956 228.136 170.692C227.784 170.428 227.608 170.025 227.608 169.482C227.608 168.932 227.806 168.499 228.202 168.184C228.605 167.861 229.162 167.7 229.874 167.7H231.15C231.179 167.7 231.194 167.685 231.194 167.656V167.238C231.194 166.864 231.087 166.571 230.875 166.358C230.669 166.138 230.347 166.028 229.907 166.028C229.555 166.028 229.269 166.098 229.049 166.237C228.829 166.369 228.693 166.556 228.642 166.798C228.62 166.871 228.576 166.904 228.51 166.897L227.916 166.82C227.835 166.805 227.802 166.776 227.817 166.732C227.875 166.321 228.095 165.988 228.477 165.731C228.858 165.474 229.335 165.346 229.907 165.346ZM229.599 170.417C230.031 170.417 230.405 170.311 230.721 170.098C231.036 169.878 231.194 169.585 231.194 169.218V168.36C231.194 168.331 231.179 168.316 231.15 168.316H229.995C229.511 168.316 229.122 168.415 228.829 168.613C228.535 168.811 228.389 169.086 228.389 169.438C228.389 169.761 228.499 170.006 228.719 170.175C228.946 170.336 229.239 170.417 229.599 170.417ZM236.054 165.973C236.054 166.046 236.017 166.083 235.944 166.083H234.701C234.671 166.083 234.657 166.098 234.657 166.127V169.372C234.657 169.724 234.734 169.973 234.888 170.12C235.049 170.259 235.298 170.329 235.636 170.329H235.911C235.984 170.329 236.021 170.366 236.021 170.439V170.89C236.021 170.963 235.984 171 235.911 171C235.823 171.007 235.687 171.011 235.504 171.011C234.976 171.011 234.576 170.912 234.305 170.714C234.033 170.516 233.898 170.149 233.898 169.614V166.127C233.898 166.098 233.883 166.083 233.854 166.083H233.183C233.109 166.083 233.073 166.046 233.073 165.973V165.544C233.073 165.471 233.109 165.434 233.183 165.434H233.854C233.883 165.434 233.898 165.419 233.898 165.39V164.114C233.898 164.041 233.934 164.004 234.008 164.004H234.547C234.62 164.004 234.657 164.041 234.657 164.114V165.39C234.657 165.419 234.671 165.434 234.701 165.434H235.944C236.017 165.434 236.054 165.471 236.054 165.544V165.973ZM241.67 167.282C241.7 167.487 241.714 167.744 241.714 168.052V168.404C241.714 168.477 241.678 168.514 241.604 168.514H238.051C238.022 168.514 238.007 168.529 238.007 168.558C238.022 168.961 238.044 169.222 238.073 169.339C238.154 169.669 238.326 169.929 238.59 170.12C238.854 170.311 239.192 170.406 239.602 170.406C239.91 170.406 240.182 170.336 240.416 170.197C240.651 170.058 240.834 169.86 240.966 169.603C241.01 169.537 241.062 169.522 241.12 169.559L241.549 169.812C241.608 169.849 241.623 169.9 241.593 169.966C241.41 170.318 241.135 170.597 240.768 170.802C240.402 171 239.98 171.099 239.503 171.099C238.983 171.092 238.546 170.967 238.194 170.725C237.842 170.483 237.589 170.146 237.435 169.713C237.303 169.361 237.237 168.855 237.237 168.195C237.237 167.887 237.241 167.638 237.248 167.447C237.263 167.249 237.292 167.073 237.336 166.919C237.461 166.442 237.71 166.061 238.084 165.775C238.466 165.489 238.924 165.346 239.459 165.346C240.127 165.346 240.64 165.515 240.999 165.852C241.359 166.189 241.582 166.666 241.67 167.282ZM239.459 166.028C239.1 166.028 238.799 166.123 238.557 166.314C238.323 166.497 238.169 166.747 238.095 167.062C238.051 167.216 238.022 167.465 238.007 167.81C238.007 167.839 238.022 167.854 238.051 167.854H240.9C240.93 167.854 240.944 167.839 240.944 167.81C240.93 167.48 240.908 167.245 240.878 167.106C240.798 166.776 240.633 166.516 240.383 166.325C240.141 166.127 239.833 166.028 239.459 166.028Z" fill="#999999"/>
<path d="M67.708 183.9C67.7947 183.9 67.838 183.943 67.838 184.03V184.589C67.838 184.676 67.7947 184.719 67.708 184.719H65.16C65.1253 184.719 65.108 184.736 65.108 184.771V192.87C65.108 192.957 65.0647 193 64.978 193H64.315C64.2283 193 64.185 192.957 64.185 192.87V184.771C64.185 184.736 64.1677 184.719 64.133 184.719H61.689C61.6023 184.719 61.559 184.676 61.559 184.589V184.03C61.559 183.943 61.6023 183.9 61.689 183.9H67.708ZM69.8876 185.226C69.6796 185.226 69.5063 185.157 69.3676 185.018C69.229 184.879 69.1596 184.706 69.1596 184.498C69.1596 184.281 69.229 184.108 69.3676 183.978C69.5063 183.839 69.6796 183.77 69.8876 183.77C70.0956 183.77 70.269 183.839 70.4076 183.978C70.5463 184.108 70.6156 184.281 70.6156 184.498C70.6156 184.706 70.5463 184.879 70.4076 185.018C70.269 185.157 70.0956 185.226 69.8876 185.226ZM69.5236 192.987C69.437 192.987 69.3936 192.944 69.3936 192.857V186.539C69.3936 186.452 69.437 186.409 69.5236 186.409H70.1866C70.2733 186.409 70.3166 186.452 70.3166 186.539V192.857C70.3166 192.944 70.2733 192.987 70.1866 192.987H69.5236ZM74.8521 186.318C75.6321 186.318 76.2344 186.517 76.6591 186.916C77.0838 187.315 77.2961 187.843 77.2961 188.502V192.87C77.2961 192.957 77.2528 193 77.1661 193H76.5031C76.4164 193 76.3731 192.957 76.3731 192.87V192.337C76.3731 192.32 76.3644 192.307 76.3471 192.298C76.3384 192.289 76.3254 192.294 76.3081 192.311C76.0914 192.571 75.8098 192.77 75.4631 192.909C75.1164 193.039 74.7308 193.104 74.3061 193.104C73.6908 193.104 73.1751 192.948 72.7591 192.636C72.3431 192.324 72.1351 191.847 72.1351 191.206C72.1351 190.556 72.3691 190.045 72.8371 189.672C73.3138 189.291 73.9724 189.1 74.8131 189.1H76.3211C76.3558 189.1 76.3731 189.083 76.3731 189.048V188.554C76.3731 188.112 76.2474 187.765 75.9961 187.514C75.7534 187.254 75.3721 187.124 74.8521 187.124C74.4361 187.124 74.0981 187.206 73.8381 187.371C73.5781 187.527 73.4178 187.748 73.3571 188.034C73.3311 188.121 73.2791 188.16 73.2011 188.151L72.4991 188.06C72.4038 188.043 72.3648 188.008 72.3821 187.956C72.4514 187.471 72.7114 187.076 73.1621 186.773C73.6128 186.47 74.1761 186.318 74.8521 186.318ZM74.4881 192.311C74.9994 192.311 75.4414 192.185 75.8141 191.934C76.1868 191.674 76.3731 191.327 76.3731 190.894V189.88C76.3731 189.845 76.3558 189.828 76.3211 189.828H74.9561C74.3841 189.828 73.9248 189.945 73.5781 190.179C73.2314 190.413 73.0581 190.738 73.0581 191.154C73.0581 191.535 73.1881 191.826 73.4481 192.025C73.7168 192.216 74.0634 192.311 74.4881 192.311ZM81.9468 186.331C82.6401 186.331 83.1904 186.535 83.5978 186.942C84.0138 187.349 84.2218 187.895 84.2218 188.58V192.87C84.2218 192.957 84.1784 193 84.0918 193H83.4288C83.3421 193 83.2988 192.957 83.2988 192.87V188.762C83.2988 188.285 83.1514 187.895 82.8568 187.592C82.5708 187.289 82.1981 187.137 81.7388 187.137C81.2621 187.137 80.8764 187.284 80.5818 187.579C80.2871 187.874 80.1398 188.259 80.1398 188.736V192.87C80.1398 192.957 80.0964 193 80.0098 193H79.3468C79.2601 193 79.2168 192.957 79.2168 192.87V186.552C79.2168 186.465 79.2601 186.422 79.3468 186.422H80.0098C80.0964 186.422 80.1398 186.465 80.1398 186.552V187.111C80.1398 187.128 80.1441 187.141 80.1528 187.15C80.1701 187.159 80.1831 187.154 80.1918 187.137C80.5731 186.6 81.1581 186.331 81.9468 186.331ZM88.4996 186.318C89.2796 186.318 89.8819 186.517 90.3066 186.916C90.7312 187.315 90.9436 187.843 90.9436 188.502V192.87C90.9436 192.957 90.9002 193 90.8136 193H90.1506C90.0639 193 90.0206 192.957 90.0206 192.87V192.337C90.0206 192.32 90.0119 192.307 89.9946 192.298C89.9859 192.289 89.9729 192.294 89.9556 192.311C89.7389 192.571 89.4572 192.77 89.1106 192.909C88.7639 193.039 88.3782 193.104 87.9536 193.104C87.3382 193.104 86.8226 192.948 86.4066 192.636C85.9906 192.324 85.7826 191.847 85.7826 191.206C85.7826 190.556 86.0166 190.045 86.4846 189.672C86.9612 189.291 87.6199 189.1 88.4606 189.1H89.9686C90.0032 189.1 90.0206 189.083 90.0206 189.048V188.554C90.0206 188.112 89.8949 187.765 89.6436 187.514C89.4009 187.254 89.0196 187.124 88.4996 187.124C88.0836 187.124 87.7456 187.206 87.4856 187.371C87.2256 187.527 87.0652 187.748 87.0046 188.034C86.9786 188.121 86.9266 188.16 86.8486 188.151L86.1466 188.06C86.0512 188.043 86.0122 188.008 86.0296 187.956C86.0989 187.471 86.3589 187.076 86.8096 186.773C87.2602 186.47 87.8236 186.318 88.4996 186.318ZM88.1356 192.311C88.6469 192.311 89.0889 192.185 89.4616 191.934C89.8342 191.674 90.0206 191.327 90.0206 190.894V189.88C90.0206 189.845 90.0032 189.828 89.9686 189.828H88.6036C88.0316 189.828 87.5722 189.945 87.2256 190.179C86.8789 190.413 86.7056 190.738 86.7056 191.154C86.7056 191.535 86.8356 191.826 87.0956 192.025C87.3642 192.216 87.7109 192.311 88.1356 192.311ZM100.953 193C100.875 193 100.823 192.97 100.797 192.909L98.8858 188.879C98.8771 188.853 98.8598 188.84 98.8338 188.84H96.6238C96.5891 188.84 96.5718 188.857 96.5718 188.892V192.87C96.5718 192.957 96.5284 193 96.4418 193H95.7788C95.6921 193 95.6488 192.957 95.6488 192.87V184.03C95.6488 183.943 95.6921 183.9 95.7788 183.9H99.1458C99.8911 183.9 100.493 184.134 100.953 184.602C101.412 185.061 101.642 185.664 101.642 186.409C101.642 187.016 101.477 187.531 101.148 187.956C100.818 188.381 100.372 188.654 99.8088 188.775C99.7741 188.792 99.7654 188.814 99.7828 188.84L101.733 192.844C101.741 192.861 101.746 192.883 101.746 192.909C101.746 192.97 101.711 193 101.642 193H100.953ZM96.6238 184.706C96.5891 184.706 96.5718 184.723 96.5718 184.758V188.047C96.5718 188.082 96.5891 188.099 96.6238 188.099H99.0418C99.5444 188.099 99.9518 187.943 100.264 187.631C100.576 187.319 100.732 186.912 100.732 186.409C100.732 185.906 100.576 185.499 100.264 185.187C99.9518 184.866 99.5444 184.706 99.0418 184.706H96.6238ZM105.898 193.104C105.274 193.104 104.736 192.944 104.286 192.623C103.835 192.302 103.523 191.86 103.35 191.297C103.228 190.898 103.168 190.365 103.168 189.698C103.168 189.031 103.228 188.502 103.35 188.112C103.514 187.557 103.822 187.12 104.273 186.799C104.723 186.478 105.269 186.318 105.911 186.318C106.526 186.318 107.055 186.478 107.497 186.799C107.947 187.12 108.255 187.553 108.42 188.099C108.541 188.472 108.602 189.005 108.602 189.698C108.602 190.4 108.541 190.933 108.42 191.297C108.255 191.86 107.947 192.302 107.497 192.623C107.055 192.944 106.522 193.104 105.898 193.104ZM105.898 192.298C106.314 192.298 106.669 192.185 106.964 191.96C107.258 191.726 107.458 191.414 107.562 191.024C107.64 190.712 107.679 190.274 107.679 189.711C107.679 189.139 107.644 188.701 107.575 188.398C107.471 188.008 107.267 187.7 106.964 187.475C106.669 187.241 106.309 187.124 105.885 187.124C105.46 187.124 105.1 187.241 104.806 187.475C104.511 187.7 104.312 188.008 104.208 188.398C104.138 188.701 104.104 189.139 104.104 189.711C104.104 190.283 104.138 190.721 104.208 191.024C104.303 191.414 104.498 191.726 104.793 191.96C105.096 192.185 105.464 192.298 105.898 192.298ZM112.631 193.065C112.145 193.065 111.712 192.987 111.331 192.831C110.958 192.675 110.668 192.467 110.46 192.207C110.26 191.947 110.161 191.657 110.161 191.336V191.18C110.161 191.093 110.204 191.05 110.291 191.05H110.915C111.001 191.05 111.045 191.093 111.045 191.18V191.284C111.045 191.57 111.192 191.821 111.487 192.038C111.79 192.246 112.167 192.35 112.618 192.35C113.068 192.35 113.432 192.25 113.71 192.051C113.987 191.843 114.126 191.583 114.126 191.271C114.126 191.054 114.052 190.877 113.905 190.738C113.766 190.599 113.597 190.491 113.398 190.413C113.207 190.335 112.908 190.235 112.501 190.114C112.015 189.975 111.617 189.837 111.305 189.698C110.993 189.559 110.728 189.369 110.512 189.126C110.304 188.875 110.2 188.558 110.2 188.177C110.2 187.622 110.416 187.18 110.85 186.851C111.283 186.522 111.855 186.357 112.566 186.357C113.042 186.357 113.463 186.435 113.827 186.591C114.199 186.747 114.485 186.964 114.685 187.241C114.884 187.51 114.984 187.813 114.984 188.151V188.19C114.984 188.277 114.94 188.32 114.854 188.32H114.243C114.156 188.32 114.113 188.277 114.113 188.19V188.151C114.113 187.856 113.97 187.609 113.684 187.41C113.406 187.211 113.029 187.111 112.553 187.111C112.111 187.111 111.755 187.202 111.487 187.384C111.218 187.557 111.084 187.8 111.084 188.112C111.084 188.407 111.214 188.632 111.474 188.788C111.734 188.944 112.137 189.1 112.683 189.256C113.185 189.403 113.593 189.542 113.905 189.672C114.217 189.802 114.485 189.993 114.711 190.244C114.936 190.487 115.049 190.807 115.049 191.206C115.049 191.769 114.828 192.22 114.386 192.558C113.944 192.896 113.359 193.065 112.631 193.065ZM118.699 193.065C118.214 193.065 117.78 192.987 117.399 192.831C117.026 192.675 116.736 192.467 116.528 192.207C116.329 191.947 116.229 191.657 116.229 191.336V191.18C116.229 191.093 116.272 191.05 116.359 191.05H116.983C117.07 191.05 117.113 191.093 117.113 191.18V191.284C117.113 191.57 117.26 191.821 117.555 192.038C117.858 192.246 118.235 192.35 118.686 192.35C119.137 192.35 119.501 192.25 119.778 192.051C120.055 191.843 120.194 191.583 120.194 191.271C120.194 191.054 120.12 190.877 119.973 190.738C119.834 190.599 119.665 190.491 119.466 190.413C119.275 190.335 118.976 190.235 118.569 190.114C118.084 189.975 117.685 189.837 117.373 189.698C117.061 189.559 116.797 189.369 116.58 189.126C116.372 188.875 116.268 188.558 116.268 188.177C116.268 187.622 116.485 187.18 116.918 186.851C117.351 186.522 117.923 186.357 118.634 186.357C119.111 186.357 119.531 186.435 119.895 186.591C120.268 186.747 120.554 186.964 120.753 187.241C120.952 187.51 121.052 187.813 121.052 188.151V188.19C121.052 188.277 121.009 188.32 120.922 188.32H120.311C120.224 188.32 120.181 188.277 120.181 188.19V188.151C120.181 187.856 120.038 187.609 119.752 187.41C119.475 187.211 119.098 187.111 118.621 187.111C118.179 187.111 117.824 187.202 117.555 187.384C117.286 187.557 117.152 187.8 117.152 188.112C117.152 188.407 117.282 188.632 117.542 188.788C117.802 188.944 118.205 189.1 118.751 189.256C119.254 189.403 119.661 189.542 119.973 189.672C120.285 189.802 120.554 189.993 120.779 190.244C121.004 190.487 121.117 190.807 121.117 191.206C121.117 191.769 120.896 192.22 120.454 192.558C120.012 192.896 119.427 193.065 118.699 193.065ZM127.844 188.606C127.878 188.849 127.896 189.152 127.896 189.516V189.932C127.896 190.019 127.852 190.062 127.766 190.062H123.567C123.532 190.062 123.515 190.079 123.515 190.114C123.532 190.591 123.558 190.898 123.593 191.037C123.688 191.427 123.892 191.735 124.204 191.96C124.516 192.185 124.914 192.298 125.4 192.298C125.764 192.298 126.084 192.216 126.362 192.051C126.639 191.886 126.856 191.652 127.012 191.349C127.064 191.271 127.124 191.254 127.194 191.297L127.701 191.596C127.77 191.639 127.787 191.7 127.753 191.778C127.536 192.194 127.211 192.523 126.778 192.766C126.344 193 125.846 193.117 125.283 193.117C124.667 193.108 124.152 192.961 123.736 192.675C123.32 192.389 123.021 191.99 122.839 191.479C122.683 191.063 122.605 190.465 122.605 189.685C122.605 189.321 122.609 189.026 122.618 188.801C122.635 188.567 122.67 188.359 122.722 188.177C122.869 187.614 123.164 187.163 123.606 186.825C124.056 186.487 124.598 186.318 125.231 186.318C126.019 186.318 126.626 186.517 127.051 186.916C127.475 187.315 127.74 187.878 127.844 188.606ZM125.231 187.124C124.806 187.124 124.451 187.237 124.165 187.462C123.887 187.679 123.705 187.973 123.619 188.346C123.567 188.528 123.532 188.823 123.515 189.23C123.515 189.265 123.532 189.282 123.567 189.282H126.934C126.968 189.282 126.986 189.265 126.986 189.23C126.968 188.84 126.942 188.563 126.908 188.398C126.812 188.008 126.617 187.7 126.323 187.475C126.037 187.241 125.673 187.124 125.231 187.124ZM132.383 186.357C132.669 186.357 132.916 186.413 133.124 186.526C133.194 186.561 133.22 186.617 133.202 186.695L133.059 187.332C133.033 187.419 132.977 187.445 132.89 187.41C132.743 187.349 132.574 187.319 132.383 187.319L132.214 187.332C131.764 187.349 131.391 187.518 131.096 187.839C130.802 188.151 130.654 188.55 130.654 189.035V192.87C130.654 192.957 130.611 193 130.524 193H129.861C129.775 193 129.731 192.957 129.731 192.87V186.552C129.731 186.465 129.775 186.422 129.861 186.422H130.524C130.611 186.422 130.654 186.465 130.654 186.552V187.345C130.654 187.371 130.659 187.388 130.667 187.397C130.685 187.397 130.698 187.388 130.706 187.371C130.888 187.05 131.118 186.803 131.395 186.63C131.681 186.448 132.011 186.357 132.383 186.357Z" fill="white"/>
<path d="M190.34 183.939C190.392 183.913 190.448 183.9 190.509 183.9H191.211C191.298 183.9 191.341 183.943 191.341 184.03V192.87C191.341 192.957 191.298 193 191.211 193H190.548C190.461 193 190.418 192.957 190.418 192.87V184.953C190.418 184.936 190.409 184.923 190.392 184.914C190.383 184.905 190.37 184.905 190.353 184.914L188.975 185.473L188.923 185.486C188.871 185.486 188.836 185.451 188.819 185.382L188.754 184.888V184.862C188.754 184.819 188.784 184.775 188.845 184.732L190.34 183.939ZM194.521 192.129C194.495 192.172 194.504 192.194 194.547 192.194H198.629C198.716 192.194 198.759 192.237 198.759 192.324V192.87C198.759 192.957 198.716 193 198.629 193H193.442C193.355 193 193.312 192.957 193.312 192.87V192.324C193.312 192.263 193.334 192.211 193.377 192.168C193.672 191.821 194.335 191.007 195.366 189.724L196.328 188.528C197.143 187.497 197.55 186.695 197.55 186.123C197.55 185.664 197.394 185.295 197.082 185.018C196.77 184.741 196.363 184.602 195.86 184.602C195.366 184.602 194.967 184.745 194.664 185.031C194.361 185.308 194.213 185.677 194.222 186.136V186.539C194.222 186.626 194.179 186.669 194.092 186.669H193.416C193.329 186.669 193.286 186.626 193.286 186.539V186.019C193.303 185.352 193.55 184.814 194.027 184.407C194.512 184 195.123 183.796 195.86 183.796C196.38 183.796 196.839 183.896 197.238 184.095C197.637 184.294 197.944 184.572 198.161 184.927C198.378 185.274 198.486 185.668 198.486 186.11C198.486 186.847 198.079 187.735 197.264 188.775C196.839 189.321 196.02 190.326 194.807 191.791L194.521 192.129ZM200.048 193C199.952 193 199.918 192.952 199.944 192.857L202.817 184.004C202.843 183.935 202.895 183.9 202.973 183.9H203.623C203.718 183.9 203.753 183.948 203.727 184.043L200.854 192.896C200.828 192.965 200.776 193 200.698 193H200.048ZM206.696 192.129C206.67 192.172 206.678 192.194 206.722 192.194H210.804C210.89 192.194 210.934 192.237 210.934 192.324V192.87C210.934 192.957 210.89 193 210.804 193H205.617C205.53 193 205.487 192.957 205.487 192.87V192.324C205.487 192.263 205.508 192.211 205.552 192.168C205.846 191.821 206.509 191.007 207.541 189.724L208.503 188.528C209.317 187.497 209.725 186.695 209.725 186.123C209.725 185.664 209.569 185.295 209.257 185.018C208.945 184.741 208.537 184.602 208.035 184.602C207.541 184.602 207.142 184.745 206.839 185.031C206.535 185.308 206.388 185.677 206.397 186.136V186.539C206.397 186.626 206.353 186.669 206.267 186.669H205.591C205.504 186.669 205.461 186.626 205.461 186.539V186.019C205.478 185.352 205.725 184.814 206.202 184.407C206.687 184 207.298 183.796 208.035 183.796C208.555 183.796 209.014 183.896 209.413 184.095C209.811 184.294 210.119 184.572 210.336 184.927C210.552 185.274 210.661 185.668 210.661 186.11C210.661 186.847 210.253 187.735 209.439 188.775C209.014 189.321 208.195 190.326 206.982 191.791L206.696 192.129ZM217.929 189.659C218.016 189.659 218.059 189.702 218.059 189.789V190.361C218.059 190.448 218.016 190.491 217.929 190.491H217.37C217.336 190.491 217.318 190.508 217.318 190.543V192.87C217.318 192.957 217.275 193 217.188 193H216.525C216.439 193 216.395 192.957 216.395 192.87V190.543C216.395 190.508 216.378 190.491 216.343 190.491H212.456C212.37 190.491 212.326 190.448 212.326 190.361V189.88C212.326 189.837 212.339 189.785 212.365 189.724L215.03 183.991C215.056 183.93 215.104 183.9 215.173 183.9H215.862C215.906 183.9 215.936 183.917 215.953 183.952C215.979 183.978 215.984 184.013 215.966 184.056L213.379 189.594C213.371 189.611 213.371 189.629 213.379 189.646C213.388 189.655 213.401 189.659 213.418 189.659H216.343C216.378 189.659 216.395 189.642 216.395 189.607V187.514C216.395 187.427 216.439 187.384 216.525 187.384H217.188C217.275 187.384 217.318 187.427 217.318 187.514V189.607C217.318 189.642 217.336 189.659 217.37 189.659H217.929Z" fill="white"/>
</g>
<defs>
<filter id="filter0_dd" x="0" y="0" width="408" height="280" filterUnits="userSpaceOnUse" color-interpolation-filters="sRGB">
<feFlood flood-opacity="0" result="BackgroundImageFix"/>
<feColorMatrix in="SourceAlpha" type="matrix" values="0 0 0 0 0 0 0 0 0 0 0 0 0 0 0 0 0 0 127 0"/>
<feOffset dy="24"/>
<feGaussianBlur stdDeviation="16"/>
<feColorMatrix type="matrix" values="0 0 0 0 0.196487 0 0 0 0 0.196487 0 0 0 0 0.279476 0 0 0 0.08 0"/>
<feBlend mode="multiply" in2="BackgroundImageFix" result="effect1_dropShadow"/>
<feColorMatrix in="SourceAlpha" type="matrix" values="0 0 0 0 0 0 0 0 0 0 0 0 0 0 0 0 0 0 127 0"/>
<feOffset dy="16"/>
<feGaussianBlur stdDeviation="8"/>
<feColorMatrix type="matrix" values="0 0 0 0 0.196487 0 0 0 0 0.196487 0 0 0 0 0.279476 0 0 0 0.08 0"/>
<feBlend mode="multiply" in2="effect1_dropShadow" result="effect2_dropShadow"/>
<feBlend mode="normal" in="SourceGraphic" in2="effect2_dropShadow" result="shape"/>
</filter>
</defs>
</svg>
