<svg width="100" height="100" viewBox="0 0 100 100" fill="none" xmlns="http://www.w3.org/2000/svg">
<g clip-path="url(#clip0)">
<path d="M99.3025 35.924L88.1303 6.87632C86.0132 1.38514 79.8454 -1.35005 74.3543 0.767005C74.2745 0.797807 74.195 0.829442 74.116 0.862118L18.2851 24.0057C12.9689 26.1864 10.3561 32.2039 12.3926 37.5771L13.9278 41.6747H10.4063C4.6618 41.6811 0.00645189 46.3365 0 52.0809V89.5435C0.00645189 95.2879 4.6618 99.9433 10.4063 99.9497H81.1689C86.9134 99.9433 91.5687 95.2879 91.5752 89.5435V52.0809C91.5719 51.5161 91.5217 50.9525 91.4253 50.3959L93.3584 49.6134C98.722 47.415 101.358 41.344 99.3025 35.924ZM10.4063 45.0049H81.1689C84.906 45.0155 87.9888 47.934 88.2035 51.6649H3.37163C3.58642 47.9338 6.66917 45.0153 10.4063 45.0049ZM27.1412 34.9749L38.2701 29.4088L40.5578 35.1314L29.4289 40.6958L27.1412 34.9749ZM88.2452 89.5437C88.2406 93.45 85.0752 96.6154 81.1689 96.6199H10.4063C6.49996 96.6154 3.33459 93.45 3.33001 89.5437V68.3149H88.2452V89.5437ZM88.2452 64.9849H3.33001V54.9949H88.2452V64.9849ZM92.1096 46.5367L90.3697 47.241C88.5726 43.8227 85.0309 41.6803 81.1689 41.6749H34.9184L43.4183 37.4241C44.1933 37.0372 44.5424 36.1206 44.2208 35.3162L40.6894 26.4917C40.3478 25.638 39.379 25.2226 38.5253 25.5639C38.4822 25.5812 38.4399 25.6001 38.3985 25.6209L24.281 32.6839C23.5065 33.0714 23.1583 33.9878 23.4801 34.7917L26.234 41.6749H17.4825L15.5112 36.4168C14.1136 32.7251 15.9087 28.5917 19.5605 27.0928L75.3897 3.94924C79.122 2.40162 83.4023 4.17256 84.9501 7.90487C84.9743 7.96294 84.9976 8.02142 85.0201 8.08011L96.1922 37.1277C97.6056 40.8521 95.7951 45.0246 92.1096 46.5367Z" fill="#56CCF2"/>
<path d="M59.8932 91.9375C62.996 93.7401 66.8273 93.7401 69.9301 91.9375C74.7007 94.7091 80.815 93.0885 83.5866 88.3178C86.3582 83.5472 84.7376 77.4329 79.9669 74.6613C78.4357 73.7717 76.6958 73.3051 74.9251 73.3093C73.1697 73.3101 71.446 73.7765 69.9301 74.6613C65.1594 71.8897 59.0451 73.5101 56.2735 78.2808C53.5019 83.0516 55.1226 89.1657 59.8932 91.9375ZM72.7139 77.0457C73.4222 76.7848 74.1702 76.6474 74.9251 76.6395C78.6033 76.6395 81.5851 79.6213 81.5851 83.2995C81.5851 86.9777 78.6033 89.9595 74.9251 89.9595C74.1702 89.9516 73.4222 89.8142 72.7139 89.5532C75.6618 85.905 75.6618 80.6938 72.7139 77.0457ZM69.9301 78.9405C72.1501 81.4226 72.1501 85.1764 69.9301 87.6585C67.71 85.1764 67.71 81.4224 69.9301 78.9405ZM64.9351 76.6395C65.6899 76.6472 66.4379 76.7848 67.1462 77.0457C64.1983 80.6938 64.1983 85.9052 67.1462 89.5532C66.4379 89.8142 65.6899 89.9516 64.9351 89.9595C61.2569 89.9595 58.2751 86.9777 58.2751 83.2995C58.2751 79.6211 61.2569 76.6395 64.9351 76.6395Z" fill="#56CCF2"/>
<path d="M70.2338 34.4121L71.5864 37.4551L87.4707 30.3943L86.1181 27.3513L70.2338 34.4121Z" fill="#56CCF2"/>
<path d="M82.5733 20.3027L59.6299 30.8926L61.0248 33.9147L83.9682 23.3249L82.5733 20.3027Z" fill="#56CCF2"/>
</g>
<defs>
<clipPath id="clip0">
<rect width="100" height="100" fill="white"/>
</clipPath>
</defs>
</svg>
